<svg xmlns="http://www.w3.org/2000/svg" xml:space="preserve" x="0px" y="0px" viewBox="0 0 700 780"><path d="M467.231 183.216c-.892 2.853-.733 5.224-1.08 7.512-.829 5.461-1.3 10.976-1.956 16.464-.174 1.46.35 2.184 1.831 2.363a3186.86 3186.86 0 0 1 20.899 2.595c7.281.928 14.562 1.85 21.833 2.848 8.326 1.144 16.653 2.29 24.957 3.577 12.933 2.005 25.916 3.838 38.12 8.96 14.923 6.264 27.359 15.569 36.005 29.504 2.318 3.735 4.1 7.688 5.2 11.969a2174.506 2174.506 0 0 1 18.483 77.977c1.616 7.417 2.551 14.903 2.176 22.513-.496 10.066-3.592 18.982-11.319 25.903-5.157 4.619-11.329 7.166-17.925 8.705-6.339 1.479-12.82 2.147-19.331 1.889-7.713-.306-14.896-2.284-21.008-7.345-4.741-3.925-7.928-8.846-9.886-14.63-1.095-3.234-1.13-3.338-4.504-2.655-3.478.704-6.815.304-10.004-1.038-4.68-1.969-7.019-5.64-7.273-10.709-.225-4.504 1.137-8.624 2.938-12.636 1.752-3.902 3.916-7.58 6.378-11.074.835-1.185.928-2.09.057-3.407-4.942-7.468-9.772-15.01-14.615-22.543-.785-1.221-1.591-1.712-3.159-1.222-9.237 2.881-18.729 3.613-28.378 3.635-11.502.027-23.001.637-34.51.594-2.253-.008-2.486.257-2.776 2.534-2.716 21.325-6.784 42.417-10.767 63.529-2.796 14.818-6.965 29.199-12.651 43.135-6.752 16.548-15.232 32.176-25.653 46.709-1.107 1.543-1.266 2.611-.305 4.214 3.727 6.218 7.344 12.502 10.99 18.768.487.837 1 1.615 1.866 2.131 5.011 2.987 8.087 7.597 10.044 12.874 4.741 12.784 9.589 25.537 13.506 38.609.75 2.503 1.946 5.017.949 7.781-.125.346.056.828.164 1.229a27455.86 27455.86 0 0 0 8.415 31.134c.083.305.214.597.391 1.084 2.415-1.485 4.125-3.677 6.2-5.421 6.497-5.461 13.873-8.486 22.343-9.243 8.098-.724 15.945-.078 23.477 3.073 1.383.578 2.187.095 3.121-.707 3.966-3.406 8.07-6.629 12.459-9.484 14.061-9.147 29.359-14.899 46.011-17.124 22.853-3.054 44.589.597 65.101 10.998 20.132 10.208 35.703 25.31 46.768 45.018 7.021 12.505 11.343 25.886 13.093 40.129.598 4.865 1.131 9.758 1.022 14.625-.588 26.219-8.732 49.822-25.543 70.073-17.41 20.973-39.697 34.153-66.562 38.634-32.953 5.497-62.793-2.307-88.985-23.237-9.822-7.849-18.018-17.214-24.603-27.959-.6-.979-1.071-2.062-2.201-2.977-2.562 3.554-5.324 6.888-8.194 10.126-7.372 8.316-15.117 16.233-24.483 22.366-6.291 4.12-12.977 7.304-20.411 8.79-9.303 1.859-18.2.71-26.733-3.407-5.605-2.704-8.99-7.471-11.451-12.885-3.418-7.52-5.17-15.502-6.059-23.722-.518-4.79-1.003-9.596-.418-14.341.407-3.298-.112-6.261-.985-9.339-3.697-13.042-8.567-25.655-13.731-38.166-6.714-16.264-14.035-32.257-21.858-48.008-3.463-6.971-6.625-14.067-9.892-21.121-.213-.459-.309-1.034-1.117-1.303-1.034.503-1.797 1.558-2.697 2.414-10.148 9.646-22.281 15.111-36.025 17.229-4.317.666-8.666 1.212-13.019 1.056-8.199-.294-16.382-1.105-24.193-3.754-6.056-2.054-11.696-5.144-17.382-8.063a375.288 375.288 0 0 1-26.147-14.802 158.086 158.086 0 0 0-6.928-4.082c-.49 2.462-.269 4.688.022 6.79.295 2.127.334 4.245.465 6.365.488 7.87 1.082 15.751.53 23.633-.757 10.813-3.377 21.013-10.523 29.585-5.66 6.789-12.989 10.503-21.606 11.9-12.912 2.094-23.357-3.098-32.558-11.396-8.912-8.037-13.944-18.456-17.043-29.865a96.629 96.629 0 0 1-3.376-25.243c-.013-7.675-.002-15.342.782-22.992 1.87-18.245 4.527-36.327 10.843-53.668 3.343-9.178 7.626-17.854 14.11-25.262 7.799-8.909 17.293-14.321 29.497-14.25 6.079.035 10.871 2.535 14.001 7.501 1.978 3.137 4.294 4.475 7.855 4.742 6.044.453 12.06 1.271 18.09 1.925.387.042.828.188 1.152-.267.052-.817-.573-1.321-1.012-1.889-5.616-7.269-9.44-15.423-11.957-24.221-.881-3.08-.882-3.274-4.142-2.867-5.638.703-11.292.54-16.916.343-17.029-.594-33.976-1.882-50.458-6.761-11.452-3.39-22.174-8.277-31.781-15.348-7.349-5.409-15.404-8.392-24.446-9.239-8.208-.769-16.369-.396-24.556.1-6.9.418-13.784 1.325-20.701 1.168-6.86-.155-13.559-1.321-19.662-4.748-6.454-3.624-10.494-9.258-12.995-16.058a48.576 48.576 0 0 1-2.973-15.61c-.294-11.759 5.297-20.029 15.729-24.838 13.799-6.36 28.241-7.563 43.058-4.177 14.665 3.351 28.894 8.145 43.037 13.186 14.846 5.292 29.584 10.886 44.442 16.143 12.265 4.34 24.94 5.125 37.826 3.776 7.458-.781 14.673-2.503 21.749-4.901 2.568-.87 2.566-.9 2.627-3.583.228-10.114 1.122-20.194 1.513-30.303.291-7.545.838-15.088 1.28-22.63.255-4.357.287-8.729.71-13.069.138-1.412-.072-1.774-1.465-2.06-2.728-.559-5.498-.486-8.24-.884-12.359-1.797-23.945-5.902-35.126-11.302-6.442-3.112-12.598-6.731-18.482-10.793-1.417-.978-2.256-.912-3.488.306-5.762 5.698-11.6 11.32-17.48 16.896-1.189 1.127-1.498 2.027-.675 3.551 1.47 2.723 2.38 5.656 2.984 8.726 1.841 9.344-3.904 14.005-11.168 14.806-3.414.376-3.412.313-3.643 3.673-.796 11.579-7.885 17.27-19.125 18.531-4.691.526-9.24-1.287-13.527-3.263-12.379-5.705-21.837-14.649-28.988-26.185-7.137-11.514-8.65-24.027-7.074-37.203.777-6.49 2.201-12.783 4.507-18.892.382-1.011.843-1.948 1.448-2.832 10.049-14.698 20.073-29.414 30.15-44.093 8.278-12.059 18.036-22.694 30.223-30.931 9.663-6.531 20.195-11.023 31.727-12.887 5.888-.951 11.829-1.218 17.82-.389 4.754.657 9.585.255 14.376.148 10.44-.232 20.88-.514 31.317-.815 12.991-.375 25.983-.735 38.976-1.077 2.43-.064 2.308-.101 2.582-2.512.594-5.208.432-10.428.446-15.646.007-2.566-.36-5.103-1.174-7.535-1.192-3.56-2.621-4.442-6.411-4.396-4.479.054-8.958.027-13.437.028-.532 0-1.078.022-1.594-.08-2.628-.524-3.779-2.869-2.231-5.047 7.211-10.142 10.051-22.007 13.375-33.672 1.428-5.013 2.562-10.111 3.759-15.187.661-2.803.565-2.774-1.729-4.293-9.852-6.522-15.316-15.74-16.766-27.419-.407-3.279-.643-6.504-.074-9.833 1.009-5.905 3.878-10.534 8.653-14.028 4.657-3.408 10-5.211 15.59-6.266 4.393-.83 8.85-1.34 13.329-1.301 1.654.014 2.712-.525 3.805-1.769 12.756-14.509 28.37-24.725 46.721-30.705 9.343-3.044 18.917-4.869 28.752-5.589 7.147-.523 14.29-.583 21.407-.294 9.695.394 19.277 1.942 28.493 5.151 1.986.692 3.549.513 5.403-.426 9-4.562 18.49-6.906 28.675-6.157 9.954.732 16.746 5.522 20.232 14.97 2.423 6.567 3.58 13.348 3.747 20.313.081 3.413.11 6.832-.019 10.242-.073 1.924.405 3.494 1.593 5.006 8.531 10.863 15.616 22.638 21.579 35.074 9.012 18.792 16.117 38.27 20.502 58.688.816 3.798-.848 5.472-4.66 4.728-2.296-.448-4.599-.873-6.867-1.439-1.343-.336-1.984-.133-2.051 1.399-.206 4.68-.493 9.356-.761 14.033-.432 7.543-1.197 15.067-1.314 22.629-.008.52-.174 1.049-.33 1.554-.773 2.488-2.775 3.36-4.916 1.921-1.938-1.302-3.679-2.898-5.506-4.365-1.409-1.124-2.807-2.25-4.543-3.646z"/><path d="M357.164 697.405c2.925.59 5.849 1.164 8.501 2.648 7.303 4.088 11.307 10.281 11.399 18.67.138 12.694.038 25.391.035 38.087-.002 10.307-8.036 20.467-20.96 21.221-.638.037-1.279.007-1.919.007-106.306 0-212.612-.006-318.917.012-8.546.001-15.272-3.294-19.916-10.561-2.119-3.316-3.124-6.998-3.147-10.91-.051-8.535-.022-17.07-.025-25.605-.001-3.414.11-6.832-.021-10.241-.4-10.414 5.833-20.74 18.391-23.012.524-.095 1.045-.21 1.568-.316 1.139-.419 2.323-.212 3.484-.212 106.014-.011 212.029-.011 318.043 0 1.161 0 2.345-.206 3.484.212z"/><path fill="#503A8B" d="M357.164 697.405c-1.278.035-2.555.1-3.833.1-105.782.005-211.564.005-317.345 0-1.278 0-2.555-.064-3.833-.099 1.219-1.019 2.667-.53 4.001-.53 99.272-.025 198.544-.022 297.816-.022 6.718 0 13.435-.014 20.153.015 1.027.003 2.154-.346 3.041.536z"/><path fill="#FFF" d="M500.822 220.533c4.896.464 4.907.466 3.993 5.325-2.976 15.824-5.415 31.73-6.99 47.754-1.284 13.062-1.91 26.164-1.504 39.299.01.32.006.643.051.958.223 1.55-.201 2.22-1.999 2.236-7.672.069-15.341.341-23.013.484-3.61.067-7.222.012-11.164.012.672-4.023 1.327-7.963 1.99-11.901.973-5.779 1.951-11.556 2.926-17.335.106-.63.281-1.262.285-1.893.011-1.637-1.019-2.954-2.489-3.299-1.59-.373-3.226.467-3.736 2.2-.509 1.729-.763 3.536-1.068 5.32-1.67 9.766-3.554 19.503-4.914 29.313-1.318 9.5-2.576 19.007-4.139 28.469-2.414 14.61-5.176 29.157-7.923 43.707-.39 2.067-1.277 3.017-3.293 3.6-14.347 4.154-28.935 7.063-43.734 9.02-20.869 2.76-41.831 3.66-62.847 3.033-16.081-.48-32.17-1.229-48.012-4.38-18.992-3.778-36.427-10.98-51.234-23.805-2.906-2.517-5.557-5.287-8.112-8.161-1.064-1.197-1.498-2.405-1.399-4.025.588-9.58 1.073-19.166 1.608-28.749.279-5.004.617-10.005.877-15.01.208-4.01-.687-4.941-4.694-4.984-10.44-.111-20.494-2.263-30.308-5.699-.29-.102-.535-.333-.858-.54-.226-.902.402-1.57.719-2.301 5.606-12.89 8.916-26.404 10.919-40.267 2.772-19.186 3.061-38.458 1.837-57.772-.29-4.573-.772-9.133-1.179-13.85 1.651-.548 3.321-.401 4.987-.307 3.921.178 44.11-1.112 44.906-1.301 1.369-.042 3.05-.616 4.022.173 1.061.861.248 2.593.306 3.94.113 2.678.968 3.568 3.706 3.684.955.041 1.913-.003 2.869-.008 1.553.704 1.533 2.202 1.706 3.543 1.025 7.927 1.595 15.9 1.779 23.88.211 9.162.023 18.333.062 27.5.017 3.995.646 4.622 4.633 4.76 11.059.383 22.1 1.08 33.136 1.869 3.839.275 4.008-.081 4.473-3.859.838-6.805.442-13.624.584-20.437.035-1.676-.212-3.481 1.51-4.622 6.9-1.323 13.828-2.293 20.888-2.081 18.493.555 33.529 7.872 44.343 23.045 2.59 3.633 4.925 4.74 8.216.206 3.387-4.666 7.637-8.567 12.407-11.849 1.393-.958 2.756-1.99 4.433-2.439 1.088 1.083.639 2.386.495 3.63-.663 5.722-1.696 11.393-2.276 17.13-.244 2.418.515 3.29 2.875 3.329 11.397.185 22.763 1.061 34.139 1.678 2.469.134 2.779-1.267 3.007-3.117 1.505-12.182 3.35-24.309 5.888-36.325.86-4.072 1.673-8.154 2.72-12.182.342-1.317.589-2.798 2.355-3.057 1.041.109 2.081.269 3.125.315 2.343.105 46.063 6.042 48.11 6.143z"/><path fill="#EB7938" d="M264.087 111.868c6.574-2.183 12.898-5.01 19.352-7.502 3.562-1.376 7.094-2.832 10.67-4.265-.447-.97-1.191-1.115-1.843-1.381-8.442-3.449-17.247-5.462-26.291-6.362-4.811-.479-9.631-.131-14.087 1.969-1.537.724-2.395.097-3.412-.727-7.323-5.935-10.814-13.797-11.555-23.031-.094-1.167-.058-2.346-.057-3.519.004-5.311 2.265-9.451 6.567-12.488 4.935-3.484 10.636-4.772 16.475-5.604 1.676-.239 3.376-.31 5.269-.476.179 1.422-.852 2.381-1.121 3.545-.41 1.77.225 3.273 1.782 3.968 1.538.687 3.227.202 4.084-1.44 5.429-10.399 13.867-18.045 23.103-24.82 14.212-10.425 30.328-16.128 47.685-18.812 4.624-.715 7.56.177 10.598 3.909 7.265 8.928 15.076 17.411 22.693 26.051.896 1.017 1.66 2.201 2.902 2.917.872-1.009.488-2.124.491-3.139.034-8.962.007-17.924.028-26.886.006-2.717.047-2.709 2.634-2.267 20.813 3.555 38.555 13.177 53.924 27.426 11.511 10.673 20.794 23.115 28.845 36.54.986 1.645.735 2.529-.593 3.749-3.376 3.1-6.6 6.365-9.893 9.556-1.215 1.178-2.451 2.334-4.125 3.926 8.276 2.606 16.029 4.972 23.88 7.024.427.169.737.493.723.935-.199 6.103-.023 12.245-1.764 18.195-1.062 1.64-2.867 1.702-4.505 2.002-6.266 1.149-12.521 2.343-18.749 3.7-.009 1.293.99 1.477 1.615 1.902 4.839 3.297 9.848 6.334 14.73 9.567 1.147.76 2.449 1.344 2.937 2.799.196 1.241-.236 2.17-1.354 2.765-3.348.773-6.746.222-10.119.374-1.371.062-2.755-.067-4.09.366-4.989.584-5.05.531-7.516-3.771-1.484-2.589-3.732-4.111-6.744-4.203-8.12-.249-16.213-.183-24.034 2.524-1.168.404-2.58 1.191-3.62.145-1.024-1.03-.393-2.504.099-3.636 1.428-3.283.385-6.745.916-10.08.321-.46.785-.695 1.308-.834 4.118-.228 8.373.152 11.813-2.922 2.714-2.424 5.419-4.859 7.04-8.192 4.056-8.341 5.185-16.806 1.22-25.582-2.41-5.332-9.323-9.78-15.928-6.796-.772.349-1.598.614-2.483.449-.508-.147-.868-.45-1.02-.97-.053-1.428.98-2.318 1.712-3.333 2.431-3.374 4.98-6.661 7.39-10.052 1.14-1.604 1.795-3.079.695-4.978-.771-1.331-1.739-2.094-3.324-2.011-2.184.114-2.701 1.825-3.292 3.422-2.774 7.501-5.559 14.998-8.283 22.517-.727 2.007-1.512 3.974-2.462 5.894-3.384 6.84-4.39 13.955-2.376 21.431.83 3.081.147 3.801-2.944 3.066-6.169-1.467-11.813-.196-17.185 2.902-.703.406-1.441 1.183-2.295.515-.641-.501-.521-1.372-.371-2.106 1.966-9.614-1.664-17.41-7.466-24.788-3.635-4.623-5.043-10.537-7.578-15.813-1.8-3.747-3.491-7.548-5.138-11.364-.96-2.224-2.152-2.341-3.888-.943-1.912 1.54-3.987 2.858-6.039 4.198-1.75 1.143-1.667 2.153-.196 3.478 3.166 2.851 6.49 5.535 9.363 8.703.853.94 1.932 1.7 2.367 2.976.032.354-.085.648-.35.884-1.36.691-2.73.09-4.076-.026-11.068-.956-17.169 7.584-16.606 16.815.54 8.849 4.596 16.016 11.542 21.557 1.269 1.012 3.675 1.686 3.269 3.447-.398 1.724-2.769.869-4.259 1.183-1.878.395-3.831.656-5.502 1.583-2.66 1.474-5.242 1.268-7.989.366-6.167-2.024-12.634-2.921-18.815-4.898-1.277-.547-2.643-.816-3.956-1.248-.414-.09-.808-.273-1.215-.309-.179.076-.332-.338-.555-.052.173-.01.34.023.521.103.279.034.528.095.781.191 1.21.254 2.335.761 3.54 1.002 6.049 2.059 12.03 4.289 17.907 6.788 3.072 1.306 3.353 1.943 2.274 5.147-.66 1.96-.809 3.954-.862 5.98-.054 2.076-1.099 3.122-3.182 3.154-2.021.031-4.046.174-6.044-.284-3.127-.763-6.369-.271-9.506-.874a28.163 28.163 0 0 1-1.006-.034c-1.234-.427-2.523-.24-3.786-.315-.647-.1-1.3-.188-1.91-.443.925.427 1.913.484 2.918.474.307 0 .609.004.914.008.809-.062 1.55.356 2.354.319 1.489.201 2.976.405 4.485.318 4.022.391 8.021.944 12.009 1.58.839.134 1.948.091 2.383.761 1.902 2.931 4.291 5.63 5.7 8.763.994 2.211-1.651 1.998-3.077 2.32-2.639-.084-5.252.27-7.87.484-1.412.142-2.816.398-4.232.508 1.724-.276 3.472-.309 5.194-.648 4.058-.094 8.094-.76 12.16-.367 1.741.634 3.044 1.928 4.447 3.056 3.345 2.69 6.916 5.017 10.98 6.417 2.214.763 3.204 2.057 3.441 4.381a46.595 46.595 0 0 0 2.793 11.787c.757 2.003 1.564 3.982 2.798 5.728 5.084 7.196 11.183 13.527 18.418 18.43 7.194 4.875 15.217 4.094 22.918.798 3.674-1.572 5.92-4.798 7.431-8.438.981-2.364 1.886-4.832 1.992-7.381.262-6.25 2.929-11.712 5.212-17.325.794-1.952 2.06-3.109 4.151-3.526 3.36-.671 6.586-1.762 9.482-3.656 1.408-.921 2.875-1.129 4.555-.966 2.547.247 5.056.708 7.588 1.038 1.571.637 3.373.052 4.902.915.272.214.455.488.555.819.012 2.535-1.712 4.323-2.873 6.299-7.106 12.086-15.886 22.719-27.795 30.366-12.187 7.825-25.448 12.828-39.948 14.266-1.905.189-3.771.721-5.709.644-2.263.002-4.523.013-6.783.008-15.776-1.182-30.677-5.514-44.96-12.257-8.085-3.816-16.01-7.89-23.59-12.627-.363-.26-.71-.546-1.066-.813a47.784 47.784 0 0 1-1.33-.964 15.707 15.707 0 0 0-.985-.623c-.683-.367-1.364-.737-1.874-1.346-.181-.184-.353-.376-.53-.564-.101-.083-.193-.173-.294-.256-.22-.149-.431-.306-.648-.458-.987-.712-2.1-1.266-2.849-2.271a8.85 8.85 0 0 1-.447-.629c-.075-.098-.144-.205-.219-.302-.16-.181-.315-.37-.479-.549-.091-.078-.175-.164-.266-.242-.195-.141-.381-.294-.569-.444a5.97 5.97 0 0 1-.796-.753c-.268-.263-.537-.523-.807-.785-.464-.465-.775-1.032-1.09-1.598-.146-.215-.283-.436-.429-.652-.087-.099-.164-.204-.251-.304-.198-.185-.387-.374-.589-.555-.113-.085-.215-.175-.328-.261a7.567 7.567 0 0 1-.676-.559c-2.129-2.967-5.249-5.374-5.342-9.489 2.592-3.63 5.592-6.917 8.745-10.05 2.925-2.906 5.505-6.093 8.804-9.821-9.46-.014-18.195-.046-26.936.045-1.532-.745-1.716-2.32-2.115-3.677-1.021-3.474-2.789-6.782-2.502-10.567 3.276-3.121 7.485-4.833 11.173-7.339 3.843-2.612 7.935-4.852 12.126-7.769-9.363-1.647-18.395-2.273-27.254-4.05-1.467-1.777-1.296-3.701-.505-5.68zM540.762 253.717c1.741-7.47 3.481-14.941 5.223-22.411.169-.727.44-1.441.516-2.176.143-1.385.834-1.827 2.158-1.551 4.275.892 8.532 1.837 12.724 3.086 1.497.446 1.667 1.352 1.661 2.627-.027 5.869-.012 11.738-.011 17.607v3.184c1.314-.079 1.631-.977 2.141-1.574 3.739-4.381 7.486-8.756 11.146-13.203 1.047-1.272 1.914-1.635 3.417-.667 2.872 1.848 5.754 3.678 8.394 5.847 1.5 1.232 2.189 1.094.801 3.622-2.867 5.224-5.601 10.52-8.402 15.809.882.685 1.481.035 2.066-.22 4.979-2.176 9.969-4.333 14.894-6.628 1.58-.736 2.455-.442 3.363.992 2.634 4.161 4.874 8.429 6.124 13.28 6.784 26.313 13.086 52.738 18.729 79.318 1.716 8.084 2.412 16.252.91 24.46-1.764 9.639-7.108 16.569-16.175 20.343-9.984 4.155-20.475 5.292-31.05 3.429-10.907-1.922-17.186-9.155-19.979-19.638-.247-.925-.352-1.888-.599-2.813-.602-2.254-2.01-3.07-4.286-2.547-1.763.405-3.515.871-5.293 1.19-2.007.36-4.024.37-6.017-.216-2.88-.846-4.234-2.563-4.389-5.531-.143-2.737.605-5.288 1.613-7.768 2.017-4.967 4.765-9.525 7.895-13.865 2.146-2.976 2.158-3.469.159-6.557a15121.62 15121.62 0 0 0-17.583-27.109c-2.026-3.116-2.748-3.345-6.342-2.049-6.266 2.259-12.771 3.323-19.375 3.846-2.672.212-2.719.135-2.764-2.452-.203-11.525.087-23.024 1.111-34.521a494.378 494.378 0 0 1 4.086-33.315c1.147-7.261 2.568-14.478 3.8-21.726.254-1.494.803-1.875 2.35-1.627a617.056 617.056 0 0 0 18.656 2.681c1.478.191 1.874.864 2.133 2.209 1.632 8.474 3.367 16.928 5.068 25.389.473.327-.16 1.659 1.127 1.245zM144.872 228.764c-.824-8.593-1.631-17.187-2.48-25.777-.308-3.12-.362-3.151 2.606-3.931 1.851-.487 3.773-.728 5.594-1.297 1.757-.549 2.456.197 3.107 1.69 3.15 7.23 6.378 14.427 9.61 21.621.559 1.244.953 2.588 2.044 3.914.716-.929.86-1.929 1.108-2.863 1.94-7.311 3.865-14.626 5.802-21.937.686-2.588.698-2.545 3.423-2.656 5.535-.226 11.085.058 16.611-.481 1.536-.15 2.271.32 2.433 2.053 1.429 15.304 2.152 30.607 1.384 45.994-.752 15.066-2.631 29.922-6.599 44.486-1.627 5.97-3.67 11.799-6.222 17.441-.918 2.03-.963 2.051-3.03 1.134-8.501-3.774-16.588-8.299-24.088-13.798-3.345-2.452-4.868-2.15-7.654.632-7.093 7.081-14.383 13.964-21.582 20.939-2.457 2.381-2.535 3.016-.938 6.107 1.57 3.037 2.997 6.126 3.663 9.513.931 4.738-.892 7.137-5.737 7.404-1.486.082-2.983-.012-4.474-.061-3.219-.104-4.187.755-4.222 4.071-.024 2.249-.274 4.468-.546 6.689-.917 7.509-7.763 12.601-15.316 11.394-5.028-.803-9.576-2.852-13.868-5.502-8.981-5.547-16.031-12.965-21.347-22.076-5.748-9.851-6.651-20.536-5.494-31.572.244-2.327.663-4.644 1.135-6.938 1.277-6.205 3.502-11.903 7.259-17.19 10.003-14.079 19.616-28.435 29.387-42.679.362-.527.802-1.006 1.12-1.556.863-1.495 1.926-1.54 3.45-.886 8.417 3.613 16.876 7.128 25.35 10.689.741-1.006-.125-1.648-.461-2.3-3.801-7.393-7.656-14.758-11.479-22.141-1.229-2.374-1.212-2.395.903-4.115 2.566-2.086 5.194-4.09 7.978-5.88 1.948-1.252 1.971-1.254 3.523.608 5.735 6.881 11.458 13.772 17.186 20.659 1.415.228 1.039-.648.861-1.402z"/><path fill="#D02622" d="M246.596 396.587c4.767 2.087 9.469 4.341 14.315 6.226 9.259 3.603 18.902 5.791 28.721 7.195 10.218 1.461 20.509 2.027 30.806 2.662 13.315.821 26.624.682 39.926.306 7.207-.204 14.424-.766 21.619-1.546 6.976-.756 13.938-1.533 20.874-2.61 10.941-1.699 21.767-3.889 32.406-6.976.896-.26 1.824-.409 3.261-.724-6.964 26.767-18.249 51.075-33.85 73.365-1.253-.107-1.55-.995-2.005-1.643-7.414-10.55-14.811-21.112-22.213-31.671-.428-.61-.819-1.254-1.309-1.811-1.231-1.399-3.24-1.76-4.576-.879-1.473.973-1.728 2.623-.545 4.512 1.017 1.624 2.168 3.165 3.269 4.735 3.734 5.321 7.475 10.636 11.203 15.961.422.602.774 1.253 1.277 2.074-2.286.843-4.526.411-6.686.552-20.835 1.356-39.787 7.633-56.192 20.953-9.95 8.078-18.18 17.623-25.216 28.27-.168.254-.397.468-.598.7-1.868-.396-2.62-2.111-3.742-3.316-13.683-14.695-26.488-30.079-37.165-47.162-8.068-12.909-12.801-26.91-14.385-42.009-.881-8.394-.842-16.796-.078-25.197.069-.756.189-1.492.883-1.967z"/><path fill="#FFF" d="M210.094 605.454c.152 8.229.205 16.433-2.027 24.455-1.708 6.138-4.175 11.922-8.975 16.3-8.775 8.003-18.895 10.421-30.143 6.245-8.784-3.262-15.393-9.347-20.443-17.174-5.172-8.016-7.987-16.898-9.529-26.228-1.89-11.436-1.704-22.911-.764-34.427 1.077-13.19 2.812-26.265 5.874-39.148 2.023-8.511 4.636-16.83 8.423-24.736 3.575-7.464 7.986-14.344 14.504-19.631 5.548-4.501 11.832-7.009 19.069-7.083 5.022-.051 8.045 2.787 10.488 6.669.698 1.109.119 1.725-.786 2.317-3.409 2.232-6.46 4.88-9.053 8.033-7.051 8.573-9.973 18.391-8.959 29.44.986 10.745 5.303 20.07 11.876 28.466 4.759 6.079 10.337 11.343 16.38 16.101 1.491 1.174 2.055 2.391 2.171 4.248.542 8.723 1.247 17.436 1.894 26.153zM282.995 171.327c1.114 3.393 3.541 5.948 5.586 8.746.266.244.554.467.774.759l-.027-.048c.24.212.475.428.655.696l-.022-.054c.317.257.569.559.681.962l1.129 1.519c.32.272.617.564.853.914.099.162.231.287.396.377.294.228.585.46.826.746l-.041-.038c.242.21.468.437.683.676l-.042-.033c.288.237.517.527.744.82l2.822 2.373c.392.124.692.376.956.681l-.054-.021c.292.215.512.502.76.761l1.555 1.131c.438.178.786.515 1.224.693l.683.59c.445.167.793.509 1.236.68 16.543 9.925 33.676 18.471 52.668 22.73 5.094 1.143 10.285 1.522 15.435 2.228 2.611.531 5.223.503 7.835.015 10.461-.88 20.56-3.167 30.312-7.175 18.407-7.565 31.86-20.561 41.832-37.491 1.135-1.927 2.192-3.9 3.286-5.851.056-.081.103-.17.169-.241.276-.299.759.008 1.02-.342-.451.256-.623-.125-.855-.378 1.037-4.973 3.383-9.414 5.604-13.91.247-.223.528-.389.838-.507 2.087-.519 4.218-.337 6.334-.391h1.412c.577.04 1.196-.134 1.556.13-.319-.391-.964-.059-1.526-.15h-1.417c-1.141.006-2.28-.011-3.42.012-2.646-.003-3.319-1.287-2.56-3.716.729-2.332 1.157-4.761 2.357-6.93.38-.52.883-.826 1.532-.859.362-.011.731-.011 1.059-.014l.137.012s-.049-.017-.079-.013c-.284-.034-.54-.011-.807-.019-.353-.015-.717.027-.895-.372.029-.825.615-1.583.299-2.45-.452-4.465 1.554-8.546 2.043-12.874.245-2.168.196-4.525 1.754-6.377 1.302-6.468 1.432-13.044 1.798-19.596l.353-6.877c8.176 16.185 14.224 33.072 18.548 50.708-2.183.461-3.945-.581-5.816-.691-.628-.037-1.238-.321-1.867-.419-3.151-.491-4.432.423-4.679 3.581-.432 5.527-.759 11.063-1.114 16.596-.362 5.64-.693 11.282-1.074 16.92-.047.703.082 1.475-.577 2.321-2.226-1.799-4.443-3.587-6.656-5.379-.746-.604-1.456-1.255-2.231-1.817-2.628-1.904-5.079-1.011-5.615 2.154-.48 2.834-.757 5.705-1.075 8.565-.729 6.569-1.419 13.141-2.15 19.71-.092.824-.061 1.708-.731 2.487-3.584-2.397-7.465-3.509-11.787-2.46-2.634.639-4.954 1.902-7.113 3.496-4.437 3.275-7.839 7.496-10.947 11.987-3.037 4.389-5.651 9.027-7.989 13.817-.573 1.174-1.004 1.531-2.381.971-6.402-2.605-12.71-1.889-18.891.895-6.227 2.805-11.354 7.09-16.051 11.951-.96.993-1.89 2.016-2.98 3.181-1.109-1.256-2.141-2.433-3.182-3.603-11.446-12.871-25.914-19.36-42.978-20.308-13.065-.726-25.649 1.687-37.93 5.98-.985.344-1.899.95-3.223.864 0-5.766-.033-11.505.013-17.243.026-3.264-.609-6.376-2.082-9.264-3.11-6.094-8.491-9.008-14.905-10.417-3.478-.764-7.003-.476-10.513-.527-2.611-.038-2.62-.033-2.583-2.574.119-7.996.288-15.992.348-23.988.027-3.532-.369-7.033-1.855-10.306-2.291-5.044-5.964-7.879-11.767-7.526-2.748.167-5.514.029-8.635.029 8.066-17.173 12.266-35.232 16.092-53.714 1.813.915 3.706 1.817 5.544 2.818 1.111.605 1.525 1.647 1.633 2.922.206 2.44.553 4.868.841 7.303.371 1.767.105 3.631.827 5.341.162.139.398.266.441.446 1.537 6.356 3.342 12.662 3.711 19.244.799 4.711 2.336 9.201 4.076 13.631 1.819 1.388 2.07 3.619 2.83 5.529 2.076 5.212 5.062 10.002 7.022 15.265z"/><path fill="#D02622" d="M393.379 694.639c-.848-1.262-1.089-2.727-1.535-4.084-4.927-14.997-10.88-29.588-17.226-44.031-5.188-11.809-10.678-23.476-16.305-35.079-.76-1.568-.736-2.497.504-3.87 13.486-14.926 28.598-27.73 46.839-36.546 8.012-3.872 16.389-6.561 25.188-7.897 1.155-.175 2.339-.226 3.509-.217 5.725.046 4.749-1.01 6.48 4.795 3.221 10.805 5.811 21.797 8.758 32.686.366 1.353.092 2.148-.839 3.08-17.687 17.689-31.038 38.417-42.14 60.673-4.471 8.963-8.353 18.203-11.765 27.633-.344.95-.332 2.142-1.468 2.857z"/><path fill="#EB7938" d="M14.747 408.717c-2.105-5.67-3.099-11.47-1.951-17.496.835-4.379 3.138-7.878 6.594-10.637 2.436-1.944 5.137-3.439 8.055-4.52 7.884-2.922 16.045-4.12 24.438-4.001 1.715.024 2.142.683 2.124 2.276-.069 6.074-.028 12.149-.028 18.409 1.243-.559 1.364-1.713 1.764-2.595 2.161-4.754 4.322-9.511 6.331-14.331.671-1.611 1.552-2.096 3.164-1.648 4.411 1.227 8.817 2.473 13.258 3.584 1.507.377 1.705 1.251 1.692 2.547-.044 4.367-.017 8.735-.017 13.103 1.176.292 1.271-.709 1.614-1.243 1.959-3.051 3.914-6.107 5.749-9.233.822-1.4 1.57-1.931 3.292-1.297 5.495 2.024 11.054 3.878 16.616 5.713 1.454.48 2.001 1.029 1.704 2.736-.819 4.71-1.358 9.469-2.012 14.241 1.111-.005 1.44-.894 1.966-1.494 2.815-3.206 5.67-6.381 8.378-9.676 1.036-1.26 1.963-1.627 3.502-.985a106.412 106.412 0 0 0 8.084 3.008c1.653.538 2.349 1.326 2.291 3.19-.152 4.901-.052 9.81-.052 14.719 1.114.335 1.3-.625 1.686-1.118 2.696-3.443 5.376-6.9 7.979-10.412.841-1.135 1.658-1.401 2.981-.868 2.27.915 4.597 1.692 6.919 2.473 3.082 1.037 3.093 1.015 3.096 4.442.004 4.375-.02 8.75.02 13.125.007.8-.319 1.691.388 2.491 1.015-.57 1.296-1.641 1.796-2.508 2.396-4.157 4.773-8.326 7.075-12.535.651-1.191 1.387-1.667 2.783-1.488 2.85.365 5.72.68 8.589.759 1.647.046 2.178.71 2.431 2.206.907 5.358 1.918 10.698 2.899 16.043.227 1.24.488 2.474.747 3.781 1.201-.624 1.319-1.79 1.736-2.714a1119.446 1119.446 0 0 0 7.887-17.842c.616-1.431 1.433-2.052 3.035-2.267 6.234-.839 12.36-2.22 18.361-4.149 1.805-.58 2.065-.344 1.962 1.574-.633 11.713-1.291 23.425-1.962 35.137-.029.514-.264 1.016-.403 1.524-.618.711-1.472.862-2.325.859-5.535-.019-11.062.207-16.604-.245-7.002-.571-14.009-1.01-20.981-1.932-11.403-1.507-22.121-5.351-32.814-9.354-24.312-9.101-49.154-16.272-74.897-19.996-4.624-.669-9.295-1.179-13.997-1.063-10.751.264-21.517-.552-32.257.485-.994.099-1.908-.115-2.686-.778z"/><path fill="#FFF" d="M356.184 606.354c-1.061-.578-1.19-1.605-1.572-2.445-6.782-14.917-13.502-29.863-20.362-44.745-.982-2.13-.751-3.59.622-5.424 10.063-13.437 23.025-23.219 37.996-30.507 13.678-6.659 28.094-10.942 43.071-13.49 2.197-.374 3.704.251 5.124 1.689 1.974 2 3.523 4.327 4.495 6.927 4.957 13.251 9.928 26.499 14.041 40.047.118.389.093.821.151 1.386a75.578 75.578 0 0 0-19.904 2.927c-12.624 3.619-24.012 9.721-34.65 17.316-10.014 7.15-18.979 15.475-27.318 24.497-.564.61-1.132 1.218-1.694 1.822zM246.596 396.587c-.121 2.875-.234 5.75-.366 8.624-.662 14.404.823 28.519 5.763 42.151 3.108 8.576 7.728 16.361 12.742 23.921 9.574 14.436 20.77 27.573 32.404 40.358 1.358 1.492 2.924 2.813 3.943 4.597-4.283 6.878-8.183 13.962-11.475 21.376-.937 2.11-.988 2.099-3.258.988-13.016-6.364-24.13-15.158-33.524-26.175-4.984-5.846-9.525-12.039-14.285-18.061-1.586-2.007-3.187-4.006-4.846-5.953-8.177-9.599-12.699-20.801-14.772-33.139-1.358-8.082-.79-16.159-.343-24.25.77-13.949 1.541-27.898 2.32-41.847.196-3.507.423-7.013.675-11.161 7.656 7.639 15.822 13.826 25.022 18.571z"/><path fill="#EB7938" d="M413.549 503.536c-4.089.902-7.719 1.632-11.314 2.507-17.844 4.34-34.647 11.089-49.717 21.766-8.313 5.89-15.662 12.807-21.838 20.938-.382.503-.822.961-1.369 1.597-2.504-2.82-4.127-6.031-5.769-9.228-.438-.852-.773-1.768-1.295-2.562-1.05-1.598-2.628-2.018-4.128-1.213-1.534.823-2.237 2.356-1.507 4.04 1.014 2.34 2.278 4.572 3.417 6.859.276.555.777 1.038.608 1.887-.379 0-.808.08-1.196-.012-8.915-2.121-17.678-4.729-26.151-8.254-1.268-.528-2.145-.918-1.321-2.728 8.628-18.961 19.908-35.941 36.171-49.29 13.272-10.894 28.482-17.259 45.407-19.729 5.383-.786 10.78-1.272 16.22-1.318 1.339-.011 2.338.211 3.257 1.443 7.732 10.371 13.613 21.864 20.525 33.297z"/><path fill="#FFF" d="M582.832 680.12c-.166 3.932-.427 8.83-.55 13.731-.042 1.687-.561 2.618-2.232 3.315a4168.443 4168.443 0 0 0-41.702 17.659c-1.483.637-2.534.448-3.81-.339a4162.872 4162.872 0 0 0-28.061-17.152c-1.316-.797-1.885-1.533-1.648-3.262 1.984-14.459 3.818-28.939 5.71-43.411.276-2.109.347-4.25.947-6.31 2.019-.048 3.76-1.018 5.584-1.7 8.562-3.202 17.133-6.38 25.663-9.667 1.573-.606 2.652-.494 4.004.592a4597.118 4597.118 0 0 0 35.274 28.05c1.353 1.066 1.732 2.164 1.614 3.8-.332 4.568-.507 9.15-.793 14.694zM540.784 739.962c0-6.829.1-13.662-.075-20.487-.041-1.597.43-2.182 1.739-2.729 10.208-4.267 20.396-8.583 30.587-12.892a569.068 569.068 0 0 0 8.5-3.658c1.06-.469 1.927-.436 2.958.233a2929.48 2929.48 0 0 0 27.445 17.599c1.309.827 1.457 2.016 1.657 3.238.93 5.68 1.802 11.37 2.701 17.056.799 5.053 1.555 10.114 2.434 15.154.347 1.987.148 3.709-.947 5.473-1.571 2.53-2.965 5.181-4.283 7.855-.632 1.282-1.544 1.93-2.85 2.261-12.197 3.091-24.538 4.212-37.089 2.937-10.133-1.029-19.911-3.42-29.341-7.258-3.43-1.396-3.434-1.387-3.435-4.933l-.001-19.849zM549.077 630.603c1.999-.311 2.427-1.525 2.716-3.151 1.603-9.021 3.401-18.007 4.991-27.03.291-1.648 1.032-2.322 2.511-2.776a7947.598 7947.598 0 0 0 46.33-14.354c1.479-.464 2.517-.516 3.705.672a2678.952 2678.952 0 0 0 21.855 21.58c.973.951 1.113 1.759.756 3.084-3.768 13.983-7.453 27.989-11.122 41.999-.334 1.277-.905 1.904-2.279 2.202-10.399 2.26-20.778 4.614-31.154 6.975-1.109.252-1.983.207-2.939-.559-11.644-9.332-23.323-18.621-34.989-27.926-.076-.06-.101-.181-.381-.716zM665.63 687.823c-5.544 0-11.089-.048-16.632.033-1.451.021-2.336-.439-3.12-1.659a6759.965 6759.965 0 0 0-21.001-32.485c-.689-1.06-.852-1.999-.508-3.273 3.475-12.847 6.91-25.706 10.232-38.594.475-1.842 1.22-2.289 3.037-2.194a1984.11 1984.11 0 0 0 32.26 1.421c1.553.056 2.252.761 2.964 1.918 6.887 11.194 11.537 23.245 13.869 36.179 1.886 10.46 2.179 20.963.899 31.531-.302 2.489-1.705 4.301-2.8 6.339-.6 1.118-1.662.766-2.568.771-5.543.026-11.088.013-16.632.013z"/><path fill="#EB7938" d="M268.811 581.726c-.064-13.304 2.123-25.157 7.334-36.383.359-.773.779-1.519 1.129-2.296.517-1.147 1.187-1.191 2.275-.631 3.125 1.608 6.274 3.182 9.487 4.605 11.353 5.03 23.252 8.322 35.393 10.737 1.855.369 2.697 1.21 3.401 2.798 3.328 7.502 6.685 14.992 10.185 22.415.88 1.867.575 3.053-.788 4.464-9.356 9.684-20.673 15.568-33.913 17.861-9.902 1.715-19.74 1.243-29.548-.697-2.572-.509-2.567-.523-3.071-3.189-1.291-6.828-1.932-13.716-1.884-19.684z"/><path fill="#FFF" d="M14.747 408.717c12.662-1.074 25.347-.951 38.024-.536 11.646.381 23.022 2.743 34.348 5.309 19.237 4.359 37.972 10.356 56.349 17.48 12.201 4.73 24.789 7.573 37.833 8.632 9.992.811 19.981 1.333 30.004 1.141l-.016-.027a.85.85 0 0 1 .205.786c-.212 4.809.417 9.566.927 14.687-5.109.109-10.2.382-15.284.289-9.269-.168-18.526-.546-27.756-1.604-20.654-2.366-39.976-8.248-56.849-20.89-7.024-5.263-15.132-7.629-23.72-8.646-10.977-1.301-21.927-.4-32.882.349-6.483.443-12.965 1.07-19.47.322-10.274-1.182-17.814-6.017-21.479-16.045-.144-.39-.159-.829-.234-1.247zM666.145 691.166c5.327 0 10.654-.01 15.981.003 3.437.008 3.649.23 2.777 3.405-7.809 28.422-24.57 49.907-50.031 64.676-1.364.791-2.475.865-3.808.147-1.214-.655-2.446-1.389-3.762-1.724-3.963-1.008-5.302-3.596-5.805-7.51-1.205-9.395-2.791-18.746-4.409-28.082-.447-2.581.054-4.282 2.105-6.039 8.899-7.624 17.667-15.405 26.415-23.203 1.372-1.223 2.727-1.747 4.557-1.71 5.325.106 10.653.037 15.98.037z"/><path fill="#D02622" d="M217.878 575.487c-.602.209-.99-.222-1.406-.513-8.472-5.929-16.731-12.116-23.977-19.554-5.937-6.095-10.132-13.131-11.527-21.618-2.48-15.088 2.433-28.976 15.962-38.316 1.591-1.098 3.149-1.146 4.842-.931 5.163.656 10.322 1.35 15.479 2.05 4.209.571 8.415 1.168 12.621 1.763.839.119 1.681.238 2.506.426 3.37.767 4.391 3.038 2.778 5.985-7.371 13.465-12.405 27.741-15.002 42.889-1.389 8.099-2.111 16.232-1.913 24.448a41.13 41.13 0 0 1-.057 2.874c-.006.166-.195.325-.306.497z"/><path fill="#FFF" d="M272.427 538.239c-10.682 19.987-11.66 41.096-8.484 62.923-2.913-.86-5.205-2.226-7.582-3.383a324.607 324.607 0 0 1-29.064-16.051c-1.276-.792-1.944-1.611-2.027-3.23-1.241-24.09 3.785-46.801 14.803-68.218.278-.541.45-1.163 1.292-1.659 8.754 11.461 18.675 21.798 31.062 29.618zM309.741 235.964c-.966.966-.639 2.199-.631 3.335.062 8.096.024 16.189-.464 24.275-.145 2.395-.116 2.472-2.581 2.338-9.354-.509-18.705-1.074-28.058-1.611-3.72-.213-7.444-.363-11.161-.623-2.602-.182-2.611-.244-2.546-2.748.275-10.653.43-21.309-.002-31.958a334.712 334.712 0 0 0-1.801-23.88c-.073-.652-.196-1.259-.641-1.761 4.242-.116 8.478-.436 12.692.49 7.164 1.574 11.014 6.204 11.044 13.522.027 6.603.005 13.206.007 19.81 0 .745-.032 1.495.031 2.235.183 2.157 2.064 4.137 4.791 2.845 2.982-1.413 6.075-2.55 9.213-3.559 3.324-1.069 6.641-2.17 10.107-2.71zM487.285 707.751c-10.934-24.491-11.457-58.442 2.806-86.256.994-.496 1.277.473 1.714.939 5.03 5.356 9.993 10.775 15.062 16.094 1.145 1.202 1.514 2.382 1.293 3.993-1.169 8.542-2.26 17.095-3.381 25.644-1.204 9.182-2.448 18.358-3.586 27.548-.21 1.693-.666 2.925-2.206 3.927-3.92 2.553-7.701 5.317-11.702 8.111zM412.72 753.309c-3.409-1.128-5.441-3.526-7.125-6.294-2.866-4.71-4.322-9.938-5.478-15.261-1.111-5.116-1.59-10.323-1.985-15.532-.236-3.109.253-6.111 1.206-9.116 9.09-28.681 22.219-55.279 40.376-79.35 8.136-10.787 17.69-20.203 27.612-29.273 5.134-4.693 11.312-7.087 18.284-7.376 5.337-.221 10.645-.19 16.093 1.622-1.911 2.334-3.722 4.532-5.514 6.746-.386.477-.866.486-1.415.516-19.226 1.031-33.837 10.349-45.311 25.292-3.773 4.914-7.169 10.081-10.044 15.563-9.003 17.167-17.793 34.455-24.989 52.467-7.784 19.482-8.987 39.305-1.659 59.288.029.085-.012.196-.051.708zM527.779 579.5c11.464-7.264 23.466-11.999 36.346-14.472 14.095-2.705 28.176-2.502 42.189.61 3.882.862 3.133.341 2.885 3.819-.167 2.335-.679 4.648-.809 6.984-.114 2.041-1.129 2.777-2.995 3.345-13.629 4.147-27.217 8.426-40.818 12.663-2.74.854-5.48 1.71-8.221 2.56-1.016.315-1.964.541-3.024-.103-8.36-5.078-16.75-10.107-25.553-15.406zM449.231 213.935c-.871.446-.99 1.285-1.192 2.131-3.241 13.561-5.873 27.236-7.735 41.055-.469 3.478-.959 6.958-1.27 10.451-.151 1.691-.841 2.115-2.446 2.019-8.924-.533-17.852-.982-26.779-1.449-3.507-.183-7.018-.314-10.524-.514-2.453-.14-2.541-.252-2.208-2.65.95-6.847 1.93-13.69 2.885-20.537.073-.524.047-1.062.067-1.594 5.382-3.414 11.019-3.838 16.525-.661 3.596 2.075 5.211 2.591 7.475-2.407 3.347-7.389 7.339-14.426 12.59-20.671.753-.895 1.624-1.694 2.34-2.616 2.766-3.559 6.324-3.817 10.272-2.557z"/><path fill="#EB7938" d="M407.359 12.803c8.903-3.764 17.38-5.461 26.371-3.664 4.264.852 7.322 3.205 9.439 6.924 2.136 3.751 3.221 7.854 4.013 12.046.832 4.405.986 8.872 1.1 13.34.007.283.026.65-.815.871-11.156-12.23-24.228-22.367-40.108-29.517z"/><path fill="#FFF" d="M456.291 680.315c-6.143-.066-11.163-5.075-11.22-11.193-.057-6.185 5.146-11.385 11.386-11.378 6.284.007 11.375 5.122 11.333 11.388-.043 6.278-5.155 11.251-11.499 11.183zM437.139 714.608c6.305-.059 11.433 4.975 11.453 11.242.019 6.118-4.97 11.223-11.074 11.33-6.29.111-11.478-4.837-11.65-11.111-.17-6.179 4.967-11.402 11.271-11.461z"/><path fill="#2B2319" d="M540.762 253.717c.062.405.121.853-.324 1.036-.118.048-.49-.283-.603-.511a2.595 2.595 0 0 1-.203-1.768l1.13 1.243z"/><path fill="#694B39" d="M144.872 228.764c.154.364.396.719.435 1.095.038.362-.039.998-.233 1.072-.577.22-.891-.241-1.064-.762.754-.182.617-.911.862-1.405z"/><path fill="#EB7938" d="M211.494 441.504c-.088-.165-.194-.323-.255-.497-.028-.081.031-.192.05-.289.376.181.621.397.205.786z"/><path fill="#D02622" d="M194.632 703.91c53.525 0 107.051-.003 160.576.003 6.765.001 11.992 3.469 14.502 9.575.697 1.695 1.014 3.447 1.009 5.298-.03 12.589-.162 25.181.046 37.766.105 6.333-5.108 14.486-14.469 15.053-.744.045-1.492.011-2.239.011-106.304 0-212.609-.008-318.913.027-4.474.001-8.399-1.141-11.691-4.221-3.2-2.994-4.854-6.641-4.842-11.075.035-12.376.123-24.753-.029-37.127-.095-7.678 6.331-15.356 15.473-15.344 53.526.068 107.052.034 160.577.034z"/><path d="M450.532 167.415c-2.748-.299-5.508-.52-8.239-.934-1.138-.173-2.025-.069-2.967.62-3.067 2.243-6.585 3.469-10.285 4.097-1.788.303-2.88 1.084-3.379 2.835-.29 1.017-.753 1.991-1.199 2.956-2.064 4.465-3.577 9.065-3.903 14.029-.103 1.571-.562 3.141-1.017 4.663-2.881 9.637-8.532 13.822-18.564 14.514-7.659.529-13.989-1.864-19.33-7.242-3.227-3.249-6.563-6.392-9.718-9.708-5.093-5.353-7.576-11.985-8.935-19.105-.397-2.081-.039-4.622-1.136-6.161-.992-1.391-3.535-1.625-5.329-2.504-4.332-2.122-8.207-4.9-11.558-8.387-1.363-.677-2.819-.145-4.219-.332-.614-.082-1.571.312-1.468-.929.969-.38 2.102-.226 3.123-.943-1.267-1.501-2.494-2.949-3.715-4.403-.613-.73-1.356-1.417-1.511-2.393-.3-1.889-1.366-2.48-3.231-2.681-3.995-.43-7.954-1.186-11.928-1.809 1.786-1.778 3.913-.635 5.9-.69 2.122.034 4.246.03 6.366.116 1.202.048 1.747-.334 1.669-1.625-.202-3.354.362-6.566 2.398-9.773l-21.453-8.475c-.104-1.249.623-.936 1.311-.698 7.197 1.468 14.283 3.392 21.388 5.233 1.401.363 2.577.387 3.925-.333 3.421-1.827 7.203-2.309 11.164-2.373-.394-1.083-1.295-1.295-1.945-1.754-7.543-5.325-12.005-12.545-13.301-21.684-.408-2.882-.089-5.75.78-8.53 2.504-8.006 9.827-12.249 18.315-10.638.836.159 1.666.348 2.499.524.471-.259.121-.494-.022-.735l-14.72-13.669 12.409-8.655c2.337 5.143 4.495 9.876 6.638 14.616a875.692 875.692 0 0 1 3.777 8.463c1.713 3.898 3.698 7.557 6.333 11.002 5.299 6.929 7.205 14.843 4.684 23.879 7.047-4.688 14.267-6.098 22.339-3.464.018-1.8-.817-3.187-1.116-4.67-1.331-6.61-.501-12.975 2.402-18.998 1.811-3.758 3.188-7.663 4.629-11.553a2501.936 2501.936 0 0 0 7.037-19.199c.535-1.48 1.028-2.735 3.029-2.528 1.843.191 3.666-.343 4.687 2.176.941 2.321.989 3.939-.68 5.981-3.369 4.12-6.409 8.51-9.585 12.789-.25.218-.238.539-.321.821l-.128.26.262-.133c.294-.065.602-.06.873-.209 2.847-1.265 5.727-2.36 8.941-1.775 4.647.845 7.88 3.572 10.074 7.638 2.299 4.26 2.973 8.872 2.65 13.63-.476 7.008-2.771 13.326-7.516 18.617-4.106 4.579-9.071 6.998-15.367 5.927-.523-.195-1.052-.537-1.541.065 1.352 4.671.582 9.191-1.643 14.147 5.191-1.957 9.777-3.082 14.505-3.621 4.879-.556 9.768-.578 14.644-.201 3.389.262 5.808 2.262 6.834 5.427.688 2.123 1.688 2.983 3.85 2.644.724-.113 1.485.01 2.228.025 4.085-.119 8.179-.631 12.241.259-.409 1.763-1.984 1.679-3.25 1.951-2.814.605-5.692.837-8.526 1.344-.734.131-1.477.22-2.187.462-1.918.655-2.137 2.277-2.012 3.908.127 1.661 1.612 1.528 2.716 1.505 4.806-.1 9.571.126 14.25 1.341.029.992.029.992-2.318 1.44a.43.43 0 0 1-.281.28c-4.106 1.81-8.591 1.066-12.846 1.898-2.275.445-5.14 4.475-4.517 6.654.325 1.138 1.434 1.101 2.295 1.442 2.023.801 4.453.743 5.899 2.778-.454 1.21-1.332.784-2.158.558z"/><path fill="#010101" d="M282.995 171.327c-.998-.559-1.318-1.629-1.807-2.533-3.176-5.867-6.013-11.89-8.046-18.264.915-.404 1.885-.266 2.835-.267 7.661-.01 15.323-.006 22.984-.006h2.258c.276 1.224-.605 1.674-1.114 2.226-5.05 5.477-10.141 10.916-15.195 16.389-.701.759-1.656 1.342-1.915 2.455z"/><path d="M269.067 136.898c-2.054-6.421-3.248-13.024-4.153-19.689 4.691.032 9.26 1.127 13.899 1.622 4.541.484 9.055 1.213 13.58 1.846.396.055.866-.008 1.326.881-8.149 5.165-16.409 10.24-24.652 15.34zM470.292 119.322c-.736 6.521-1.771 12.983-3.797 19.25l-21.186-13.785.158-.729 24.825-4.736z"/><path fill="#1C0202" d="M339.288 155.827c.791.954 1.885.502 2.857.617.966.115 2.07-.373 2.83.644l-13.369.09c-.616.163-.783-.073-.57-.644 2.77-.004 5.46-.953 8.252-.707z"/><path fill="#2E3928" d="M463.357 142.323c-.859-.918-1.978-.495-2.986-.539-3.046-.134-6.102.192-9.143-.192 1.709-.741 3.505-.28 5.258-.361 3.234-.148 6.479.198 9.71-.209l.962.17c.267.074.362.165.288.275-.079.118-.159.177-.241.177-.594.118-1.179.258-1.614.729-.759.606-1.506.708-2.234-.05z"/><path fill="#2F140E" d="M327.925 142.909c-1.927.565-4.049-.528-5.9.69-1.555.254-3.007-.267-4.484-.596-.22-.13-.296-.265-.229-.405.068-.142.137-.213.209-.213 3.478-.028 6.968-.289 10.404.524z"/><path fill="#833126" d="m331.036 156.535.571.644c-1.647.848-3.36.404-5.66.414 2.049-.692 3.464-1.394 5.089-1.058z"/><path fill="#DEFFFF" d="M380.31 219.23c-2.613.968-5.224.987-7.834-.014l7.834.014z"/><path fill="#472C1F" d="M318.216 122.453c-.473.165-1.069.098-1.311.698-1.193-.145-2.313-.48-3.263-1.259.147-.265.368-.44.652-.536 1.328.295 2.748.255 3.922 1.097z"/><path fill="#523225" d="M450.532 167.415c.64-.287 1.499.093 1.988-.653 1.439-.875 2.518-.384 3.389.893l-.232.446c-1.726-.143-3.523.24-5.145-.686z"/><path fill="#99502F" d="m315.085 142.886-.735.115c-.29-.566-1.676.006-1.299-1.253 1.311.095 2.695-.385 3.905.5-.424.799-1.337.162-1.871.638z"/><path fill="#AF6B4E" d="m313.051 141.748 1.299 1.253c-1.196.075-2.253-.351-3.321-.901.613-.66 1.356-.286 2.022-.352z"/><path fill="#875337" d="M313.101 121.849c-.866.031-1.574-.305-2.205-.951.834-.515 1.537-.414 2.162.288.203.135.276.278.222.43-.057.155-.116.233-.179.233z"/><path fill="#2E3126" d="M315.085 142.886c.476-.645 1.257-.395 1.87-.638.194.02.383.066.565.136-.011.207-.005.413.02.619l-2.455-.117z"/><path fill="#8C633D" d="M410.811 123.172c.129-.91.23-.915 1.54-.066l-1.54.066z"/><path fill="#5D3F30" d="M361.02 82.163c.514.126 1.052.456.854.951-.19.475-.634.22-.833-.216l-.021-.735z"/><path fill="#945737" d="M413.57 79.07c-.245.5-.69.667-1.201.725l-.266-.063-.042-.27c.069-.526.317-.922.824-1.13l.685.738z"/><path fill="#A2B5B6" d="M456.519 167.782c.222.152.657.374.633.444-.244.737-.953.255-1.411.486a1.511 1.511 0 0 1-.063-.612l.171-.13c.153-.314.376-.376.67-.188z"/><path fill="#351512" d="m313.101 121.849-.043-.663 1.237.171-.652.536-.273.004-.269-.048z"/><path fill="#A26D5E" d="M298.968 190.421c-.455-.034-.742-.305-.955-.68.439.056.774.261.955.68z"/><path fill="#938B8A" d="M304.372 194.256c-.535-.001-.925-.266-1.235-.68.518.033.906.304 1.235.68z"/><path fill="#988A87" d="M302.454 192.986c-.539.002-.92-.275-1.223-.693.515.04.892.325 1.223.693z"/><path fill="#A7634A" d="M290.643 182.388c-.402-.197-.677-.483-.681-.962.416.187.619.524.681.962z"/><path fill="#98817D" d="M299.674 191.162c-.382-.125-.69-.324-.76-.761.408.098.652.362.76.761z"/><path fill="#9D7469" d="M289.984 181.48c-.441-.023-.621-.29-.655-.696.358.1.574.334.655.696z"/><path fill="#96837F" d="M289.355 180.832c-.438-.068-.64-.377-.773-.758.405.101.673.344.773.758z"/><path fill="#867A77" d="M293.847 185.944c-.445-.06-.669-.364-.825-.746.413.095.713.316.825.746z"/><path fill="#8C8682" d="M295.19 187.368c-.366-.166-.677-.382-.744-.82.431.108.655.402.744.82z"/><path fill="#867A77" d="M294.488 186.582c-.407-.044-.633-.27-.683-.676.382.07.609.296.683.676z"/><path fill="#908F8B" d="m292.625 184.82-.852-.913c.478.123.756.433.852.913z"/><path fill="#EA7938" d="m456.519 167.782-.67.189c-.932-.893-2.129-1.055-3.329-1.208l-9.324-2.915c-.34-1.091.285-1.811.621-2.535.885-1.911.524-4.673 2.292-5.736 1.571-.944 3.91-.655 5.917-.818 3.277-.265 6.559-.456 9.838-.677-1.019 3.762-2.802 7.217-4.303 10.785-.401.952-1.121 1.791-1.042 2.915zM463.357 142.323l2.234.05c-.461 3.152-1.819 6.047-2.571 9.177.416.894 1.596.206 2.154.907-.053.305-.212.399-.495.251-5.27-.634-10.572-.668-15.865-.887-2.58-.107-2.578-.145-2.41-2.767.261-4.073.264-4.05 4.414-4.696 4.184-.651 8.36-1.354 12.539-2.035z"/><path fill="#1D0101" d="M464.68 152.709a1.16 1.16 0 0 0 .497-.251l3.978.237c.224.104.298.207.224.31-.074.102-.148.154-.225.154-2.341.172-4.644.763-7.011.643.603-.927 1.925-.184 2.537-1.093z"/><path fill="#756769" d="M470.434 152.68c.598-.114 1.186-.169 1.702.259-.521.411-1.103.387-1.703.245-.193-.113-.257-.225-.193-.337.064-.111.128-.167.194-.167z"/><path fill="#BDBBBE" d="M468.466 141.175c.275.043.79.097.789.128-.026.595-.469.338-.788.348-.163-.106-.217-.211-.163-.317.054-.106.108-.159.162-.159z"/><path fill="#8B6A74" d="M468.466 141.175c.037.159.038.317.001.476l-1.263-.006c-.015-.151-.03-.302-.047-.452l1.309-.018z"/><path fill="#4C3136" d="M470.434 152.68a1.3 1.3 0 0 1-.001.505l-1.28-.025c.015-.155.016-.31.001-.464l1.28-.016z"/><path fill="#FFF" d="M321.307 737.295c0 6.718-.043 13.436.032 20.153.018 1.629-.429 2.319-2.14 2.212a49.497 49.497 0 0 0-5.752-.003c-1.619.087-2.272-.415-2.208-2.146.123-3.301-.033-6.612.063-9.914.047-1.627-.439-2.234-2.148-2.205-5.433.094-10.869.014-16.304.045-2.157.012-2.188.065-2.209 2.394-.03 3.305-.05 6.612.011 9.916.024 1.319-.33 1.97-1.783 1.907-2.021-.089-4.054-.114-6.072.008-1.607.097-1.979-.578-1.969-2.05.051-7.784.021-15.568.023-23.352.001-3.519-.076-7.04.038-10.555.184-5.679 2.772-8.634 8.396-8.768 10.118-.242 20.245-.08 30.368-.14 1.557-.009 1.668.834 1.664 2.027-.022 6.822-.01 13.646-.01 20.471zM274.739 737.535c-.001 4.374.056 8.75-.014 13.123-.095 5.894-2.943 8.841-8.894 8.941-7.462.125-22.391-.001-22.391-.001h-8.022a1.06 1.06 0 0 1-1.06-1.061c.002-6.072.009-36.363.002-42.595a1.057 1.057 0 0 1 1.058-1.059h7.942s14.929-.162 22.39-.011c6.098.123 8.904 3.124 8.979 9.219.056 4.481.011 8.962.01 13.444zM49.297 736.982c0-6.616-.016-13.231.008-19.847.008-2.262.053-2.282 2.27-2.316 1.919-.029 3.842.066 5.757-.028 1.452-.071 1.802.581 1.787 1.894a717.68 717.68 0 0 0-.008 13.124c.016 2.39.053 2.43 2.527 2.443 5.225.027 10.451.024 15.676.002 2.651-.011 2.678-.042 2.692-2.601.023-4.268.05-8.537-.016-12.804-.023-1.451.317-2.185 1.95-2.064 1.697.126 3.41.014 5.117.03 2.666.025 2.688.034 2.69 2.875.009 11.097.004 22.194.004 33.291 0 2.241-.045 4.483.016 6.722.034 1.264-.223 2.013-1.726 1.949-2.129-.091-4.266-.074-6.397-.006-1.263.04-1.658-.478-1.644-1.689.045-4.054.015-8.109.014-12.164v-1.601c-.005-3.346.256-3.128-3.095-3.129-5.225-.002-10.452.056-15.675-.032-1.683-.028-2.201.543-2.17 2.198.089 4.693.049 9.389.022 14.084-.013 2.257-.05 2.276-2.258 2.311-1.812.029-3.634-.101-5.436.036-1.734.132-2.149-.579-2.132-2.193.068-6.826.027-13.656.027-20.485zM336.322 737.183c0 6.711.016 13.422-.009 20.134-.008 2.251-.055 2.272-2.28 2.308a186.74 186.74 0 0 1-5.749.001c-2.341-.033-2.377-.051-2.379-2.534-.013-13.209-.013-26.419 0-39.628.002-2.608.036-2.615 2.597-2.649 1.277-.017 2.555-.019 3.833 0 4.388.065 3.967-.636 3.983 3.833.021 6.178.004 12.357.004 18.535zM356.906 148.659c.12-.391.275-.685.292-.987.214-3.821.208-3.813-3.63-3.97-4.26-.174-8.519-.445-12.78-.511-1.71-.027-2.17-.694-2.159-2.279.015-2.282.415-4.432 1.374-6.505.648-1.399 1.346-1.822 2.964-1.127 4.102 1.762 8.317 3.261 12.483 4.875.396.153.764.383 1.212.222.102-.166.292-.332.294-.5.042-5.361.041-5.364-5.055-6.907-1.725-.522-3.457-1.022-5.4-1.595 1.634-1.349 3.491-1.386 5.139-1.476 14.904-.814 28.041 3.115 38.139 14.76 1.25 1.442 2.13 3.206 3.386 4.642 4.308 4.926.139 15.535-5.657 17.467-1.927.642-3.842 1.22-5.886 1.351-6.432.412-12.809-.216-19.079-1.482-5.106-1.031-9.301-4.015-13.68-7.786 3.671-.592 6.899-.197 10.08-.537-.909-2.703-1.098-2.859-3.359-2.614-2.331.252-4.664.489-6.985.818-1.484.211-2.665-.068-3.665-1.292-1.347-1.649-2.834-3.184-4.244-4.782-.491-.557-1.015-1.124-.753-2.183 5.629.794 11.284 1.594 16.969 2.398zM442.844 140.954c-.636.504-1.183.406-1.705.421-3.391.098-3.595.403-3.143 3.615.172 1.226.768 1.338 1.723 1.174 1.149-.197 2.3-.386 3.507-.588.158.311.392.565.407.831.272 5.009.267 5.01-4.775 4.871-.319-.009-.639-.008-.958-.017-3.03-.085-2.384-.067-3.231 2.38-.267.772-.809 1.528-.526 2.476 1.364.537 2.698-.172 4.056-.184 1.267-.011 2.532-.133 4.084-.222.036 2.327-.97 4.159-1.785 6.039-.375.864-.988.989-1.811.628-.385-.168-.824-.208-1.231-.329-3.688-1.102-3.688-1.104-5.3 2.935 1.012.604 2.243.268 3.364.65-.598 1.228-1.866 1.302-2.894 1.665-4.448 1.568-9.111 2.056-13.76 2.569-.728.08-1.512.054-2.217-.128-4.789-1.237-9.238-3.199-13.016-6.469-5.211-4.511-6.014-10.172-2.271-15.954 2.339-3.614 5.704-5.955 9.597-7.625 6.983-2.996 14.352-3.741 21.844-3.753a57.972 57.972 0 0 1 4.148.141c3.434.24 4.591 1.2 5.893 4.874z"/><path fill="#ED1C24" d="M396.691 158.598c4.003 8.016 10.746 11.426 18.245 13.668 1.586.474 2.296 1.055 2.423 2.722.243 3.182.729 6.345 1.047 9.522.094.943.003 1.911-.071 2.862-.099 1.282-.676 1.869-2.095 1.586-5.825-1.16-11.423.002-16.944 1.799-1.094.356-2.095.82-3.363.342-6.493-2.444-13.172-2.078-19.858-1.062-3.686.56-5.786-1.599-4.969-5.298 1.011-4.573 2.108-9.128 3.072-13.711.297-1.413.919-1.947 2.372-1.863 2.014.116 4.033.072 6.055-.189 6.351-.819 11.36-3.499 14.086-10.378z"/><path fill="#FFF" d="m361.031 123.765-1.219-.136a5.496 5.496 0 0 1-.782-.383c-9.21-3.095-18.278-15.316-16.68-26.817 1.163-8.37 7.829-13.202 16.012-11.219 9.479 2.297 15.382 8.566 18.582 17.594.023.066-.096.182-.193.353-1.793-1.053-3.558-2.169-5.705-2.426-6.963-.836-12.307 3.693-13.21 11.212-.462 3.852.13 7.429 2.588 10.556.185.228.377.449.576.664l.037.043c.162.126.215.251.16.375-.056.122-.111.184-.166.184zM425.706 108.421c-1.276-3.48-3.523-6.064-7.016-7.422-5.083-1.976-10.314-.396-13.605 4.055-.31.419-.586.864-1.034 1.529-.845-2.322-.432-4.419-.18-6.481.633-5.188 2.523-9.872 5.785-13.984 1.407-1.774 3.059-3.276 4.999-4.427 5.612-3.329 11.449-1.916 14.936 3.601 2.116 3.347 2.979 7.102 2.954 10.972-.042 6.314-1.638 12.211-5.598 17.297-1.479.026-.823-1.12-.936-1.788-.186-1.106.259-2.275-.305-3.352zM376.57 192.885c1.736-.777 3.567-.617 5.332-.706 4.797-.242 9.592-.284 14.084 1.831 1.107.521 2.026.114 3.039-.277 4.201-1.62 8.564-2.702 13.067-2.502 5.998.268 4.856.519 3.738 5.007-.255 1.023-.709 2.003-1.133 2.976-1.947 4.468-5.346 7.101-10.175 7.683-2.738.33-5.5.514-8.278.294-2.611-.206-4.973-1.04-7.168-2.425-3.178-2.004-9.944-8.413-12.506-11.881z"/><path fill="#FDFDFE" d="M373.202 112.786c.069 3.5-2.837 6.476-6.401 6.556-3.426.077-6.253-2.506-6.342-5.794-.093-3.424 2.905-6.453 6.467-6.535 3.5-.081 6.21 2.411 6.276 5.773z"/><path fill="#FCFCFD" d="M416.806 105.269c2.911.054 5.294 2.447 5.243 5.266-.049 2.729-2.404 4.929-5.214 4.872-2.878-.059-5.309-2.499-5.254-5.275.053-2.719 2.412-4.915 5.225-4.863z"/><path fill="#F8F9F9" d="M368.921 181.401c-2.124-3.69-2.906-7.516-3.022-11.492-.038-1.298.241-2.048 1.805-1.675 1.229.292 2.51.363 4.083.574l-2.866 12.593z"/><path fill="#E6E9E9" d="m423.292 172.568-2.495 5.926c-.319-1.386-.593-2.212-.686-3.057-.265-2.39-1.011-3.352 3.181-2.869z"/><path fill="#D17038" d="M375.178 126.467c.012 1.437-.468 2.335-2.058 1.594-.72-.336-1.693-.211-2.286-1.248l3.542-1.782c1.192-.038 1.121.63.802 1.436z"/><path fill="#C1BCBE" d="M425.706 108.421c.876.797.64 1.874.737 2.874.075.772-.339 1.662.504 2.265.01.577-.521.821-.764 1.243-.173.263-.364.276-.573.041.247-2.139.277-4.279.096-6.423z"/><path fill="#493E2E" d="M375.022 124.339c.283-.423.636-1.043 1.156-.582.455.403.046.957-.355 1.339-.414-.097-.687-.342-.801-.757z"/><path fill="#A7653A" d="M375.022 124.339c.406.105.65.382.801.757l-.645 1.372c-.1-.572-.157-1.169-.802-1.437l.646-.692z"/><path fill="#647275" d="M425.611 114.843a.735.735 0 0 1 .574-.042c-.133.381-.414.709-.785.5-.343-.192-.085-.399.211-.458z"/><path fill="#A6A1A3" d="M361.031 123.765a.691.691 0 0 1 .006-.56c.573.108.712.468.388.896-.117.154-.385-.061-.394-.336zM359.029 123.245c.389-.134.651-.009.783.384-.387.129-.625-.046-.783-.384zM360.999 123.162c-.408-.034-.595-.26-.576-.664.368.069.575.276.576.664z"/><path fill="#8B5A42" d="M412.368 79.795c-.155.114-.401.357-.452.322-.424-.296-.077-.469.145-.654.107.104.21.215.307.332z"/><path fill="#D02622" d="M300.87 736.547c-2.77 0-5.541-.038-8.31.018-1.269.026-1.991-.245-1.948-1.739.082-2.876-.029-5.757.043-8.634.053-2.107.374-2.481 2.422-2.506 5.539-.067 11.08-.013 16.619-.035 1.023-.004 1.589.295 1.578 1.436-.031 3.304-.044 6.61.009 9.913.022 1.336-.66 1.575-1.785 1.559-2.874-.039-5.751-.012-8.628-.012zM244.171 737.154c-.001-3.193-.052-6.387.015-9.579.05-2.382.468-2.882 2.781-2.921a436.868 436.868 0 0 1 15.316.005c2.301.043 2.694.548 2.707 2.956.036 6.492.04 12.985-.003 19.477-.015 2.248-.391 2.66-2.58 2.686-5.211.063-10.425.062-15.636 0-2.143-.025-2.527-.445-2.58-2.727-.075-3.297-.018-6.598-.02-9.897z"/><path fill="#FFF" d="M181.2 757.041c-.007 2.507-.042 2.553-2.358 2.558-9.479.019-18.959.023-28.438-.015-1.158-.005-2.329-.225-3.469-.463-3.263-.682-5.179-2.716-5.893-5.966-.279-1.268-.286-2.538-.287-3.813-.009-10.551-.005-21.101-.005-31.652 0-3.04-.235-2.76 2.978-2.753 1.655.003 3.31.012 4.965 0 .98-.007 1.791.648 1.784 1.629-.004.6.015 1.201.015 1.802l.001 26.536c0 .639-.009 1.279.003 1.918.07 3.762.228 3.928 4.017 3.94 4.58.014 9.16-.001 13.74.005 3.427.004 3.159.103 3.159-3.076.001-9.698.035-30.588-.002-31.332-.05-1.025.28-1.508 1.426-1.423.201.015 5.387-.123 7.988 0 .222.01.384.215.388.437.086 4.418.007 35.192-.012 41.668zM111.357 759.68h7.687c.568 0 1.028-.42 1.028-.939v-14.608c0-.156.043-.31.124-.448l16.24-27.362c.371-.626-.124-1.387-.903-1.387h-6.611c-.371 0-.713.183-.895.478l-10.756 17.434a1.048 1.048 0 0 1-.895.478h-2.434c-.371 0-.713-.183-.895-.478l-10.75-17.433a1.048 1.048 0 0 0-.895-.478h-6.49c-.778 0-1.274.76-.904 1.386l16.198 27.364a.878.878 0 0 1 .124.447v14.609c-.001.517.459.937 1.027.937zM186.93 717.403c.007-2.507.042-2.553 2.358-2.558 9.479-.018 18.959-.023 28.438.015 1.158.005 2.329.225 3.469.463 3.263.682 5.179 2.716 5.893 5.966.279 1.268.286 2.538.287 3.813.009 10.551.005 21.101.005 31.652 0 3.04.235 2.76-2.978 2.753-1.655-.003-3.31-.012-4.965 0-.98.007-1.791-.648-1.784-1.629.004-.6-.015-1.201-.015-1.802l-.001-26.536c0-.639.009-1.279-.003-1.918-.07-3.762-.228-3.928-4.017-3.94-4.58-.014-9.16.001-13.74-.005-3.427-.004-3.159-.103-3.159 3.076-.001 9.698-.035 30.588.002 31.332.05 1.025-.28 1.508-1.426 1.423-.201-.015-5.387.123-7.988 0-.222-.01-.384-.215-.388-.437-.086-4.418-.008-35.192.012-41.668z"/></svg>