<svg xmlns="http://www.w3.org/2000/svg" xml:space="preserve" width="326.78265" height="362.74799" viewBox="0 0 326.78265 362.74799"><path d="m0 0-.071 1.515-1.468-.424c-5.182-1.529-16.747.094-31.771 4.451l-.404.114c-3.737 1.064-21.003 9.381-33.615 15.448 0 0-5.842 2.788-7.142 3.427.401 2.175.637 4.351.637 6.519 0 11.509-5.653 22.35-15.138 28.983-6.034 4.236-13.155 6.47-20.558 6.47a35.93 35.93 0 0 1-23.281-8.565A35.31 35.31 0 0 1-145.23 31.05c0-1.926.211-4.101.567-6.175-12.254-5.805-36.67-16.996-40.523-18.195-4.59-1.421-23.585-6.35-32.624-4.539l-1.372.27-.071-1.556c-1.584-34.417 1.657-150.968 109.248-206.124l.542-.289.545.289C5.014-146.059.852-14.788 0 0" style="fill:#231916;fill-opacity:1;fill-rule:nonzero;stroke:none" transform="matrix(1.33333 0 0 -1.33333 319.873 88.67)"/><path d="m0 0-.405.122C-4.357 1.232-21.011 9.252-34.4 15.71l-8.826 4.229.189.923c.498 2.31.761 4.66.761 6.97 0 10.72-5.28 20.807-14.124 27.009-5.633 3.94-12.256 6.013-19.162 6.013a33.5 33.5 0 0 1-21.718-7.979 32.86 32.86 0 0 1-11.569-25.043c0-2.067.239-4.445.663-6.66l.188-.909-.851-.411c-10.482-4.97-37.282-17.347-41.659-18.693-.212-.068-21.032-6.242-32.409-4.775a219 219 0 0 1-.191-9.414c0-42.881 11.026-143.102 107.613-192.999C23.558-154.172 31.794-46.962 31.794-12.747c0 3.475-.074 6.175-.169 8.013C23.514-6.195 8.538-2.484 0 0" style="fill:#fff;fill-opacity:1;fill-rule:nonzero;stroke:none" transform="matrix(1.33333 0 0 -1.33333 274.582 84.38)"/><path d="M0 0c-14.524-.7-26.663 3.637-32.123 5.414-13.179 4.256-35.656 17.01-46.465 22.169H-103.9l.215-106.362H-11C1.374-38.483 0-4.168 0 0" style="fill:#09765c;fill-opacity:1;fill-rule:nonzero;stroke:none" transform="matrix(1.33333 0 0 -1.33333 311.577 95.288)"/><path d="M0 0c54.269 28.208 80.147 74.167 92.449 114.2H-.236Z" style="fill:#f2b323;fill-opacity:1;fill-rule:nonzero;stroke:none" transform="matrix(1.33333 0 0 -1.33333 173.644 352.594)"/><path d="M0 0c12.301-40.194 38.395-86.16 93.091-114.2L92.855 0Z" style="fill:#09765c;fill-opacity:1;fill-rule:nonzero;stroke:none" transform="matrix(1.33333 0 0 -1.33333 49.523 200.327)"/><path d="m0 0-25.526.512c-10.647-5.057-32.078-16.7-45.207-21.353-5.988-2.135-21.104-5.374-33.217-5.704-.519-4.519-1.11-39.232 11.31-79.817H.215Z" style="fill:#f2b323;fill-opacity:1;fill-rule:nonzero;stroke:none" transform="matrix(1.33333 0 0 -1.33333 173.043 58.512)"/><path d="M0 0c0-15.852-12.849-28.693-28.701-28.693-15.849 0-28.695 12.841-28.695 28.693 0 15.851 12.846 28.707 28.695 28.707C-12.849 28.707 0 15.851 0 0" style="fill:#fff;fill-opacity:1;fill-rule:nonzero;stroke:none" transform="matrix(1.33333 0 0 -1.33333 211.75 45.96)"/><path d="m0 0-1.515.942.687 8.074c2.201 3.643 3.03 8.323 3.36 11.138l2.787.559q.285-1.968.286-3.986A27.66 27.66 0 0 0 0 0m-11.07-8.728c.78 1.274 1.487 2.815 1.962 3.926L-1.893.31l1.421-.903A27.94 27.94 0 0 0-11.07-8.728m-17.911-1.487c-.805.895-1.891 2.383-2.887 3.804l5.491 4.896c2.626-.242 7.145-.485 11.141.283l5.276-3.65c-.639-1.455-1.491-3.199-2.296-4.344-3.074-1.185-6.411-1.818-9.912-1.818-2.343 0-4.638.276-6.813.829m-14.31 8.935 1.701.263 8.777-5.32c.732-1.044 1.679-2.411 2.577-3.521-5.131 1.555-9.651 4.579-13.055 8.578m-6.343 22.242 3.833-1.09c.593-3.287 1.728-8.586 3.337-12.047l.402-8.169-1.775-.269c-3.832 4.747-6.101 10.788-6.101 17.34 0 1.441.093 2.862.304 4.235m17.885 21.839 1.635-.243c-4.426-1.845-9.512-6.242-10.553-7.158l-3.265-1.428a28 28 0 0 0 12.183 8.829m16.867-24.835 3.03 10.013c2.222.195 6.148.539 8.848.72l4.775-8.578C1.421 17.32.565 12.707-1.563 9.225l-7.851-.593c-1.683 2.701-4.121 6.964-5.468 9.334m-11.569-.546h11.027c.542-.969 1.323-2.35 2.481-4.323.781-1.36 1.919-3.279 2.889-4.841l-5.182-8.727c-3.973-.782-8.561-.533-11.166-.283l-4.66 7.69c1.49 2.855 3.476 7.677 4.611 10.484m-3.759 10.707 2.98-10.666c-1.137-2.788-3.029-7.36-4.423-10.107l-10.384 1.278c-1.467 3.435-2.533 8.512-3.055 11.597l5.278 8.895zm8.442 13.206c.165-2.297.381-5.186.522-7.098l-8.658-5.381-9.771.997v5.42c1.847 1.583 7.098 5.873 11.098 7.078zM-3.36 29.454c-2.768-.141-6.432-.498-8.539-.734l-8.612 5.656c-.142 2.081-.381 5.085-.519 6.93l10.926.45a28.3 28.3 0 0 0 6.508-4.396zm-18.808 16.901c-16.349 0-29.641-13.292-29.641-29.628 0-16.35 13.292-29.629 29.641-29.629 16.346 0 29.619 13.279 29.619 29.629 0 16.336-13.273 29.628-29.619 29.628" style="fill:#000100;fill-opacity:1;fill-rule:nonzero;stroke:none" transform="matrix(1.33333 0 0 -1.33333 203.04 68.262)"/><path d="M0 0h46.861l-8.089-10.377h113.862s10.384 0 11.474-13.501l4.142 5.885v7.616h20.414l-.261-31.568 7.853 21.864v9.704h27.421l-9.179-11.568-8.612-22.027-.286-8.262h-92.329s-6.414-1.725-11.853 10.463v-10.371l-40.619-.086s-8.99 1.374-4.142 15.212l5.869 16.606-12.444-15.758-2.175-6.383.21-9.839H-21.41l10.173 12.949L.164-10.048z" style="fill:#232021;fill-opacity:1;fill-rule:nonzero;stroke:none" transform="matrix(1.33333 0 0 -1.33333 28.547 226.015)"/><path d="M0 0h19.208l-5.959-8.304-3.312-8.309h6.741l3.62 9.084L20.038 0h19.138l-5.961-8.304-12.138-31.89.308-7.267H1.894l6.481 8.276 4.162 12.458H6.291l-4.66-11.932-.518-8.56h-18.975l6.53 8.815L.069-7.529z" style="fill:#ea7f28;fill-opacity:1;fill-rule:nonzero;stroke:none" transform="matrix(1.33333 0 0 -1.33333 32.3 229.597)"/><path d="m0 0-7.004-18.666c-3.878-4.66-2.839.256-2.839.256L-3.1-.768 0 2.863Zm80.951-2.06c-1.04 9.32-10.976 9.32-10.976 9.32H37.872l.69-6.903-3.458-8.309L30.562 7.26h-59.401l-.024-6.04-2.507-2.249-.85 8.289h-12.966l1.111-20.23-3.121-8.794-6.293-8.047h18.924l.072 7.267 2.601 7.238 16.017 19.98.071-4.922-7.522-21.286c-1.303-7.509 4.33-8.277 4.33-8.277h12.725c8.234-.532 11.214 8.546 11.214 8.546l7.782 20.236 3.622 4.673.779-5.206-7.783-20.484-6.032-7.765h15.047l-.19 6.208 3.643 9.436c4.138-19.38 14.455-15.644 14.455-15.644L47.74-.248l4.091 4.922L53.106-.33l-8.134-21.278-6.862-8.203h21.764C77.05-27.487 81.969-11.407 80.951-2.06" style="fill:#ea7f28;fill-opacity:1;fill-rule:nonzero;stroke:none" transform="matrix(1.33333 0 0 -1.33333 135.445 253.13)"/><path d="M0 0h15.051l-.973-31.366 1.23-4.169 4.469 6.741 8.047 21.023V0H47.48l-6.668-8.552-8.826-22.573v-5.945H-4.915l5.509 6.982.518 10.902-8.3-11.939v-5.945h-17.956l9.131 8.047 15.828 22.8z" style="fill:#ea7f28;fill-opacity:1;fill-rule:nonzero;stroke:none" transform="matrix(1.33333 0 0 -1.33333 257.099 243.451)"/><path d="M0 0h2.603S5.44-12.444-6.479-17.636z" style="fill:#232021;fill-opacity:1;fill-rule:nonzero;stroke:none" transform="matrix(1.33333 0 0 -1.33333 221.868 257.736)"/><path d="m0 0-.047-3.644-6.482-7.905L-7.453 0h-9.201l1.562-17.905-2.721-8.829-5.205-6.222h12.468v5.724l3.762 9.461L8.255 0Z" style="fill:#fff;fill-opacity:1;fill-rule:nonzero;stroke:none" transform="matrix(1.33333 0 0 -1.33333 100.494 246.602)"/><path d="M0 0h-12.585l.401-5.064-7.144-18.544c-1.301-3.879-3.099-3.624-3.099-3.624h-3.384c-2.083.262-1.3 3.36-1.3 3.36l7.261 18.808L-15.946 0h-12.253l.072-4.93-6.743-18.942c-3.124-8.04 3.358-8.801 3.358-8.801h10.362c7.404 0 9.866 8.801 9.866 8.801l7.262 18.808z" style="fill:#fff;fill-opacity:1;fill-rule:nonzero;stroke:none" transform="matrix(1.33333 0 0 -1.33333 155.411 246.602)"/><path d="M0 0h-9.414l.33-4.93-5.7-14.916L-20.822 0h-10.382l1.231-6.363-8.044-21.651-3.737-4.659h8.539v4.403l6.222 16.202c3.785-23.083 12.326-20.888 12.326-20.888L-4.141-4.802z" style="fill:#fff;fill-opacity:1;fill-rule:nonzero;stroke:none" transform="matrix(1.33333 0 0 -1.33333 201.936 246.602)"/><path d="M0 0c-2.89-1.246-5.798-.809-5.798-.809l8.303 21.643s4.495.6 5.892-.425C10.289 19.029 9.081 5.46 0 0m18.286 13.198.141 6.485c-.781 6.862-8.896 7.259-8.896 7.259H-6.296l.855-4.801-8.165-22.168-4.542-5.987h15.306c17.367.787 21.128 19.212 21.128 19.212" style="fill:#fff;fill-opacity:1;fill-rule:nonzero;stroke:none" transform="matrix(1.33333 0 0 -1.33333 216.795 282.525)"/><path d="m0 0-.188-4.675-15.57-23.076-5.437-4.687h9.579l.521 4.951L1.629-9.865.592-29.051l-2.603-3.622h13.222l-1.3 4.142L11.4 0Z" style="fill:#fff;fill-opacity:1;fill-rule:nonzero;stroke:none" transform="matrix(1.33333 0 0 -1.33333 259.596 246.602)"/><path d="m0 0-.188-5.703-9.085-23.61-2.579-3.906h11.4v5.205L8.636-5.186 12.186 0Z" style="fill:#fff;fill-opacity:1;fill-rule:nonzero;stroke:none" transform="matrix(1.33333 0 0 -1.33333 297.287 246.602)"/><path d="M0 0h-12.468v-5.96l-4.54-11.144h-11.546l4.022 11.144L-20.108 0h-12.845l.117-5.96-11.402-31.252-5.063-6.363h12.775l.07 5.846 5.323 14.787h11.807l-4.945-13.745-4.663-6.888h12.823v6.626L-4.424-5.96Z" style="fill:#fff;fill-opacity:1;fill-rule:nonzero;stroke:none" transform="matrix(1.33333 0 0 -1.33333 79.866 232.443)"/><path d="M0 0h2.342l-3.1-7.973s-.355-.881.968-.923c1.423-.06 1.85 1.017 1.85 1.017L5.276 0h2.366L4.09-8.6s-1.064-2.026-3.003-2.026h-2.861s-1.965.357-1.137 3.105z" style="fill:#232021;fill-opacity:1;fill-rule:nonzero;stroke:none" transform="matrix(1.33333 0 0 -1.33333 148.377 304.227)"/><path d="M0 0h2.412l-3.475-8.714h3.335l-.826-2.026h-5.869z" style="fill:#232021;fill-opacity:1;fill-rule:nonzero;stroke:none" transform="matrix(1.33333 0 0 -1.33333 162.096 304.075)"/><path d="M0 0h2.151s1.162 2.154-.848 3.044c0 0-1.919.175-2.795 0-.542-.107-2.767-.707-3.05-2.923 0 0-.141-1.447.283-2.034.781-1.064 1.987-1.024 2.272-2.154.095-.284.334-1.9-1.491-1.725-1.252-.047-.943.828-.589 1.32h-2.155s-1.608-1.736.71-3.212c2.034-.202 3.078-.074 3.078-.074S.239-7.946.64-4.774c0 0 .188 1.016-.165 1.837-.357.843-2.155 1.805-2.509 2.163-.354.349-.354 1.608.782 1.96 0 0 .946.33 1.37-.048C.71.593 0 0 0 0" style="fill:#232021;fill-opacity:1;fill-rule:nonzero;stroke:none" transform="matrix(1.33333 0 0 -1.33333 177.079 308.051)"/><path d="M0 0h2.694l-.781-10.626H-.121l.714 7.999H.162l-5.131-7.999h-2.128z" style="fill:#232021;fill-opacity:1;fill-rule:nonzero;stroke:none" transform="matrix(1.33333 0 0 -1.33333 188.153 304.227)"/><path d="M0 0h2.889v-7.468L5.822 0h2.199l-4-10.626H1.158v7.69l-2.81-7.69h-2.273z" style="fill:#232021;fill-opacity:1;fill-rule:nonzero;stroke:none" transform="matrix(1.33333 0 0 -1.33333 198.873 304.227)"/><path d="M0 0c-.684 1.205-1.037 2.081.192 2.936 7.431 6.411 5.512 21.097 3.101 26.969-2.417 5.892-7.784 3.987-9.512 2.081-1.726-1.912-10.552-6.054-10.552-6.054-2.245-1.374-4.326-1.374-5.531-.512-11.239 7.933-24.7 5.643-25.838 5.428-1.135.215-14.594 2.505-25.855-5.428-1.208-.862-3.29-.862-5.535.512 0 0-8.824 4.142-10.553 6.054-1.727 1.906-7.097 3.811-9.509-2.081-2.414-5.872-4.328-20.558 3.123-26.969 1.207-.855.85-1.731.164-2.936 0 0-10.55-18.33-6.221-38.916l3.289.701s1.015-12.801 8.634-19.367l.687 5.179s4.683-10.714 11.071-14.007l-.165 5.542s3.971-3.642 6.906-4.847c2.934-1.212 2.082-4.498 1.041-6.062-1.041-1.562-2.577-9.838 2.935-12.275l2.079 2.941s1.894-5.696 8.306-7.769c0 0 2.034 4.188 9.508-.707v-.095c.027.014.047.019.095.041.027-.022.051-.027.074-.041v.095c7.474 4.895 9.508.707 9.508.707 6.411 2.073 8.303 7.769 8.303 7.769l2.08-2.941c5.539 2.437 3.977 10.713 2.937 12.275-1.044 1.564-1.893 4.85 1.04 6.062 2.932 1.205 6.906 4.847 6.906 4.847l-.162-5.542c6.384 3.293 11.07 14.007 11.07 14.007l.688-5.179C1.919-51.016 2.96-38.215 2.96-38.215l3.263-.701C10.553-18.33 0 0 0 0" style="fill:#232021;fill-opacity:1;fill-rule:nonzero;stroke:none" transform="matrix(1.33333 0 0 -1.33333 237.795 131.031)"/><path d="M0 0s14.266 9.333 28.269 5.185c0 0 14.003 3.898 26.71-4.923C59.376-2.6 65.342 4.411 71.066 5.959c4.4 1.307 7.784 1.043 8.04-6.734 0 0 1.799-11.151-5.202-17.649-2.057-2.842-1.302-1.031 0-4.142 0 0 10.388-16.087 5.724-32.934l-2.602 4.146-4.66-15.575-2.344 3.65-5.178-9.083-61.485-3.894-18.924 15.031-5.727 10.909-2.837-4.411s-1.824 19.455 7.003 33.724c1.561 1.818.259 1.818-.783 3.353-2.602 2.862-8.044 13.253-3.122 23.353 1.821 2.862 5.203 1.637 7.262.256C-13.769 5.959-2.862-.452 0 0" style="fill:#ea7f28;fill-opacity:1;fill-rule:nonzero;stroke:none" transform="matrix(1.33333 0 0 -1.33333 135.57 100.72)"/><path d="M0 0s-1.727-10.882 11.426-8.821c0 0-2.507-10.276 5.275-14.169-.333-1.945-1.136-5.583-4.588-11.594l10.36-8.634.188-10.027-1.394-24.915-11.237 7.785-6.742 8.989-8.635 6.579-2.791 10.889 5.039 5.703s1.727 1.549 5.348 2.067l.163-6.214s.354 6.214 9.014 10.376c1.727.694 3.619 7.266.166 5.541-3.289-2.087-15.402 2.769-14.525 8.466 0 0-7.099 2.936-4.495 11.07C-6.224-3.111-2.768-.519 0 0" style="fill:#fff;fill-opacity:1;fill-rule:nonzero;stroke:none" transform="matrix(1.33333 0 0 -1.33333 142.352 108.45)"/><path d="M0 0s1.73-10.882-11.427-8.821c0 0 2.04-10.411-4.868-13.906-.287-1.933.518-5.44 4.185-11.857l-10.361-8.634-.188-10.027 1.394-24.915 11.236 7.785 6.744 8.989 9.865 8.141 1.205 10.883-3.808 3.979s-1.916 1.555-6.222 2.074l-.165-6.053s-.358 6.214-9.017 10.376c-1.723.694-3.615 7.266-.161 5.541 3.286-2.087 15.4 2.769 14.525 8.466 0 0 7.097 2.936 4.495 11.07C6.227-3.111 2.771-.519 0 0" style="fill:#fff;fill-opacity:1;fill-rule:nonzero;stroke:none" transform="matrix(1.33333 0 0 -1.33333 203.92 108.45)"/><path d="M0 0s5.537 8.135 10.199 12.444c0 0-8.47 3.469-11.238 5.718-2.767 2.262-7.972 1.548-.355-9.509 0 0-2.934-.868-4.306 3.461 0 0-.709-6.916 5.7-12.114" style="fill:#232021;fill-opacity:1;fill-rule:nonzero;stroke:none" transform="matrix(1.33333 0 0 -1.33333 118.157 120.437)"/><path d="M0 0s-5.535 8.135-10.195 12.438c0 0 8.467 3.468 11.235 5.717 2.765 2.255 7.97 1.555.354-9.509 0 0 2.936-.868 4.33 3.461 0 0 .686-6.916-5.724-12.107" style="fill:#232021;fill-opacity:1;fill-rule:nonzero;stroke:none" transform="matrix(1.33333 0 0 -1.33333 228.117 121.12)"/><path d="M0 0c-2.6 2.56-7.949 3.388-9.677 3.549l2.937.687s-11.24 4.579-19.899 1.016c-8.632 3.577-19.348-1.016-19.348-1.016l2.935-.687c-1.729-.161-7.1-.989-9.677-3.549-2.604-2.525-5.373-3.38-5.373-3.38 1.209-.169 3.148-.566 6.059 1.704 3.098 2.417 5.867 2.693 5.867 2.693l-2.059-2.693c6.744 4.908 19.707 4.074 19.707 4.074-.879-1.037.165-3.745.165-3.745-10.717 2.721-18.502-4.916-18.502-4.916 2.605 1.523 8.307 3.617 13.157 2.034 3.545-1.165 4.682-1.347 5.039-1.36-.357-.263-.213-2.713-.213-2.713-7.951 3.562-14.528-1.865-14.528-1.865 11.428 2.201 15.047-1.187 15.047-1.187-.33-1.689 1.724-6.47 1.724-6.47v.344s2.605 4.437 2.248 6.126c0 0 3.643 3.388 15.051 1.187 0 0-7.077 5.427-15.051 1.865 0 0 .142 2.45-.188 2.713.33.013 1.987.195 5.563 1.36 4.821 1.583 10.551-.511 13.151-2.034 0 0-8.303 7.462-19.02 4.755 0 0 1.704 1.892.683 3.906 0 0 12.967.834 19.707-4.074l-2.081 2.693S-3.809.283-.684-1.676c3.29-2.081 4.845-1.873 6.058-1.704 0 0-2.768.855-5.374 3.38" style="fill:#232021;fill-opacity:1;fill-rule:nonzero;stroke:none" transform="matrix(1.33333 0 0 -1.33333 208.526 103.656)"/><path d="M0 0s1.542-2.788-1.249-4.35c-2.793-1.562-2.959-2.956-3.268-3.576 0 0-.614 3.408 1.706 4.97C-1.392-1.865-.636-2.02 0 0" style="fill:#232021;fill-opacity:1;fill-rule:nonzero;stroke:none" transform="matrix(1.33333 0 0 -1.33333 169.254 121.73)"/><path d="M0 0s-1.562-2.788 1.253-4.343c2.791-1.556 2.956-2.95 3.262-3.59 0 0 .617 3.428-1.703 4.977C1.394-1.852.613-2.007 0 0" style="fill:#232021;fill-opacity:1;fill-rule:nonzero;stroke:none" transform="matrix(1.33333 0 0 -1.33333 177.02 121.963)"/><path d="M0 0s-6.743-4.492-7.265-15.374l2.935 1.535s-3.121-5.696-1.207-14.168l4.14 4.329s-.164-6.235 7.264-8.469c0 0-3.975 2.759-1.561 7.077 0 0-4.66-.527-3.619 5.71l-3.645-2.189S-3.288-14.168 0-10.027l-3.288-.687S-4.33-5.866 0 0" style="fill:#232021;fill-opacity:1;fill-rule:nonzero;stroke:none" transform="matrix(1.33333 0 0 -1.33333 130.84 112.14)"/><path d="M0 0s6.744-4.499 7.263-15.4L4.33-13.838s3.098-5.704 1.205-14.176l-4.164 4.311s.192-6.223-7.236-8.472c0 0 3.973 2.769 1.535 7.092 0 0 4.687-.52 3.643 5.71l3.62-2.189S3.29-14.175 0-10.034l3.29-.693S4.33-5.892 0 0" style="fill:#232021;fill-opacity:1;fill-rule:nonzero;stroke:none" transform="matrix(1.33333 0 0 -1.33333 215.215 112.356)"/><path d="M0 0s-.333 2.061 4.684 4.66c4.4 2.277 3.572 4.027 3.45 4.66 0 0 1.092.047 1.59-1.502 0 0 2.174.465 2.386 3.408 0 0 4.853-5.408-3.289-7.953C1.653 1.031 1.653 2.014 0 0" style="fill:#232021;fill-opacity:1;fill-rule:nonzero;stroke:none" transform="matrix(1.33333 0 0 -1.33333 193.074 128.257)"/><path d="m0 0-.068-.451C-.377-.889 0 0 0 0" style="fill:#232021;fill-opacity:1;fill-rule:nonzero;stroke:none" transform="matrix(1.33333 0 0 -1.33333 182.847 141.833)"/><path d="M0 0c-3.286-1.38-5.017.344-5.535 1.213l1.397 1.73S0 0 .33 5.36l2.084.169S3.29 1.388 0 0m10.195 10.377c-1.374-2.592-4.491-3.467-5.7-3.293-1.205.183-8.99 0-10.387-3.454-1.367-3.448-5.037-4.849-5.037-4.849l.333-2.983c.165.121.993 1.044 2.128 1.778 2.081 1.562 1.041 0 7.262 0 8.636.875 6.741 6.579 6.741 6.579 5.016 1.556 4.66 6.222 4.66 6.222" style="fill:#232021;fill-opacity:1;fill-rule:nonzero;stroke:none" transform="matrix(1.33333 0 0 -1.33333 196.54 137.263)"/><path d="M0 0s.357 2.061-4.66 4.66c-4.4 2.277-3.645 4.027-3.456 4.66 0 0-1.133.094-1.608-1.555 0 0-2.295.255-2.387 3.461 0 0-4.899-5.596 3.286-7.953C-.994 1.031-1.563 2.061 0 0" style="fill:#232021;fill-opacity:1;fill-rule:nonzero;stroke:none" transform="matrix(1.33333 0 0 -1.33333 152.729 128.257)"/><path d="m0 0 2.057-.168c.355-5.361 4.495-2.417 4.495-2.417l1.397-1.731c-.52-.869-2.248-2.593-5.537-1.213C-.877-4.141 0 0 0 0m-3.123-1.374s-1.892-5.704 6.742-6.579c6.222 0 5.184 1.562 7.263 0 1.135-.734 2.106-1.629 2.318-1.912 0 0 .641 1.489.686 2.956-.333.263-4.21 1.562-5.605 5.01C6.907 1.556-.877 1.738-2.081 1.556c-1.207-.175-4.33.7-5.702 3.292 0 0-.355-4.666 4.66-6.222" style="fill:#232021;fill-opacity:1;fill-rule:nonzero;stroke:none" transform="matrix(1.33333 0 0 -1.33333 146.105 129.891)"/><path d="M0 0c-2.956 5.865-4.922 9.583-5.868 12.465-1.017 3.165-.879 5.185-.879 5.185-.209-1.562-.491-3.69-.161-6.054.188-1.299.707-3.878 1.205-5.017C-2.936.352-2.061-5.353-2.061-5.353L-7.266-.848c3.644-7.616 1.751-21.104 1.751-21.104l-3.639 3.286c-.522-11.588-10.2-16.936-10.2-16.936 2.769 3.974.688 5.583.688 5.583 2.411.754 4.33 5.3 3.809 11.529-.684 10.545-12.112 10.706-12.112 10.706 14.882-2.068 11.401-21.952-4.828-21.252-14.882-.532-14.357 12.619-14.357 12.619s.519.357 2.768.52c1.371.342 1.037 1.899 2.933 2.41 9.861 2.43 2.673 9.515 2.673 9.515-1.209-1.731-3.196-3.455-4.401-2.249-1.063 1.064-4.4.975-5.181.95-.805.025-4.138.114-5.206-.95-1.205-1.206-3.429.552-4.612 2.296 0 0-6.955-7.132 2.888-9.562 1.916-.511 1.562-2.068 2.955-2.41 2.224-.163 2.746-.52 2.746-.52s.518-13.151-14.337-12.619c-16.252-.7-19.706 19.184-4.852 21.252 0 0-11.4-.161-12.113-10.706-.494-6.229 1.4-10.775 3.812-11.529 0 0-2.059-1.609.709-5.583 0 0-9.698 5.348-10.218 16.936l-3.622-3.286S-91.646-9.15-88.005-1.548l-4.493-3.455s-1.657 1.34 3.098 10.896c.522 1.562 1.513 3.737 1.725 6.572.143 1.569-.306 4.498-.518 5.017 0 0 .188-6.054-6.553-17.482-3.548-5.999-2.439-15.555-2.082-18.309l14.003-27.515 16.607-5.864s12.113-3.293 13.321-3.293c.995 0 4.278-.182 5.343-.257v-.02h.356v.02c1.065.075 4.35.257 5.347.257 1.229 0 13.32 3.293 13.32 3.293l16.606 5.864L2.081-18.309C2.435-15.555 2.246-4.396 0 0" style="fill:#232021;fill-opacity:1;fill-rule:nonzero;stroke:none" transform="matrix(1.33333 0 0 -1.33333 236.413 146.269)"/><path d="M0 0v-12.443S-6.055-8.472-5.89-1.548c0 0 3.122 1.38 5.89 1.548" style="fill:#fff;fill-opacity:1;fill-rule:nonzero;stroke:none" transform="matrix(1.33333 0 0 -1.33333 160.582 185.693)"/><path d="M0 0v-12.443S6.061-8.472 5.892-1.548c0 0-3.124 1.38-5.892 1.548" style="fill:#fff;fill-opacity:1;fill-rule:nonzero;stroke:none" transform="matrix(1.33333 0 0 -1.33333 184.993 185.693)"/><path d="M0 0s-1.727-6.396-3.62-7.602C-5.013-8.807-1.892-10.37-.521-9.683c0 0-.684-1.213-3.621-.168-2.08.855-2.434 0-3.121 0 0 0-1.205.855-2.057.33 0 0-1.04.835-1.754.236-.683.599-1.724-.236-1.724-.236-.848.525-2.059-.33-2.059-.33-.708 0-1.039.855-3.121 0-2.934-1.045-3.645.168-3.645.168 1.398-.687 4.52.876 3.123 2.081C-20.392-6.396-22.143 0-22.143 0l-.33-10.04c.33-3.273 1.726-2.249 4.848-1.893 3.1.345 6.551-.121 6.551-.121s3.458.466 6.579.121C-1.374-12.289 0-13.313.354-10.04z" style="fill:#fff;fill-opacity:1;fill-rule:nonzero;stroke:none" transform="matrix(1.33333 0 0 -1.33333 187.772 210.348)"/><path d="M0 0s1.206-6.412-3.623-6.067c-4.754.336-8.99.955-10.289.767-1.327.188-5.559-.431-10.292-.767C-29.053-6.412-27.848 0-27.848 0c-9.155-1.044-5.865-11.428-5.865-11.428.332.875 3.097 3.972 3.097 3.972.523-6.221 5.893-9.157 5.893-9.157 2.981 3.454 9.579.088 10.716-.539v-.094s.024.02.095.047c.047-.027.067-.047.067-.047v.094c1.162.627 7.738 3.993 10.748.539 0 0 5.34 2.936 5.865 9.157 0 0 2.768-3.097 3.121-3.972C5.889-11.428 9.175-1.044 0 0" style="fill:#fff;fill-opacity:1;fill-rule:nonzero;stroke:none" transform="matrix(1.33333 0 0 -1.33333 191.467 222.09)"/><path d="M0 0s-3.454-6.055-2.766-14.014L.521-12.29s-.686-8.977 4.661-17.475l1.373 4.688s2.08-10.384 8.822-16.432l.877 5.368s1.891-5.368 7.948-6.936c6.056-1.542 7.262-4.31 7.949-5.354 0 0 3.641 9.332-2.059 15.394-5.7 6.048-5.89 7.26-6.41 9.172 0 0-1.561-9.691 1.04-14.02 0 0-10.552 4.329-15.403 18.154 0 0-1.37-1.723-2.055-3.797 0 0-5.701 8.996-4.329 17.965L0-7.96S-.165-2.081 0 0" style="fill:#fff;fill-opacity:1;fill-rule:nonzero;stroke:none" transform="matrix(1.33333 0 0 -1.33333 107.086 155.003)"/><path d="M0 0s3.55-7.098 2.866-15.044L-.521-12.29s.713-8.977-4.66-17.475l-1.394 4.688s-2.061-10.384-8.801-16.432l-.875 5.368s-1.893-5.368-7.947-6.936c-6.057-1.542-7.265-4.31-7.952-5.354 0 0-3.643 9.332 2.06 15.394 5.724 6.048 5.892 7.26 6.41 9.172 0 0 1.563-9.691-1.04-14.02 0 0 10.553 4.329 15.401 18.154 0 0 1.371-1.723 2.057-3.797 0 0 5.703 8.996 4.33 17.965L0-7.96S.192-2.081 0 0" style="fill:#fff;fill-opacity:1;fill-rule:nonzero;stroke:none" transform="matrix(1.33333 0 0 -1.33333 238.49 155.003)"/><path d="m0 0-3.193.257-40.643 11.926 1.042.78s31.651-8.289 32.432-8.289C-9.583 4.674 0 0 0 0" style="fill:#fff;fill-opacity:1;fill-rule:nonzero;stroke:none" transform="matrix(1.33333 0 0 -1.33333 157.335 167.808)"/><path d="m0 0-2.084-.788-51.951 5.462.074.767 36.051-2.33z" style="fill:#fff;fill-opacity:1;fill-rule:nonzero;stroke:none" transform="matrix(1.33333 0 0 -1.33333 162.888 172.997)"/><path d="m0 0-.946-1.044-42.37-4.33-.522.971L-11.402 0Z" style="fill:#fff;fill-opacity:1;fill-rule:nonzero;stroke:none" transform="matrix(1.33333 0 0 -1.33333 155.948 177.145)"/><path d="M0 0h-2.84l-40.996 12.183 1.042.78s31.651-8.302 32.432-8.302C-9.583 4.661 0 0 0 0" style="fill:#232021;fill-opacity:1;fill-rule:nonzero;stroke:none" transform="matrix(1.33333 0 0 -1.33333 157.335 168.158)"/><path d="m0 0-2.084-.761-52.306 5.366.429.863 36.051-2.337Z" style="fill:#232021;fill-opacity:1;fill-rule:nonzero;stroke:none" transform="matrix(1.33333 0 0 -1.33333 162.888 173.365)"/><path d="m0 0-.591-.957-43.413-4.316.166.875L-11.402 0Z" style="fill:#232021;fill-opacity:1;fill-rule:nonzero;stroke:none" transform="matrix(1.33333 0 0 -1.33333 155.948 177.494)"/><path d="m0 0 3.191.257 40.646 11.926-1.043.78S11.168 4.674 10.383 4.674C9.605 4.674 0 0 0 0" style="fill:#fff;fill-opacity:1;fill-rule:nonzero;stroke:none" transform="matrix(1.33333 0 0 -1.33333 190.075 167.808)"/><path d="m0 0 2.088-.788 51.945 5.462-.071.767-36.076-2.33Z" style="fill:#fff;fill-opacity:1;fill-rule:nonzero;stroke:none" transform="matrix(1.33333 0 0 -1.33333 184.553 172.997)"/><path d="m0 0 .942-1.044 42.37-4.33.522.971L11.424 0Z" style="fill:#fff;fill-opacity:1;fill-rule:nonzero;stroke:none" transform="matrix(1.33333 0 0 -1.33333 191.467 177.145)"/><path d="M0 0h2.861l40.976 12.183-1.043.78S11.168 4.661 10.383 4.661C9.605 4.661 0 0 0 0" style="fill:#232021;fill-opacity:1;fill-rule:nonzero;stroke:none" transform="matrix(1.33333 0 0 -1.33333 190.075 168.158)"/><path d="m0 0 2.088-.761L54.39 4.605l-.428.863-36.076-2.337Z" style="fill:#232021;fill-opacity:1;fill-rule:nonzero;stroke:none" transform="matrix(1.33333 0 0 -1.33333 184.553 173.365)"/><path d="m0 0 .613-.957L44-5.273l-.166.875L11.424 0Z" style="fill:#232021;fill-opacity:1;fill-rule:nonzero;stroke:none" transform="matrix(1.33333 0 0 -1.33333 191.467 177.494)"/></svg>