<svg xmlns="http://www.w3.org/2000/svg" width="634.6021728515625px" height="785.86572265625px" style="shape-rendering:geometricPrecision;text-rendering:geometricPrecision;image-rendering:optimizeQuality;fill-rule:evenodd;clip-rule:evenodd" viewBox="0 0 634.6021728515625 785.86572265625"><path fill="none" d="M0 0h634.602v785.866H0z" style="fill:#002fff;fill-opacity:0;pointer-events:none"/><path d="m0 0-.068 1.177-1.12-.335C-5.201-.33-14.17.927-25.803 4.292l-.324.092c-2.896.833-16.275 7.27-26.037 11.975 0 0-4.524 2.177-5.547 2.661.316 1.673.512 3.369.512 5.043 0 8.915-4.391 17.317-11.746 22.456-4.67 3.283-10.182 5.016-15.916 5.016a27.792 27.792 0 0 1-18.03-6.639c-6.127-5.23-9.638-12.816-9.638-20.833 0-1.502.175-3.167.458-4.783-9.505-4.502-28.417-13.166-31.419-14.101-3.547-1.091-18.266-4.912-25.272-3.512l-1.058.222-.058-1.225c-1.217-26.654 1.288-116.956 84.647-159.694l.421-.217.425.217C3.898-113.149.664-11.438 0 0" style="fill:#000;fill-opacity:1;fill-rule:nonzero;stroke:none" transform="matrix(3.64217 0 0 -3.64217 624.56 194.344)"/><path d="m0 0-.307.082c-3.052.88-15.976 7.094-26.349 12.093l-6.83 3.28.156.727a25.68 25.68 0 0 1 .588 5.384c0 8.309-4.092 16.13-10.947 20.925a25.746 25.746 0 0 1-14.846 4.672 25.953 25.953 0 0 1-16.818-6.184c-5.706-4.881-8.986-11.945-8.986-19.413 0-1.605.192-3.444.538-5.154l.133-.715-.65-.309C-92.439 11.531-113.217 1.951-116.611.9c-.16-.049-16.286-4.838-25.114-3.704a197.646 197.646 0 0 1-.136-7.284c0-33.222 8.541-110.891 83.375-149.532C18.248-119.446 24.65-36.375 24.65-9.883c0 2.7-.062 4.796-.136 6.217C18.232-4.799 6.629-1.921 0 0" style="fill:#fff;fill-opacity:1;fill-rule:nonzero;stroke:none" transform="matrix(3.64217 0 0 -3.64217 528.676 185.248)"/><path d="M0 0c-11.258-.535-20.672 2.822-24.914 4.2-10.191 3.292-27.613 13.184-35.979 17.172l-19.623-.01.176-82.396h71.805C1.053-29.808 0-3.228 0 0" style="fill:#144a8d;fill-opacity:1;fill-rule:nonzero;stroke:none" transform="matrix(3.64217 0 0 -3.64217 607.047 208.337)"/><path d="M0 0c42.039 21.832 62.086 57.451 71.619 88.467H-.186Z" style="fill:#ff8e12;fill-opacity:1;fill-rule:nonzero;stroke:none" transform="matrix(3.64217 0 0 -3.64217 315.112 752.844)"/><path d="M0 0c9.539-31.143 29.772-66.766 72.133-88.494 0 .014 0 .014.01.027L71.957 0Z" style="fill:#144a8d;fill-opacity:1;fill-rule:nonzero;stroke:none" transform="matrix(3.64217 0 0 -3.64217 52.356 430.633)"/><path d="m0 0-19.77.406c-8.246-3.92-24.855-12.924-35.031-16.543-4.644-1.649-16.356-4.158-25.726-4.425-.409-3.497-.873-30.395 8.746-61.834H.176Z" style="fill:#ff8e12;fill-opacity:1;fill-rule:nonzero;stroke:none" transform="matrix(3.64217 0 0 -3.64217 313.796 130.532)"/><path d="M0 0c0-12.28-9.956-22.244-22.236-22.244-12.289 0-22.241 9.964-22.241 22.244 0 12.299 9.952 22.242 22.241 22.242C-9.956 22.242 0 12.299 0 0" style="fill:#fff;fill-opacity:1;fill-rule:nonzero;stroke:none" transform="matrix(3.64217 0 0 -3.64217 395.744 103.932)"/><path d="m0 0-1.184.726.541 6.245c1.713 2.821 2.36 6.448 2.594 8.633l2.173.433c.147-1.009.229-2.041.229-3.091C4.353 8.094 2.723 3.597 0 0m-8.568-6.776c.597.996 1.138 2.181 1.505 3.045l5.6 3.963 1.104-.694a21.677 21.677 0 0 0-8.209-6.314m-13.875-1.148c-.637.705-1.475 1.852-2.239 2.949l4.247 3.801c2.042-.203 5.531-.39 8.634.214l4.088-2.839c-.498-1.118-1.152-2.466-1.775-3.358a21.466 21.466 0 0 0-7.682-1.411c-1.823 0-3.591.227-5.273.644M-33.544-1l1.323.203 6.803-4.136a53.281 53.281 0 0 1 1.993-2.718A21.613 21.613 0 0 0-33.544-1m-4.901 17.235 2.96-.851c.455-2.548 1.323-6.656 2.588-9.336l.303-6.318-1.377-.219a21.392 21.392 0 0 0-4.728 13.435c0 1.122.082 2.215.254 3.289m13.847 16.919 1.262-.184c-3.43-1.437-7.373-4.837-8.168-5.558l-2.531-1.106a21.629 21.629 0 0 0 9.437 6.848m13.078-19.239 2.339 7.75c1.718.155 4.765.426 6.855.55l3.695-6.641c-.26-2.172-.918-5.734-2.592-8.429l-6.064-.473c-1.297 2.1-3.197 5.393-4.233 7.243m-8.978-.426h8.545c.424-.745 1.033-1.824 1.933-3.364.61-1.044 1.485-2.539 2.231-3.728l-4.012-6.766c-3.074-.614-6.631-.421-8.656-.22l-3.604 5.945c1.158 2.22 2.692 5.951 3.563 8.133m-2.919 8.3 2.315-8.276c-.871-2.159-2.334-5.69-3.435-7.82l-8.037.993c-1.141 2.647-1.947 6.581-2.367 8.975l4.092 6.891zm6.541 10.221c.14-1.776.314-4.014.417-5.499l-6.701-4.167-7.588.777v4.197c1.437 1.237 5.51 4.551 8.602 5.477zm14.265-9.211c-2.141-.104-4.969-.369-6.618-.545l-6.666 4.38a373.85 373.85 0 0 1-.411 5.358l8.486.349a22.017 22.017 0 0 0 5.031-3.403zM-17.17 35.912c-12.666 0-22.959-10.305-22.959-22.966 0-12.651 10.293-22.961 22.959-22.961 12.65 0 22.949 10.31 22.949 22.961 0 12.661-10.299 22.966-22.949 22.966" style="fill:#000;fill-opacity:1;fill-rule:nonzero;stroke:none" transform="matrix(3.64217 0 0 -3.64217 377.292 151.083)"/><path d="M0 0s.672 2.238-3.467 4.476c0 0 .783 2.684 2.572.893 0 0-1.789 2.35-3.132 4.028-1.342 1.677-.225 3.135.336 3.579.56.448 4.812 3.47 5.259 9.959.448 4.252-1.343 8.502-1.343 9.284 0 .783-2.797 2.463-4.924 2.574-2.125.113-6.264-.224-9.957-3.133l-5.705-3.915s-3.375-.263-4.51.869c-1.133 1.134-7.682 4.349-15.584 2.935-.01.003-.016.003-.024.004-7.892 1.405-14.429-1.807-15.562-2.939-1.135-1.132-4.51-.869-4.51-.869l-5.705 3.915c-3.693 2.909-7.831 3.246-9.957 3.133-2.127-.111-4.924-1.791-4.924-2.574 0-.782-1.789-5.032-1.342-9.284.448-6.489 4.698-9.511 5.257-9.959.561-.444 1.679-1.902.337-3.579-1.342-1.678-3.133-4.028-3.133-4.028 1.791 1.791 2.575-.893 2.575-.893C-81.583 2.238-80.912 0-80.912 0c.672 1.119 1.902-.894 1.454-2.126-4.698-10.292-2.573-20.471-2.573-20.471 0 6.486 3.58 8.724 3.58 8.724-.783-.445-1.23-6.041-1.23-7.607.558-11.635 9.62-19.465 9.62-19.465-1.566 2.012-.223 5.258-.223 5.258 2.462-6.938 9.397-9.285 9.397-8.615 0 .672 3.022-1.328 4.699-2.449 0 0 1.689-3.358 1.922-4.897.233-1.537 1.258-6.754 1.258-6.754s.58 2.209 1.561 3.033a4.26 4.26 0 0 1 .863-.398c.236-.084.46-.162.672-.24 1.598-2.02 4.668-3.823 4.668-3.823l-.595 2.176c.566-.133 1.169-.172 1.943-.078 2.455.295 3.441-.113 3.441-.113s.985.408 3.437.113c.776-.094 1.379-.055 1.946.078l-.595-2.176s3.071 1.803 4.667 3.823c.213.078.436.156.674.24.31.103.597.24.861.398.981-.824 1.561-3.033 1.561-3.033s1.026 5.217 1.258 6.754c.234 1.539 1.921 4.897 1.921 4.897 1.68 1.121 4.7 3.121 4.7 2.449 0-.67 6.935 1.677 9.398 8.615 0 0 1.342-3.246-.223-5.258 0 0 9.063 7.83 9.62 19.465 0 1.566-.448 7.162-1.231 7.607 0 0 3.582-2.238 3.582-8.724 0 0 2.125 10.179-2.574 20.471C-1.902-.894-.67 1.119 0 0" style="fill:#221e1f;fill-opacity:1;fill-rule:nonzero;stroke:none" transform="matrix(3.64217 0 0 -3.64217 465.202 316.433)"/><path d="M0 0c0 .947 1.422 2.723 1.422 2.723-.356 2.014-4.027 2.608-4.027 2.608C-2.133 6.515.119 8.174.119 8.174s-2.133 1.896-2.724 2.962c-.594 1.067-1.067 3.2.236 4.266 2.961 1.422 6.043 9.362 5.568 11.73-.472 2.372-.711 5.57-.947 6.517-8.059 3.436-13.272-2.133-16.352-3.553-3.08-1.422-4.384-5.926-4.384-5.926l-3.673 3.2c-4.47 4.939-15.261 4.625-15.413 4.621-.155.004-10.946.318-15.416-4.621l-3.672-3.2s-1.305 4.504-4.385 5.926c-3.08 1.42-8.293 6.989-16.351 3.553-.236-.947-.473-4.145-.948-6.517-.473-2.368 2.608-10.308 5.57-11.73 1.303-1.066.829-3.199.237-4.266-.594-1.066-2.726-2.962-2.726-2.962s2.251-1.659 2.726-2.843c0 0-3.673-.594-4.029-2.608 0 0 1.421-1.776 1.421-2.723 0-.948-3.553-7.228-3.317-12.677 0 0 2.133 2.369 4.858 2.605 0 0-3.792-16.351 3.317-22.749 0 0 .83 3.318 2.845 2.963 0 0 4.265-11.139 8.766-10.428 0 0 3.912-2.211 5.807-3.754 1.896-1.539 4.28-6.545 6.886-8.084 2.604-1.537 7.074-3.023 8.411-2.588 1.336-.435 5.804 1.051 8.41 2.588 2.605 1.539 4.99 6.545 6.887 8.084 1.893 1.543 5.804 3.754 5.804 3.754 4.502-.711 8.768 10.428 8.768 10.428 2.013.355 2.844-2.963 2.844-2.963 7.109 6.398 3.318 22.749 3.318 22.749 2.725-.236 4.857-2.605 4.857-2.605C3.555-7.228 0-.948 0 0" style="fill:#d78c39;fill-opacity:1;fill-rule:nonzero;stroke:none" transform="matrix(3.64217 0 0 -3.64217 454.695 322.268)"/><path d="M0 0c-.367 1.077-1.785 4.754-2.154 5.7-.051.209-.209.447.185 1.182.393.735 1.135 1.853 1.135 1.853-.072.622-.373.798-.373.798s-1.848-1.4-2.113-2.456c-.266-1.058 1.718-7.932 1.058-9.651 0 0-1.996.885-2.898-.717-.903-1.605-1.303-2.974-1.236-3.64.066-.67-1.538 1-1.905 2.703 0 0-1.135-2.57-.568-4.138 0 0-.242-1.092.803-1.949 1.046-.852 2.103-1.702 3.996-2.022 0 0-2.922-1.502-4.772-.894 0 0 1.662-2.084 3.721-2.846 0 0-3.268-.324-5.51.758 0 0 .889-1.295 2.313-1.832 0 0-5.473-.334-6.266-.834 0 0-.066-.309 2.275-1.036.256-.126.696-.283 1.362-1.138 0 0-2.28.887-2.912.316 0 0-.094-.254.285-.951 0 0-3.389-.316-3.483-.346 0 0 2.844-.447 1.203-2.236-1.64-1.789-3.728-4.027-9.397-6.711-2.685-1.941-5.52-3.283-11.636-2.537-1.929.297-2.931.42-2.939.42h-.001c-.009 0-1.01-.123-2.941-.42-6.115-.746-8.95.596-11.634 2.537-5.67 2.684-7.756 4.922-9.399 6.711-1.638 1.789 1.203 2.236 1.203 2.236-.093.03-3.482.346-3.482.346.381.697.285.951.285.951-.633.571-2.912-.316-2.912-.316.664.855 1.107 1.012 1.361 1.138 2.344.727 2.278 1.036 2.278 1.036-.795.5-6.268.834-6.268.834 1.426.537 2.315 1.832 2.315 1.832-2.246-1.082-5.512-.758-5.512-.758 2.057.762 3.722 2.846 3.722 2.846-1.851-.608-4.773.894-4.773.894 1.893.32 2.951 1.17 3.996 2.022 1.045.857.805 1.949.805 1.949.566 1.568-.571 4.138-.571 4.138-.366-1.703-1.97-3.373-1.902-2.703.065.666-.336 2.035-1.238 3.64-.902 1.602-2.898.717-2.898.717-.661 1.719 1.324 8.593 1.059 9.651-.265 1.056-2.113 2.456-2.113 2.456s-.302-.176-.374-.798c0 0 .742-1.118 1.135-1.853.395-.735.236-.973.185-1.182-.369-.946-1.786-4.623-2.152-5.7-1.446-4.806-1.064-6.666-1.064-6.666 2.22 2.366 4.859 2.606 4.859 2.606-1.878-8.548-.698-14.218-.647-14.587 1-6.092 3.963-8.163 3.963-8.163 1.257 3.684 2.814 2.858 2.814 2.858 1.497-3.965 4.019-7.379 4.282-7.666 2.494-3.258 4.384-2.705 4.515-2.656 2.966-2.748 4.044-3.282 4.282-3.282 1.838.448 3.677-3.394 3.994-4.158 3.436-4.297 4.933-6.346 5.355-6.474 4.787-1.293 7.396-.538 7.473-.512.076-.026 2.685-.781 7.472.512.419.128 1.918 2.177 5.356 6.474.314.764 2.154 4.606 3.992 4.158.238 0 2.68 1.487 4.281 3.282.132-.049 2.024-.602 4.518 2.656.262.287 2.783 3.701 4.279 7.666 0 0 1.559.826 2.815-2.858 0 0 2.963 2.071 3.963 8.163.05.369 1.232 6.039-.645 14.587 0 0 2.637-.24 4.858-2.606 0 0 .38 1.86-1.063 6.666" style="fill:#fff;fill-opacity:1;fill-rule:nonzero;stroke:none" transform="matrix(3.64217 0 0 -3.64217 462.911 344.164)"/><path d="M0 0s-.228-4.319 1.703-5.457c1.934-1.136 3.866-1.706 5.231-.909 0 0 .759-2.714 2.484-3.914 1.607-1.656 4.354-1.098 3.849-2.209-.506-1.113-1.82-.911-1.516-2.426.304-1.516.709-5.359.101-7.079-.606-1.718-2.224 1.516-3.135 1.315-.908-.203-5.458 6.068-7.684 5.764C-1.19-15.218-3.766-6.315 0 0" style="fill:#fff;fill-opacity:1;fill-rule:nonzero;stroke:none" transform="matrix(3.64217 0 0 -3.64217 242.31 260.583)"/><path d="M0 0s-.912-5.619.758-13.661c-.152-1.82-.909-3.641 1.064-6.223 1.971-2.58 8.782-6.543 8.782-6.543s-.284 1.686-1.042 6.998c.456 1.52 3.794 7.59 6.678 9.26 0 0-6.678-2.885-9.714-.457C3.491-8.197 1.365-1.975 1.518 5.616z" style="fill:#fff;fill-opacity:1;fill-rule:nonzero;stroke:none" transform="matrix(3.64217 0 0 -3.64217 216.225 329.34)"/><path d="M0 0s-1.211-2.1-1.528-2.289C-1.846-2.48-2.292.127-3.311.448-4.329.765-5.984.127-7.83 1.846c-1.844 1.719-4.647 7.066-3.436 7.256 1.207.192 8.655-2.354 9.546-4.136C-.827 3.185 0 0 0 0" style="fill:#fff;fill-opacity:1;fill-rule:nonzero;stroke:none" transform="matrix(3.64217 0 0 -3.64217 283.527 347.427)"/><path d="M0 0s3.653 4.529.729 8.914c-1.022 1.461-3.36 2.923-7.451 2.775-1.462.148-3.799-.145-3.799-.145s-1.025 6.286-.293 9.208c-.147 1.314-.877 1.314 0 3.068.876 1.752 1.023 3.215 2.339 3.945 0 0-2.194-.145-3.071-2.044-.877-1.901-2.19-4.969-3.067-7.6-.586-2.777.146-2.923.875-3.507.732-.585 1.463-1.023.878-2.631-.585-1.608-.878-4.238-.878-4.238s1.315 1.899 2.777 1.023c0 0 1.754-4.824 5.991-6.284 0 0-4.237 4.091-4.53 6.284.293.585 1.17 1.9 1.463.585.291-1.317 1.461-4.676 4.091-5.554 1.169-.146 1.433-.057 1.753.126.318.18 1.924.58 2.193-3.925" style="fill:#221e1f;fill-opacity:1;fill-rule:nonzero;stroke:none" transform="matrix(3.64217 0 0 -3.64217 279.75 353.694)"/><path d="M0 0s4.54-.377 6.181-3.025c.16-.371.069-.685-.672-1.585-.741-.9-2.594-1.377-3.652-1.005C1.38-5.35-.732-4.196-.415-1.759-.367-.896-.211-.053 0 0" style="fill:#fff;fill-opacity:1;fill-rule:nonzero;stroke:none" transform="matrix(3.64217 0 0 -3.64217 257.313 314.098)"/><path d="M0 0s-.801-1.587-.801-2.069c0-.484.446-1.928 1.557-1.966.371 0 2.113.038 2.262 1.298.129.522.531 1.237.531 1.237z" style="fill:#221e1f;fill-opacity:1;fill-rule:nonzero;stroke:none" transform="matrix(3.64217 0 0 -3.64217 264.52 313.828)"/><path d="M0 0s-.859-2.933.049-3.894c.912-.961 2.227-1.819 3.541-1.668.76.051 1.417-.303 1.417-.303s-1.064.657-2.075 1.114C1.921-4.298.354-1.669 0 0" style="fill:#221e1f;fill-opacity:1;fill-rule:nonzero;stroke:none" transform="matrix(3.64217 0 0 -3.64217 249.168 288.448)"/><path d="M0 0s-1.771 1.063-1.82 2.983c-.051 1.921.91 2.629 1.011 3.287.1.658 2.174.961 3.539 1.364 1.366.405 3.541 1.063 3.541 1.063s-.607-1.263-1.822-1.82C3.236 6.322.455 5.562.051 4.904-.354 4.248-1.215 1.818 0 0" style="fill:#221e1f;fill-opacity:1;fill-rule:nonzero;stroke:none" transform="matrix(3.64217 0 0 -3.64217 267.03 304.283)"/><path d="M0 0c0-.152-2.376-1.366-2.477-2.985-.102-1.617.051-2.376 1.012-3.539 0 0-.506 2.173.203 3.843C-.555-1.012 0 0 0 0" style="fill:#221e1f;fill-opacity:1;fill-rule:nonzero;stroke:none" transform="matrix(3.64217 0 0 -3.64217 281.208 288.258)"/><path d="M0 0s-1.565-1.119-2.61-1.266c-1.044-.151-2.61-.226-3.281-3.209 0 0 1.342 1.716 2.834 2.089C-1.565-2.014-.596-1.343 0 0" style="fill:#221e1f;fill-opacity:1;fill-rule:nonzero;stroke:none" transform="matrix(3.64217 0 0 -3.64217 310.673 273.922)"/><path d="M0 0s.225-4.587-3.356-7.833c0 0 .896 2.239 1.23 3.693C-1.79-2.684-.56-1.23 0 0" style="fill:#221e1f;fill-opacity:1;fill-rule:nonzero;stroke:none" transform="matrix(3.64217 0 0 -3.64217 313.12 287.502)"/><path d="M0 0s-.896-1.79-1.565-3.019c-.672-1.233.271-1.572-1.305-3.285 0 0 1.234 0 1.507.48 0 0 .481-1.236-.068-3.018 0 0 .892.89.959 1.372 0 0-.822-3.29 0-4.936 0 0-.067 3.906.959 5.003 0 0 .825 3.77.756 4.182 0 0-.824-1.645-1.44-1.303 0 0 .411 2.332 1.44 2.949 0 0-1.73-.344-1.243 1.575" style="fill:#221e1f;fill-opacity:1;fill-rule:nonzero;stroke:none" transform="matrix(3.64217 0 0 -3.64217 295.19 289.135)"/><path d="M0 0s-.137-1.371-1.645-3.015c-.618-.479-1.85-.96-1.85-.96S-.479-1.026 0 0" style="fill:#221e1f;fill-opacity:1;fill-rule:nonzero;stroke:none" transform="matrix(3.64217 0 0 -3.64217 307.703 333.07)"/><path d="M0 0s1.135-2.371 2.268-2.886c0 0-1.444-.309-1.751 0 0 0 2.266-4.02 4.636-4.639 2.37-.617 2.062-1.133 2.062-1.133s-3.195.617-4.432 1.133C1.547-7.007-1.236-4.843 0 0" style="fill:#221e1f;fill-opacity:1;fill-rule:nonzero;stroke:none" transform="matrix(3.64217 0 0 -3.64217 231.434 330.456)"/><path d="M0 0c.721 1.547-.516 7.316-.928 9.379-.413 2.062 1.34 5.36 1.34 5.36-.928-1.959-1.753-1.959-1.753-1.959C0 14.118.823 18.141.823 18.141c-.617-1.239-1.957-1.753-1.957-1.753 1.443 1.236 2.679 5.359 2.679 5.359 1.135-.413 1.238-5.67.413-10.101-1.443-4.74-.515-6.596.515-8.451C3.503 1.342 6.492.619 4.74.104 2.988-.41 2.267-2.061 2.267-2.061" style="fill:#221e1f;fill-opacity:1;fill-rule:nonzero;stroke:none" transform="matrix(3.64217 0 0 -3.64217 213.046 378.505)"/><path d="M0 0s-6.184-5.358-7.01-9.583c-.824-4.226.207-4.536.517-6.391.309-1.854-.103-6.596-1.546-8.346 0 0 .617 2.986-.929 5.565 0 0 1.34 0 1.652-.722 0 0-.827 4.018-2.786 4.327 0 0 .827 2.268 1.959 1.133 0 0 .104 6.185-1.648 4.845 0 0-.206 6.287 9.791 9.172" style="fill:#221e1f;fill-opacity:1;fill-rule:nonzero;stroke:none" transform="matrix(3.64217 0 0 -3.64217 226.184 277.16)"/><path d="M0 0c.212.467 2.538-6.24 8.95-7.721 6.414-1.478 8.802-1.478 8.802-1.478s.148-3.615-1.194-4.11c-1.344-.492-9.846-2.136-13.574 2.795C1.193-7.885-1.79-3.943 0 0" style="fill:#fff;fill-opacity:1;fill-rule:nonzero;stroke:none" transform="matrix(3.64217 0 0 -3.64217 251.726 394.134)"/><path d="M0 0s0-4.774-.746-6.266c-.745-1.494 1.641-5.817 2.834-7.459 1.194-1.642 2.536-3.132 3.73-1.791 1.192 1.343 7.755 6.266 10.889 6.562 0 0 0 4.18-2.684 4.925C11.336-3.283 6.117 2.535 0 0" style="fill:#fff;fill-opacity:1;fill-rule:nonzero;stroke:none" transform="matrix(3.64217 0 0 -3.64217 177.84 202.75)"/><path d="M0 0c1.138-2.714.175-4.551.175-4.551 1.359.728 5.26 2.771 6.224 2.863 0 0 0 4.179-2.683 4.924-2.219.617-6.17 4.695-10.924 4.665 0 0 6.07-5.189 7.208-7.901" style="fill:#221e1f;fill-opacity:1;fill-rule:nonzero;stroke:none" transform="matrix(3.64217 0 0 -3.64217 215.382 229.211)"/><path d="M0 0s-4.513-6.617-2.948-10.107c.48-1.441.902-2.166 1.624-2.525l-1.864-.483s-.422-1.623.54-2.826c0 0-2.587 2.404-2.287 3.547.302 1.146-.211 4.492-.211 4.492S-1.806-.662 0 0" style="fill:#fff;fill-opacity:1;fill-rule:nonzero;stroke:none" transform="matrix(3.64217 0 0 -3.64217 269.005 372.112)"/><path d="M0 0c.837-1.141 2.589-2.361 4.72-2.662 2.131-.307 3.578-1.6 3.806-2.057 0 0-.912 2.133-2.437 2.969-1.522.838-3.12 0-5.785 3.35-.456 1.142.933 5.371 2.988 8.568 0 0-4.131-5.293-4.814-5.293 0 0-1.905 2.283-1.221 3.271 0 0-.684.231-1.064.459 0 0 .076-2.056.685-3.351C-3.122 5.254-.656.896 0 0" style="fill:#221e1f;fill-opacity:1;fill-rule:nonzero;stroke:none" transform="matrix(3.64217 0 0 -3.64217 250.943 411.79)"/><path d="M0 0s.229-4.319-1.705-5.457c-1.932-1.136-3.864-1.706-5.229-.909 0 0-.761-2.714-2.484-3.914-1.609-1.656-4.357-1.098-3.852-2.209.506-1.113 1.821-.911 1.518-2.426-.305-1.516-.708-5.359-.101-7.079.607-1.718 2.224 1.516 3.134 1.315.909-.203 5.459 6.068 7.684 5.764C1.189-15.218 3.766-6.315 0 0" style="fill:#fff;fill-opacity:1;fill-rule:nonzero;stroke:none" transform="matrix(3.64217 0 0 -3.64217 393.404 260.583)"/><path d="M0 0s.91-5.619-.76-13.661c.151-1.82.91-3.641-1.062-6.223-1.973-2.58-8.922-6.689-8.922-6.689s.422 1.832 1.181 7.144c-.456 1.52-3.794 7.59-6.679 9.26 0 0 6.679-2.885 9.713-.457 3.037 2.429 5.162 8.651 5.011 16.242z" style="fill:#fff;fill-opacity:1;fill-rule:nonzero;stroke:none" transform="matrix(3.64217 0 0 -3.64217 419.49 329.34)"/><path d="M0 0s1.21-2.1 1.528-2.289C1.845-2.48 2.292.127 3.312.448 4.328.765 5.983.127 7.83 1.846c1.845 1.719 4.646 7.066 3.436 7.256-1.208.192-8.656-2.354-9.545-4.136C.828 3.185 0 0 0 0" style="fill:#fff;fill-opacity:1;fill-rule:nonzero;stroke:none" transform="matrix(3.64217 0 0 -3.64217 352.184 347.427)"/><path d="M0 0s-3.653 4.529-.729 8.914c1.021 1.461 3.359 2.923 7.452 2.775 1.461.148 3.799-.145 3.799-.145s1.024 6.286.291 9.208c.147 1.314.877 1.314 0 3.068-.876 1.752-1.022 3.215-2.337 3.945 0 0 2.193-.145 3.07-2.044.875-1.901 2.191-4.969 3.068-7.6.584-2.777-.146-2.923-.877-3.507-.73-.585-1.463-1.023-.877-2.631.584-1.608.877-4.238.877-4.238s-1.316 1.899-2.777 1.023c0 0-1.754-4.824-5.99-6.284 0 0 4.236 4.091 4.529 6.284-.293.585-1.168 1.9-1.462.585-.292-1.317-1.462-4.676-4.092-5.554-1.169-.146-1.432-.057-1.753.126C1.874 4.105.268 4.505 0 0" style="fill:#221e1f;fill-opacity:1;fill-rule:nonzero;stroke:none" transform="matrix(3.64217 0 0 -3.64217 355.961 353.694)"/><path d="M0 0s-4.543-.377-6.184-3.025c-.158-.371-.066-.685.674-1.585.741-.9 2.594-1.377 3.653-1.005C-1.381-5.35.73-4.196.414-1.759.365-.896.21-.053 0 0" style="fill:#fff;fill-opacity:1;fill-rule:nonzero;stroke:none" transform="matrix(3.64217 0 0 -3.64217 378.401 314.098)"/><path d="M0 0s.801-1.587.801-2.069c0-.484-.444-1.928-1.556-1.966-.37 0-2.112.038-2.263 1.298-.128.522-.531 1.237-.531 1.237z" style="fill:#221e1f;fill-opacity:1;fill-rule:nonzero;stroke:none" transform="matrix(3.64217 0 0 -3.64217 371.188 313.828)"/><path d="M0 0s.858-2.933-.053-3.894c-.909-.961-2.224-1.819-3.538-1.668-.759.051-1.417-.303-1.417-.303s1.063.657 2.075 1.114C-1.922-4.298-.355-1.669 0 0" style="fill:#221e1f;fill-opacity:1;fill-rule:nonzero;stroke:none" transform="matrix(3.64217 0 0 -3.64217 386.547 288.448)"/><path d="M0 0s1.771 1.063 1.821 2.983C1.87 4.904.912 5.612.811 6.27c-.102.658-2.175.961-3.54 1.364-1.366.405-3.542 1.063-3.542 1.063s.607-1.263 1.822-1.82C-3.235 6.322-.455 5.562-.05 4.904.355 4.248 1.215 1.818 0 0" style="fill:#221e1f;fill-opacity:1;fill-rule:nonzero;stroke:none" transform="matrix(3.64217 0 0 -3.64217 368.677 304.283)"/><path d="M0 0c0-.152 2.377-1.366 2.478-2.985.1-1.617-.05-2.376-1.013-3.539 0 0 .507 2.173-.201 3.843C.557-1.012 0 0 0 0" style="fill:#221e1f;fill-opacity:1;fill-rule:nonzero;stroke:none" transform="matrix(3.64217 0 0 -3.64217 354.5 288.258)"/><path d="M0 0s1.565-1.119 2.612-1.266c1.043-.151 2.61-.226 3.281-3.209 0 0-1.343 1.716-2.833 2.089C1.565-2.014.598-1.343 0 0" style="fill:#221e1f;fill-opacity:1;fill-rule:nonzero;stroke:none" transform="matrix(3.64217 0 0 -3.64217 325.031 273.922)"/><path d="M0 0s-.223-4.587 3.357-7.833c0 0-.895 2.239-1.23 3.693C1.79-2.684.561-1.23 0 0" style="fill:#221e1f;fill-opacity:1;fill-rule:nonzero;stroke:none" transform="matrix(3.64217 0 0 -3.64217 322.588 287.502)"/><path d="M0 0s.895-1.79 1.564-3.019c.672-1.233-.27-1.572 1.307-3.285 0 0-1.234 0-1.51.48 0 0-.478-1.236.069-3.018 0 0-.891.89-.959 1.372 0 0 .823-3.29 0-4.936 0 0 .068 3.906-.959 5.003 0 0-.825 3.77-.754 4.182 0 0 .822-1.645 1.439-1.303 0 0-.413 2.332-1.439 2.949 0 0 1.73-.344 1.242 1.575" style="fill:#221e1f;fill-opacity:1;fill-rule:nonzero;stroke:none" transform="matrix(3.64217 0 0 -3.64217 340.522 289.135)"/><path d="M0 0s.137-1.371 1.645-3.015c.617-.479 1.851-.96 1.851-.96S.48-1.026 0 0" style="fill:#221e1f;fill-opacity:1;fill-rule:nonzero;stroke:none" transform="matrix(3.64217 0 0 -3.64217 328.008 333.07)"/><path d="M0 0s-1.133-2.371-2.268-2.886c0 0 1.444-.309 1.752 0 0 0-2.267-4.02-4.636-4.639-2.371-.617-2.062-1.133-2.062-1.133s3.194.617 4.431 1.133C-1.546-7.007 1.236-4.843 0 0" style="fill:#221e1f;fill-opacity:1;fill-rule:nonzero;stroke:none" transform="matrix(3.64217 0 0 -3.64217 404.274 330.456)"/><path d="M0 0c-.723 1.547.514 7.316.926 9.379.414 2.062-1.34 5.36-1.34 5.36C.514 12.78 1.34 12.78 1.34 12.78 0 14.118-.826 18.141-.826 18.141c.619-1.239 1.961-1.753 1.961-1.753-1.444 1.236-2.682 5.359-2.682 5.359-1.135-.413-1.236-5.67-.412-10.101 1.443-4.74.516-6.596-.516-8.451C-3.504 1.342-6.494.619-4.742.104-2.99-.41-2.27-2.061-2.27-2.061" style="fill:#221e1f;fill-opacity:1;fill-rule:nonzero;stroke:none" transform="matrix(3.64217 0 0 -3.64217 422.67 378.505)"/><path d="M0 0s6.186-5.358 7.01-9.583c.824-4.226-.205-4.536-.516-6.391-.308-1.854.102-6.596 1.547-8.346 0 0-.619 2.986.926 5.565 0 0-1.34 0-1.651-.722 0 0 .827 4.018 2.786 4.327 0 0-.827 2.268-1.959 1.133 0 0-.102 6.185 1.65 4.845C9.793-9.172 10-2.885 0 0" style="fill:#221e1f;fill-opacity:1;fill-rule:nonzero;stroke:none" transform="matrix(3.64217 0 0 -3.64217 409.523 277.16)"/><path d="M0 0c-.213.467-2.537-6.24-8.951-7.721-6.413-1.478-8.801-1.478-8.801-1.478s-.148-3.615 1.193-4.11c1.342-.492 9.846-2.136 13.576 2.795C-1.193-7.885 1.789-3.943 0 0" style="fill:#fff;fill-opacity:1;fill-rule:nonzero;stroke:none" transform="matrix(3.64217 0 0 -3.64217 383.985 394.134)"/><path d="M0 0s0-4.774.746-6.266C1.49-7.76-.896-12.083-2.09-13.725c-1.193-1.642-2.535-3.132-3.728-1.791-1.194 1.343-7.758 6.266-10.89 6.562 0 0 0 4.18 2.687 4.925C-11.338-3.283-6.117 2.535 0 0" style="fill:#fff;fill-opacity:1;fill-rule:nonzero;stroke:none" transform="matrix(3.64217 0 0 -3.64217 457.875 202.75)"/><path d="M0 0c-1.137-2.714-.174-4.551-.174-4.551-1.359.728-5.26 2.771-6.223 2.863 0 0 0 4.179 2.686 4.924 2.217.617 6.166 4.695 10.92 4.665 0 0-6.07-5.189-7.209-7.901" style="fill:#221e1f;fill-opacity:1;fill-rule:nonzero;stroke:none" transform="matrix(3.64217 0 0 -3.64217 420.322 229.211)"/><path d="M0 0s4.511-6.617 2.946-10.105c-.48-1.445-.902-2.168-1.623-2.527l1.865-.483s.42-1.623-.541-2.828c0 0 2.586 2.406 2.286 3.551-.301 1.142.21 4.492.21 4.492S1.805-.66 0 0" style="fill:#fff;fill-opacity:1;fill-rule:nonzero;stroke:none" transform="matrix(3.64217 0 0 -3.64217 366.71 371.329)"/><path d="M0 0c-.837-1.141-2.588-2.361-4.719-2.662-2.132-.307-3.579-1.6-3.807-2.057 0 0 .914 2.133 2.435 2.969 1.524.838 3.122 0 5.787 3.35.456 1.142-.931 5.371-2.988 8.568 0 0 4.131-5.293 4.814-5.293 0 0 1.904 2.283 1.219 3.271 0 0 .685.231 1.067.459 0 0-.077-2.056-.686-3.351C3.122 5.254.657.896 0 0" style="fill:#221e1f;fill-opacity:1;fill-rule:nonzero;stroke:none" transform="matrix(3.64217 0 0 -3.64217 383.2 411.79)"/><path d="M0 0c-3.922 1.951-9.143 6.279-8.246 11.049 0 0-1.196 3.134-2.539 2.984-1.341-.15-4.176-4.324-7.457-4.621 0 0 3.281-1.642 4.774-.896 0 0-2.489-2.905-4.272-2.854.875-.068 4.373-.277 6.062.766 0 0-1.194-1.791-2.984-1.791 0 0 6.756-.649 6.937-.875.179-.225-3.063-.676-3.74-2.297 0 0 2.117.855 2.975.271 0 0-.092-.765-.543-.902 0 0 7.285.047 10.451-3.17zm33.875-2.193C36.751.881 44.035.834 44.035.834c-.451.137-.539.902-.539.902.856.584 2.971-.271 2.971-.271-.674 1.621-3.918 2.072-3.738 2.297.181.226 6.937.875 6.937.875-1.791 0-2.984 1.791-2.984 1.791 1.689-1.043 5.187-.834 6.062-.766-1.783-.051-4.271 2.854-4.271 2.854 1.49-.746 4.773.896 4.773.896-3.283.297-6.117 4.471-7.459 4.621-1.344.15-2.535-2.984-2.535-2.984.894-4.77-4.326-9.098-7.962-10.906ZM-17.74 5.662c-.07.002-.138.008-.203.018 0 0 .074-.008.203-.018m70.687.018" style="fill:#221e1f;fill-opacity:1;fill-rule:nonzero;stroke:none" transform="matrix(3.64217 0 0 -3.64217 253.764 423.42)"/><path d="M0 0c.525-1.729 1.736-8 8.479-10.404.887-.104 2.507-.366 2.718-.469 0 0 7.52-.207 8.041.514.521-.721 8.041-.514 8.041-.514.209.103 1.83.365 2.717.469C36.739-8 37.908-1.717 38.475 0c.467 1.418-.948 4.275-.948 4.275l-.483-.673c.888-.916.335-3.5.261-4.733 0-2.908-3.469-5.035-6.041-7.383-2.574-2.349-9.621-.56-10.854.334-.928.678-.389 3.2-.07 4.397a3.319 3.319 0 0 1 1.54 1.211c1.007 1.455 3.134 3.021 4.252 3.58 1.118.56 3.786 3.271 1.389 4.992 0 0-1.289-1.689-2.735-.963-1.427.711-5.245.137-5.548-.418-.304.555-4.123 1.129-5.55.418-1.447-.726-2.733.963-2.733.963-2.396-1.721.27-4.432 1.389-4.992 1.119-.559 3.244-2.125 4.25-3.58a3.33 3.33 0 0 1 1.541-1.211c.32-1.197.857-3.719-.072-4.397-1.229-.894-8.28-2.683-10.851-.334C4.639-6.166 1.17-4.039 1.17-1.131c-.073 1.233-.623 3.674.265 4.59l-.489.816S-.571 1.883 0 0" style="fill:#221e1f;fill-opacity:1;fill-rule:nonzero;stroke:none" transform="matrix(3.64217 0 0 -3.64217 247.788 408.71)"/><path d="M0 0s2.611 2.908 5.445 3.802c2.834.896 4.7.821 5.668.3.971-.523 1.866-1.194 2.387-.597.523.597.895 2.834.895 2.834s.448-1.716 1.418-2.385c.968-.674 2.163-.524 2.46-.077.299.447 5.072 1.045 6.041.301.971-.748 5.444-4.328 5.444-4.328s-3.355 1.193-4.772.672c-1.418-.522-2.311-.075-3.802.595-1.494.674-3.059 1.194-3.208.674C17.826 1.269 20.139 0 20.139 0s-3.207.82-3.805.82c-.598 0-1.268.074-1.268.074s-3.429.074-4.847-.745c-1.416-.82 2.609 1.791 1.343 1.642C10.293 1.641 8.279.298 7.459.298 6.639.298 2.388 1.492 0 0" style="fill:#221e1f;fill-opacity:1;fill-rule:nonzero;stroke:none" transform="matrix(3.64217 0 0 -3.64217 262.862 267.4)"/><path d="M0 0s2.909.111 5.482 1.005c2.574.897 5.706 1.232 5.93 1.791.223.559.694 1.062.893.447.2-.614 2.238-1.679 5.93-1.79 2.685-.448 6.041-2.238 6.041-2.238s-.671 3.469-2.684 4.475c-2.014 1.009-4.139 1.009-5.259 1.68-1.118.67-3.132 2.013-.894 2.125 2.237.112 6.375-1.567 8.502-1.676 1.902-.784 5.818-2.799 5.818-2.799s-3.916 3.02-6.825 3.804c-2.909.783-7.247 1.959-8.838 1.453-1.591-.503-1.791-.894-3.468-.446-1.678.446-6.712 0-8.503-.672-1.789-.672-6.152-3.58-6.152-3.58s6.824 3.132 9.958 3.357c3.131.223 4.921.336 3.803-.449-1.119-.782-2.797-1.788-4.923-2.685C2.685 2.907 1.454 1.343 0 0" style="fill:#221e1f;fill-opacity:1;fill-rule:nonzero;stroke:none" transform="matrix(3.64217 0 0 -3.64217 272.373 248.383)"/><path d="M0 0s3.245-.448 3.915-.335c.673.111 5.148.671 7.721 0 2.572-.672 9.06-4.587 9.06-4.587S16.446.784 5.034 1.006C1.903.894-3.915 2.125-12.306-4.249c0 0 4.475 3.242 12.306 4.249" style="fill:#221e1f;fill-opacity:1;fill-rule:nonzero;stroke:none" transform="matrix(3.64217 0 0 -3.64217 302.93 211.714)"/><path d="M0 0c.317-.346.698-.393 1.051-.346 3.302.467 6.847-.047 6.847-.047s2.959.538 6.847.026c.596.006.759.267.759.267.156.137.345.37.566.707.507.768 1.189 2.086 2.075 4.086 2.277 5.143 4.597 13.405 4.597 13.405s-3.846-2.979-6.426-3.397c-2.45-.396-7.999.713-8.548.826v.01l-.025-.004-.024.004v-.01c-.551-.113-6.1-1.222-8.549-.826-2.58.418-6.426 3.397-6.426 3.397S-3.987 7.629-2.568 4.645C-1.149 1.66-.318.342 0 0" style="fill:#221e1f;fill-opacity:1;fill-rule:nonzero;stroke:none" transform="matrix(3.64217 0 0 -3.64217 289.616 500.653)"/><path d="M0 0c-.224.4-1.112-4.93 2.167-7.389 0 0 .109 4.157 2.31 5.418C4.477-1.971.394-.713 0 0" style="fill:#221e1f;fill-opacity:1;fill-rule:nonzero;stroke:none" transform="matrix(3.64217 0 0 -3.64217 270.541 438.729)"/><path d="M0 0s-2.09-.953-3.048-.748c0 0 .665-2.58.232-4.738 0 0 1.79 1.652 2.816 5.486" style="fill:#fff;fill-opacity:1;fill-rule:nonzero;stroke:none" transform="matrix(3.64217 0 0 -3.64217 360.582 442.606)"/><path d="M0 0s2.09-.953 3.047-.748c0 0-.664-2.58-.231-4.738 0 0-1.791 1.652-2.816 5.486" style="fill:#fff;fill-opacity:1;fill-rule:nonzero;stroke:none" transform="matrix(3.64217 0 0 -3.64217 275.403 442.606)"/><path d="M0 0s-1.219-4.045-2.564-4.805c-.979-.773 1.21-1.75 2.193-1.318 0 0-.483-.766-2.555-.109-1.465.546-1.711 0-2.199 0 0 0-.854.546-1.469.218 0 0-.728.508-1.215.147-.488.361-1.216-.147-1.216-.147-.612.328-1.471-.218-1.471-.218-.483 0-.734.546-2.188 0-2.077-.657-2.57.109-2.57.109.983-.432 3.172.545 2.201 1.318C-14.388-4.045-15.615 0-15.615 0l-.243-6.342c.243-2.078 1.221-1.424 3.419-1.199 2.199.221 4.63-.074 4.63-.074s2.438.295 4.638.074C-.98-7.766 0-8.42.23-6.342Z" style="fill:#fff;fill-opacity:1;fill-rule:nonzero;stroke:none" transform="matrix(3.64217 0 0 -3.64217 346.525 471.992)"/><path d="M0 0h-15.201v7.234l1.107.17v4.93h-3.251v-4.93l1.072-.162.036-3.722V0h-15.201v7.234l1.108.17v22.412l-1.068.164-.04 3.721v3.52h15.201v-7.233l-1.108-.17v-3.441h3.251v3.441l-1.068.162-.039 3.721v3.52H0v-7.235l-1.109-.17V7.404l1.073-.162L0 3.52Z" style="fill:#221e1f;fill-opacity:1;fill-rule:nonzero;stroke:none" transform="matrix(3.64217 0 0 -3.64217 139.512 642.42)"/><path d="M0 0h-13.402v7.088l.864.131v4.715l-5.319 11.056h-1.596v7.578H5.804V22.99H4.132L-.864 12.77V7.188l.81-.135L0 3.523Z" style="fill:#221e1f;fill-opacity:1;fill-rule:nonzero;stroke:none" transform="matrix(3.64217 0 0 -3.64217 200.003 642.598)"/><path d="M0 0c.115-.014.363-.014.478 0 .054.197.129.598.129 1.295v9.639l-.369.054-.367-.054V1.295C-.129.596-.054.197 0 0m.238-12.557a15 15 0 0 0-4.336.619 9.693 9.693 0 0 0-4.24 2.612c-1.136 1.185-2.017 2.717-2.624 4.555-.565 1.712-.841 3.697-.841 6.066v9.639l-.86.132-.005 7.079h25.813v-7.079l-.864-.132V1.295c0-2.367-.275-4.35-.843-6.066-.606-1.842-1.489-3.374-2.624-4.557a9.726 9.726 0 0 0-4.242-2.611 14.986 14.986 0 0 0-4.334-.618" style="fill:#221e1f;fill-opacity:1;fill-rule:nonzero;stroke:none" transform="matrix(3.64217 0 0 -3.64217 257.214 597.348)"/><path d="M0 0h-12.908v4.877l-.12.184-.207.316.022-1.854V0H-26.12v7.088l.863.131v16.138l-.859.133-.004 7.078H0v-7.08l-.864-.131V7.188l.809-.135L0 3.523Z" style="fill:#221e1f;fill-opacity:1;fill-rule:nonzero;stroke:none" transform="matrix(3.64217 0 0 -3.64217 390.626 642.598)"/><path d="M0 0h.4c.266 0 .418.035.471.055.004.006.014.019.025.039.379.638.581 1.631.581 2.869 0 1.238-.202 2.23-.582 2.871-.024.037-.038.051-.038.051-.005-.008-.154.041-.457.041H0Zm.895-12.322h-13.432v7.086l.863.132v16.139l-.859.133-.004 7.078H1.232c2.032 0 3.864-.455 5.446-1.355 1.545-.875 2.83-2.102 3.816-3.639.891-1.393 1.563-3.016 1.992-4.826.401-1.686.604-3.524.604-5.463 0-1.805-.219-3.576-.649-5.272-.459-1.802-1.173-3.433-2.123-4.851a12.21 12.21 0 0 0-3.816-3.668c-1.631-.988-3.52-1.494-5.607-1.494" style="fill:#221e1f;fill-opacity:1;fill-rule:nonzero;stroke:none" transform="matrix(3.64217 0 0 -3.64217 426.013 597.718)"/><path d="M0 0h-13.123v5.1h-1.17V0h-12.506v6.777l1.201.315a161.523 161.523 0 0 0 .678 2.597c.268.999.566 2.112.897 3.336.326 1.211.652 2.448.98 3.705.328 1.272.654 2.512.975 3.725.318 1.201.599 2.277.845 3.229l.104.396v6.488H-6.02v-6.3l.374-1.381a491.082 491.082 0 0 1 2.3-8.262c.434-1.516.852-2.99 1.256-4.428.262-.937.51-1.81.74-2.617H0Z" style="fill:#221e1f;fill-opacity:1;fill-rule:nonzero;stroke:none" transform="matrix(3.64217 0 0 -3.64217 552.023 642.598)"/><path d="M0 0h-13.402v7.088l.863.131v16.138l-.859.133-.004 7.078H0V23.49l-.865-.133V7.188l.81-.135L0 3.523Z" style="fill:#221e1f;fill-opacity:1;fill-rule:nonzero;stroke:none" transform="matrix(3.64217 0 0 -3.64217 588.985 642.598)"/><path d="M0 0c.117-.172.429-.299.931-.373v-.691h-8.159v.691c.501.074.812.201.931.373s.178.391.178.658v10.615h-10.297V.658c0-.267.061-.486.179-.658.119-.172.428-.299.93-.373v-.691h-8.158v.691c.501.074.812.201.93.373.119.172.18.391.18.658v26.738c0 .268-.061.489-.18.661-.118.17-.429.295-.93.373v.687h8.158v-.687c-.502-.078-.811-.203-.93-.373-.118-.172-.179-.393-.179-.661v-9.123h10.297v9.123c0 .268-.059.489-.178.661-.119.17-.43.295-.931.373v.687H.931v-.687c-.502-.078-.814-.203-.931-.373-.119-.172-.179-.393-.179-.661V.658C-.179.391-.119.172 0 0" style="fill:#ff8e12;fill-opacity:1;fill-rule:nonzero;stroke:none" transform="matrix(3.64217 0 0 -3.64217 123.3 625.311)"/><path d="M0 0h3.025a4.25 4.25 0 0 0-.009.254v26.738c0 .086.004.17.009.254H0c.007-.084.01-.168.01-.254V16.4h-13.231v10.592c0 .086.004.17.01.254h-3.026c.007-.084.01-.168.01-.254V.254c0-.086-.003-.17-.01-.254h3.026c-.006.084-.01.168-.01.254v12.082H.01V.254C.01.168.007.084 0 0m7.06-2.934H-4.032V.484l1.107.166.001 8.752h-7.363V.652l1.109-.168v-3.418H-20.27V.484l1.108.166.001 25.946-1.109.172v3.414h11.092v-3.414l-1.107-.172-.002-7.26h7.363v7.26l-1.108.172v3.414H7.06v-3.414l-1.109-.172V.652L7.06.484Z" style="fill:#ff8e12;fill-opacity:1;fill-rule:nonzero;stroke:none" transform="matrix(3.64217 0 0 -3.64217 106.32 623.839)"/><path d="M0 0v-.537c-.165 0-.304-.082-.417-.244a4.488 4.488 0 0 1-.325-.561l-5.927-12.119v-8.723c0-.209.047-.379.139-.513.093-.135.336-.233.726-.291v-.535h-6.359v.535c.391.058.632.156.725.291a.885.885 0 0 1 .138.513v7.871l-5.896 12.256c-.329.686-.545 1.112-.649 1.276-.103.162-.226.244-.369.244V0h6.791v-.537c-.185 0-.36-.029-.524-.09-.165-.059-.247-.207-.247-.447 0-.117.133-.475.402-1.072.266-.596.58-1.284.939-2.059.362-.774.737-1.565 1.127-2.369.391-.805.711-1.49.957-2.057.063.149.196.424.402.826.206.403.437.873.694 1.409.258.537.535 1.103.834 1.699a66.354 66.354 0 0 1 1.405 2.976c.165.373.247.588.247.647 0 .24-.078.388-.232.447-.154.061-.303.09-.447.09V0Z" style="fill:#ff8e12;fill-opacity:1;fill-rule:nonzero;stroke:none" transform="matrix(3.64217 0 0 -3.64217 208.318 543.761)"/><path d="M0 0h1.696v8.934l5.7 11.656H6.063c-.054-.217-.156-.469-.323-.846a73.37 73.37 0 0 0-1.436-3.041c-.293-.588-.568-1.146-.822-1.678a63.21 63.21 0 0 0-.711-1.441c-.178-.35-.297-.59-.352-.723L1.097 9.68-.28 12.84c-.246.56-.559 1.232-.934 2A177.939 177.939 0 0 0-3.3 19.311c-.275.615-.42.986-.485 1.279H-6.02L0 8.08Zm5.495-2.936H-3.8v3.27l.865.127v6.951l-5.752 11.951c-.144.303-.253.526-.335.69h-.829v3.47h9.728v-3.47h-.294a150.8 150.8 0 0 1 .728-1.582c.252-.543.512-1.092.78-1.651.187.385.383.782.59 1.198.293.584.554 1.125.785 1.619.067.144.133.283.193.416h-.161v3.47H11.3v-3.47h-.901L4.632 8.254V.461l.863-.127Z" style="fill:#ff8e12;fill-opacity:1;fill-rule:nonzero;stroke:none" transform="matrix(3.64217 0 0 -3.64217 172.509 624.095)"/><path d="M0 0c-.094.135-.336.232-.725.291v.537h6.359V.291C5.242.232 5.001.135 4.908 0c-.094-.133-.138-.305-.138-.514V-12.5c0-1.967-.221-3.623-.665-4.965-.441-1.342-1.05-2.414-1.821-3.221a6.207 6.207 0 0 0-2.716-1.675 11.47 11.47 0 0 0-3.32-.471 11.45 11.45 0 0 0-3.318.471 6.195 6.195 0 0 0-2.716 1.675c-.772.807-1.38 1.879-1.821 3.221-.444 1.342-.664 2.998-.664 4.965V-.514A.879.879 0 0 1-12.41 0c-.094.135-.334.232-.726.291v.537h6.359V.291C-7.167.232-7.409.135-7.502 0a.886.886 0 0 1-.14-.514V-12.5c0-1.729.341-2.967 1.021-3.711.678-.746 1.635-1.119 2.869-1.119 1.236 0 2.193.373 2.873 1.119.678.744 1.018 1.982 1.018 3.711V-.514A.879.879 0 0 1 0 0" style="fill:#ff8e12;fill-opacity:1;fill-rule:nonzero;stroke:none" transform="matrix(3.64217 0 0 -3.64217 271.747 546.777)"/><path d="M0 0v-11.861c0-1.803.199-3.319.592-4.502.369-1.127.869-2.024 1.486-2.668a4.71 4.71 0 0 1 2.079-1.289c1.797-.539 3.993-.539 5.792 0a4.734 4.734 0 0 1 2.082 1.291c.615.642 1.115 1.539 1.485 2.662.392 1.187.591 2.703.591 4.506V0H12.41v-11.861c0-2.127-.457-3.666-1.4-4.702-.967-1.058-2.297-1.597-3.957-1.597-1.659 0-2.99.539-3.955 1.599-.943 1.034-1.401 2.571-1.401 4.7V0Zm7.053-23.66c-1.309 0-2.568.178-3.741.533a7.656 7.656 0 0 0-3.353 2.064c-.922.963-1.647 2.235-2.155 3.778-.49 1.482-.738 3.308-.738 5.424v11.4l-.865.135v3.26h9.295v-3.26l-.865-.135v-11.4c0-1.762.398-2.463.637-2.723.392-.432.975-.641 1.785-.641 1.08 0 1.538.366 1.788.641.237.258.636.959.636 2.723v11.4l-.866.135v3.26h9.295v-3.26l-.865-.135v-11.4c0-2.116-.248-3.942-.738-5.426-.507-1.541-1.233-2.813-2.155-3.776a7.668 7.668 0 0 0-3.351-2.064 12.938 12.938 0 0 0-3.744-.533" style="fill:#ff8e12;fill-opacity:1;fill-rule:nonzero;stroke:none" transform="matrix(3.64217 0 0 -3.64217 232.395 549.103)"/><path d="M0 0c-.091.135-.333.232-.725.291v.537h7.441V.291c-.35-.029-.582-.098-.695-.199a.5.5 0 0 1-.169-.381c0-.061.133-.33.401-.805.267-.478.617-1.072 1.049-1.791.432-.715.921-1.511 1.467-2.39.544-.881 1.095-1.76 1.652-2.639a224.77 224.77 0 0 1 1.603-2.506c.514-.791.959-1.469 1.329-2.035V-.514c0 .508-.216.776-.649.805v.537h5.65V.291C17.962.232 17.72.135 17.629 0a.879.879 0 0 1-.14-.514v-20.841c0-.209.047-.379.14-.514.091-.135.333-.233.725-.291v-.535h-5.866v.535c.288 0 .478.045.572.135a.47.47 0 0 1 .138.355.823.823 0 0 1-.092.338 7.415 7.415 0 0 1-.402.691c-.205.328-.51.799-.91 1.411-.4.609-.932 1.429-1.59 2.46a668.686 668.686 0 0 0-5.928 9.459v-14.044a.89.89 0 0 1 .139-.514c.094-.135.334-.233.727-.291v-.535H-.725v.535c.392.058.634.156.725.291.093.135.14.305.14.514V-.514A.879.879 0 0 1 0 0" style="fill:#ff8e12;fill-opacity:1;fill-rule:nonzero;stroke:none" transform="matrix(3.64217 0 0 -3.64217 310.954 546.777)"/><path d="M0 0h1.407v20.59H.205V3.848l-2.696 4.123c-.37.566-.815 1.246-1.328 2.039-.519.793-1.057 1.635-1.617 2.521a292.348 292.348 0 0 0-3.133 5.053 77.306 77.306 0 0 0-1.075 1.832c-.306.551-.476.875-.546 1.174h-2.819V0h1.203v19.102l2.717-4.414a622.89 622.89 0 0 1 5.914-9.44c.654-1.021 1.18-1.838 1.578-2.443.41-.625.722-1.106.932-1.44.258-.414.401-.664.49-.863A2.31 2.31 0 0 0 0 0m5.206-2.936h-8.801V.498l-.453.695c-.403.614-.936 1.438-1.599 2.473a690.54 690.54 0 0 0-3.225 5.1V.463l.866-.129v-3.27h-8.801v3.27l.863.127v19.668l-.863.135v3.259h10.374v-3.349l-.248-.024c.184-.312.392-.662.625-1.048a302.591 302.591 0 0 1 3.101-5.004c.075-.119.15-.239.226-.356v6.363l-.649.045v3.373h8.584v-3.261l-.864-.133V.461l.864-.127Z" style="fill:#ff8e12;fill-opacity:1;fill-rule:nonzero;stroke:none" transform="matrix(3.64217 0 0 -3.64217 364.185 624.095)"/><path d="M0 0c1.623 0 2.797.602 3.518 1.811.72 1.207 1.08 2.765 1.08 4.673 0 1.907-.36 3.465-1.08 4.672-.721 1.209-1.895 1.813-3.518 1.813h-3.924V0Zm-8.693 17.418c-.092.135-.334.232-.725.291v.537H.832c1.418 0 2.654-.299 3.703-.892a7.452 7.452 0 0 0 2.594-2.483c.68-1.058 1.189-2.305 1.527-3.736.342-1.432.51-2.981.51-4.651 0-1.521-.18-2.99-.539-4.406C8.266.662 7.721-.592 6.99-1.678a8.612 8.612 0 0 0-2.717-2.617c-1.082-.656-2.341-.982-3.781-.982h-9.91v.535c.391.058.633.156.725.291a.89.89 0 0 1 .139.513v20.842a.886.886 0 0 1-.139.514" style="fill:#ff8e12;fill-opacity:1;fill-rule:nonzero;stroke:none" transform="matrix(3.64217 0 0 -3.64217 427.478 610.217)"/><path d="M0 0h2.455c1.42 0 1.953.584 2.256 1.096.58.97.875 2.289.875 3.922 0 1.63-.295 2.949-.873 3.92-.305.511-.838 1.097-2.258 1.097H0Zm2.455-2.936h-5.391v15.905h5.391c2.701 0 4.09-1.373 4.775-2.528.858-1.429 1.29-3.255 1.29-5.423S8.088 1.021 7.23-.408c-.685-1.155-2.072-2.528-4.775-2.528m-7.086-2.341h7.578c1.178 0 2.166.252 3.018.769a7.195 7.195 0 0 1 2.262 2.18C8.861-1.385 9.344-.271 9.66.973c.328 1.293.494 2.654.494 4.045 0 1.546-.158 2.998-.468 4.312-.301 1.262-.75 2.365-1.336 3.281-.555.862-1.237 1.518-2.086 2-.819.465-1.823.702-2.977.702h-7.918Zm7.578-2.936H-8.431v3.27l.867.127v19.668l-.867.134v3.26H3.287c1.67 0 3.158-.365 4.426-1.084a8.867 8.867 0 0 0 3.105-2.965c.766-1.193 1.346-2.605 1.721-4.191.365-1.533.551-3.213.551-4.988 0-1.635-.197-3.239-.586-4.768-.4-1.572-1.02-2.988-1.84-4.213a10.17 10.17 0 0 0-3.178-3.055c-1.302-.793-2.832-1.195-4.539-1.195" style="fill:#ff8e12;fill-opacity:1;fill-rule:nonzero;stroke:none" transform="matrix(3.64217 0 0 -3.64217 418.536 604.874)"/><path d="m0 0-2.996 9.012L-5.742 0Zm-7.502-7.693c0-.151.035-.262.107-.336.073-.075.221-.112.45-.112v-.535h-5.465v.535c.224.059.39.157.492.291.104.135.205.381.311.739.039.148.142.55.308 1.207.164.654.379 1.482.649 2.48.267 1 .564 2.111.894 3.332.33 1.225.658 2.469.988 3.737.329 1.267.653 2.503.973 3.712.318 1.206.602 2.288.85 3.241.246.957.447 1.732.601 2.328.155.595.231.908.231.939a.318.318 0 0 1-.2.313 2.155 2.155 0 0 1-.417.133v.537h8.058v-.537a1.27 1.27 0 0 1-.402-.133c-.104-.061-.155-.209-.155-.448 0-.06.098-.449.293-1.162.196-.714.45-1.648.756-2.795a522.68 522.68 0 0 1 2.317-8.322 959.9 959.9 0 0 0 1.25-4.404c.4-1.432.765-2.715 1.095-3.846.164-.537.303-.894.416-1.074.114-.178.264-.268.448-.268v-.535h-6.08v.535c.39.03.586.209.586.537 0 .028-.051.231-.155.606-.103.369-.215.787-.34 1.248-.123.465-.24.902-.355 1.322-.113.416-.18.699-.199.848h-7.317c-.207-.805-.371-1.461-.494-1.967l-.293-1.207c-.072-.299-.125-.516-.154-.65a1.458 1.458 0 0 1-.047-.289" style="fill:#ff8e12;fill-opacity:1;fill-rule:nonzero;stroke:none" transform="matrix(3.64217 0 0 -3.64217 512.443 597.839)"/><path d="M0 0h1.725L.824 2.709Zm7.029-8.676h1.805a327.11 327.11 0 0 0-1.1 3.862c-.402 1.425-.816 2.89-1.248 4.396a463.54 463.54 0 0 0-1.254 4.439c-.404 1.45-.759 2.752-1.068 3.903-.309 1.144-.56 2.078-.756 2.789-.179.656-.265.994-.306 1.201H.859L5.793-2.934h-9.758L.563 11.914h-1.52c-.039-.174-.106-.428-.207-.824l-.602-2.326a598.86 598.86 0 0 0-.851-3.246 894.675 894.675 0 0 1-.971-3.709c-.33-1.274-.66-2.522-.992-3.748l-.895-3.331a183.83 183.83 0 0 1-.882-3.406h1.203l.029.143c.027.121.082.345.158.66l.291 1.205c.127.514.291 1.174.5 1.986l.283 1.104H5.84l.176-1.268c0-.013.025-.156.162-.664l.357-1.328c.123-.455.233-.867.336-1.234.076-.282.127-.465.158-.604m5.545-2.935H3.557v3.367l.312.023c-.055.198-.109.408-.168.627l-.291 1.08h-5.023c-.08-.318-.151-.601-.209-.847l-.19-.778h.276l.017-3.472h-8.4v3.14l.836.215.025.086a208.875 208.875 0 0 0 .949 3.66l.897 3.334c.328 1.219.654 2.459.984 3.721.33 1.269.655 2.51.975 3.719.316 1.205.599 2.283.846 3.236l.537 2.074-.369.076v3.198H6.555v-3.231l-.334-.06.017-.071c.198-.715.45-1.648.76-2.8.307-1.145.66-2.438 1.063-3.879.398-1.444.814-2.914 1.246-4.416.431-1.508.849-2.981 1.252-4.412.4-1.43.763-2.708 1.091-3.836l.092-.284h.832z" style="fill:#ff8e12;fill-opacity:1;fill-rule:nonzero;stroke:none" transform="matrix(3.64217 0 0 -3.64217 498.75 592.497)"/><path d="M0 0c.391.059.633.156.727.291a.914.914 0 0 1 .138.514v20.841a.909.909 0 0 1-.138.514c-.094.135-.336.233-.727.291v.537h6.359v-.537c-.39-.058-.632-.156-.726-.291a.886.886 0 0 1-.139-.514V.805a.89.89 0 0 1 .139-.514c.094-.135.336-.232.726-.291v-.535H0Z" style="fill:#ff8e12;fill-opacity:1;fill-rule:nonzero;stroke:none" transform="matrix(3.64217 0 0 -3.64217 552.998 627.488)"/><path d="M183.829 253.263h1.954V229.52h-1.954zm6.335 3.385h-10.716v-3.77l.995-.146V230.05l-.995-.155v-3.76h10.716v3.76l-.997.155v22.682l.997.146z" style="fill:#ff8e12;fill-opacity:1;fill-rule:nonzero;stroke:none;stroke-width:1.1532" transform="matrix(3.1583 0 0 3.1583 -19.095 -175.788)"/><path d="M0 0c.119-.174.43-.297.932-.375v-.688h-8.16v.688c.502.078.812.201.931.375.119.172.178.391.178.658v10.615h-10.296V.658c0-.267.061-.486.178-.658.119-.174.43-.297.93-.375v-.688h-8.157v.688c.501.078.812.201.931.375.119.172.178.391.178.658v26.738c0 .266-.059.487-.178.659-.119.172-.43.297-.931.373v.687h8.157v-.687c-.5-.076-.811-.201-.93-.373-.117-.172-.178-.393-.178-.659v-9.123h10.296v9.123c0 .266-.059.487-.178.659-.119.172-.429.297-.931.373v.687h8.16v-.687c-.502-.076-.813-.201-.932-.373-.119-.172-.178-.393-.178-.659V.658C-.178.391-.119.172 0 0" style="fill:#fff;fill-opacity:1;fill-rule:nonzero;stroke:none" transform="matrix(3.64217 0 0 -3.64217 123.407 625.88)"/><path d="M0 0v-.537c-.165 0-.303-.082-.416-.246a4.356 4.356 0 0 1-.324-.559l-5.928-12.121v-8.723c0-.209.045-.378.139-.513.092-.135.335-.233.725-.289v-.537h-6.358v.537c.391.056.633.154.724.289a.887.887 0 0 1 .138.513v7.872l-5.895 12.255c-.328.686-.545 1.112-.648 1.276-.104.164-.227.246-.372.246V0h6.792v-.537c-.184 0-.36-.031-.524-.09-.164-.061-.246-.209-.246-.447 0-.119.132-.477.401-1.072a168.36 168.36 0 0 1 2.067-4.43c.392-.805.711-1.49.957-2.059.062.151.197.428.403.828.205.405.436.875.694 1.409.257.537.534 1.103.833 1.701.299.595.567 1.146.803 1.654.236.508.436.947.601 1.32.164.373.248.588.248.649 0 .238-.076.386-.232.447-.154.059-.304.09-.447.09V0Z" style="fill:#fff;fill-opacity:1;fill-rule:nonzero;stroke:none" transform="matrix(3.64217 0 0 -3.64217 208.4 544.202)"/><path d="M0 0c-.094.135-.336.23-.726.291v.537h6.359V.291C5.241.23 4.999.135 4.907 0a.883.883 0 0 1-.138-.514v-11.988c0-1.967-.223-3.623-.665-4.963-.443-1.342-1.049-2.416-1.821-3.223a6.195 6.195 0 0 0-2.716-1.675 11.454 11.454 0 0 0-3.32-.471c-1.172 0-2.277.158-3.316.471a6.185 6.185 0 0 0-2.718 1.675c-.773.807-1.379 1.881-1.821 3.223-.444 1.34-.664 2.996-.664 4.963V-.514a.883.883 0 0 1-.139.514c-.093.135-.336.23-.725.291v.537h6.359V.291C-7.169.23-7.41.135-7.503 0a.876.876 0 0 1-.139-.514v-11.988c0-1.728.34-2.967 1.019-3.711.68-.746 1.637-1.119 2.87-1.119 1.236 0 2.193.373 2.871 1.119.681.744 1.02 1.983 1.02 3.711V-.514A.883.883 0 0 1 0 0" style="fill:#fff;fill-opacity:1;fill-rule:nonzero;stroke:none" transform="matrix(3.64217 0 0 -3.64217 271.836 547.218)"/><path d="M0 0c-.093.135-.334.23-.726.291v.537h7.44V.291C6.363.26 6.134.195 6.021.088a.49.49 0 0 1-.17-.379c0-.059.133-.328.401-.805.268-.476.617-1.074 1.049-1.791a298.986 298.986 0 0 1 4.722-7.533c.515-.793.957-1.471 1.329-2.037V-.514c0 .506-.216.774-.649.805v.537h5.649V.291C17.962.23 17.72.135 17.627 0a.89.89 0 0 1-.139-.514v-20.843a.89.89 0 0 1 .139-.514c.093-.135.335-.233.725-.289v-.537h-5.864v.537c.287 0 .479.043.571.133a.475.475 0 0 1 .138.357.84.84 0 0 1-.092.336 7.575 7.575 0 0 1-.402.693 77.02 77.02 0 0 1-.912 1.409c-.399.611-.93 1.429-1.588 2.459a636.83 636.83 0 0 0-5.928 9.46v-14.044a.89.89 0 0 1 .139-.514c.094-.135.336-.233.727-.289v-.537H-.726v.537c.392.056.633.154.726.289a.883.883 0 0 1 .139.514V-.514A.883.883 0 0 1 0 0" style="fill:#fff;fill-opacity:1;fill-rule:nonzero;stroke:none" transform="matrix(3.64217 0 0 -3.64217 311.043 547.218)"/><path d="M0 0c1.625 0 2.799.604 3.52 1.811.718 1.207 1.08 2.765 1.08 4.673 0 1.909-.362 3.467-1.08 4.674-.721 1.207-1.895 1.811-3.52 1.811h-3.922V0Zm-8.691 17.42c-.092.135-.334.23-.725.291v.537H.834c1.418 0 2.652-.299 3.703-.896 1.051-.594 1.914-1.422 2.594-2.481.68-1.06 1.189-2.307 1.527-3.734.34-1.432.51-2.983.51-4.653 0-1.521-.18-2.988-.539-4.406C8.268.662 7.721-.592 6.992-1.68a8.66 8.66 0 0 0-2.717-2.615c-1.08-.656-2.341-.982-3.783-.982h-9.908v.537c.391.056.633.154.725.289.093.135.14.305.14.513v20.844a.883.883 0 0 1-.14.514" style="fill:#fff;fill-opacity:1;fill-rule:nonzero;stroke:none" transform="matrix(3.64217 0 0 -3.64217 427.556 610.665)"/><path d="m0 0-2.996 10.645L-5.742 0Zm-7.502-7.693c0-.151.035-.262.107-.334.073-.077.221-.112.45-.112v-.537h-5.465v.537c.226.057.39.155.494.289.102.135.205.379.309.739.041.148.142.55.308 1.207.164.656.379 1.482.649 2.482.267.998.564 2.109.894 3.332.33 1.223.658 2.467.988 3.735.329 1.267.653 2.505.973 3.712.318 1.207.602 2.288.85 3.243l.599 2.326c.157.595.233.91.233.939a.318.318 0 0 1-.2.313 2.16 2.16 0 0 1-.417.135v.537h8.058v-.537a1.285 1.285 0 0 1-.402-.135c-.104-.061-.155-.207-.155-.448 0-.058.098-.447.293-1.162.196-.716.448-1.648.756-2.795.309-1.148.664-2.447 1.067-3.892.4-1.447.816-2.922 1.25-4.428.431-1.506.847-2.973 1.25-4.404.4-1.432.765-2.713 1.095-3.846.166-.539.303-.896.416-1.076.116-.178.264-.266.448-.266v-.537h-6.08v.537c.39.028.586.207.586.535 0 .03-.051.231-.155.604-.103.373-.217.791-.34 1.252l-.355 1.32a7.7 7.7 0 0 0-.199.85h-7.319c-.205-.805-.369-1.461-.492-1.969s-.222-.908-.293-1.207l-.156-.648a1.617 1.617 0 0 1-.045-.291" style="fill:#fff;fill-opacity:1;fill-rule:nonzero;stroke:none" transform="matrix(3.64217 0 0 -3.64217 512.528 598.287)"/><path d="M0 0c.391.057.633.154.725.289.093.135.14.305.14.514v20.843a.881.881 0 0 1-.14.514c-.092.135-.334.231-.725.291v.537h6.359v-.537c-.392-.06-.632-.156-.726-.291a.888.888 0 0 1-.137-.514V.803a.89.89 0 0 1 .137-.514c.094-.135.334-.232.726-.289v-.537H0Z" style="fill:#fff;fill-opacity:1;fill-rule:nonzero;stroke:none" transform="matrix(3.64217 0 0 -3.64217 553.083 627.93)"/><path d="M0 0c-.047.045-.165.078-.356.098v.181h3.119V.098C2.571.078 2.452.045 2.407 0a.235.235 0 0 1-.068-.176v-4.056c0-.666-.109-1.227-.325-1.68a2.822 2.822 0 0 0-.894-1.092 3.496 3.496 0 0 0-1.333-.568 7.994 7.994 0 0 0-1.628-.158c-.575 0-1.118.052-1.628.158-.51.107-.953.297-1.332.568a2.774 2.774 0 0 0-.892 1.092c-.219.453-.327 1.014-.327 1.68v4.056A.239.239 0 0 1-6.088 0c-.045.045-.164.078-.355.098v.181h3.119V.098C-3.516.078-3.635.045-3.68 0a.239.239 0 0 1-.068-.176v-4.056c0-.586.166-1.004.499-1.258.333-.252.803-.379 1.408-.379.607 0 1.075.127 1.408.379.334.254.5.672.5 1.258v4.056A.238.238 0 0 1 0 0" style="fill:#221e1f;fill-opacity:1;fill-rule:nonzero;stroke:none" transform="matrix(3.64217 0 0 -3.64217 258.7 663)"/><path d="M0 0v-3.926c0-.576.09-1.056.27-1.428a2.18 2.18 0 0 1 .707-.867 2.887 2.887 0 0 1 1.108-.47 7.853 7.853 0 0 1 3.017.002c.425.087.799.246 1.109.468.299.217.529.498.705.867.18.372.27.852.27 1.428V0H6.088v-3.926c0-.775-.246-1.355-.733-1.724-.435-.332-1.028-.498-1.762-.498s-1.327.166-1.763.498c-.485.369-.731.949-.731 1.724V0Zm3.593-8.01c-.611 0-1.198.055-1.747.17a4.062 4.062 0 0 0-1.556.666c-.457.328-.82.772-1.08 1.315-.254.531-.383 1.181-.383 1.933v3.76l-.425.043v1.297h4.295V-.123l-.425-.043v-3.76c0-.588.201-.738.267-.789.228-.172.582-.26 1.054-.26.472 0 .827.088 1.053.26.067.049.268.201.268.789v3.76l-.424.043v1.297h4.293V-.123l-.424-.043v-3.76c0-.752-.129-1.402-.382-1.933a3.413 3.413 0 0 0-1.081-1.315 4.073 4.073 0 0 0-1.554-.666 8.577 8.577 0 0 0-1.749-.17" style="fill:#221e1f;fill-opacity:1;fill-rule:nonzero;stroke:none" transform="matrix(3.64217 0 0 -3.64217 238.91 664.116)"/><path d="M0 0c.081 0 .142.027.182.084.041.055.07.168.09.34h.183v-2.619H.272c-.02.16-.049.259-.09.295-.04.035-.101.052-.182.052h-7.904v.184c.191.019.31.051.356.098a.235.235 0 0 1 .069.171v7.057a.24.24 0 0 1-.069.176c-.046.045-.165.078-.356.098v.181h3.119v-.181c-.192-.02-.31-.053-.356-.098a.238.238 0 0 1-.067-.176V0Z" style="fill:#221e1f;fill-opacity:1;fill-rule:nonzero;stroke:none" transform="matrix(3.64217 0 0 -3.64217 298.985 684.262)"/><path d="M0 0h6.76v.672H1.098v6.119H0Zm7.934-1.523H6.646l-.042.349h-8.202V.125l.424.043v6.457l-.424.043v1.297h4.292V6.668l-.423-.043V1.848h4.323l.05.423h1.29z" style="fill:#221e1f;fill-opacity:1;fill-rule:nonzero;stroke:none" transform="matrix(3.64217 0 0 -3.64217 273.881 688.85)"/><path d="M0 0a1.16 1.16 0 0 1-.029-.318c0-.102.092-.215.279-.34.187-.127.43-.244.727-.356a6.598 6.598 0 0 1 2.188-.394c.757 0 1.312.088 1.665.265.354.176.53.432.53.764 0 .182-.153.311-.462.387A8.404 8.404 0 0 1 3.74.189c-.465.045-.965.096-1.499.153A7.439 7.439 0 0 0 .742.643c-.465.148-.85.359-1.158.638-.309.276-.462.657-.462 1.141 0 .385.089.732.265 1.047.175.312.424.58.742.801.318.222.703.396 1.158.525.455.125.959.187 1.515.187a10.1 10.1 0 0 0 1.438-.097c.444-.069.838-.141 1.182-.223.342-.078.63-.152.862-.217.233-.066.399-.099.501-.099.1 0 .181.025.241.068.06.047.117.098.167.158l.166-.06-1.045-2.104-.181.09v.168c0 .09-.098.184-.295.279a3.907 3.907 0 0 1-.75.258 8.984 8.984 0 0 1-1.015.188 7.913 7.913 0 0 1-1.091.078c-.656 0-1.115-.078-1.377-.227-.263-.152-.393-.314-.393-.486s.091-.299.272-.387c.181-.084.418-.148.712-.189.292-.037.624-.073.999-.098.373-.025.757-.062 1.151-.113a10.38 10.38 0 0 0 1.15-.213c.375-.09.707-.225 1-.401.293-.175.53-.408.711-.697.184-.287.273-.648.273-1.082 0-.334-.068-.66-.205-.984-.136-.324-.367-.613-.695-.871-.328-.258-.767-.459-1.318-.612-.55-.152-1.234-.228-2.052-.228-.636 0-1.185.029-1.643.092-.46.06-.85.132-1.172.218a8.06 8.06 0 0 0-.766.235 1.285 1.285 0 0 1-.416.105.227.227 0 0 1-.159-.06 5.368 5.368 0 0 1-.144-.135l-.181.043L-.151.076z" style="fill:#221e1f;fill-opacity:1;fill-rule:nonzero;stroke:none" transform="matrix(3.64217 0 0 -3.64217 301.688 679.795)"/><path d="M0 0c.06-.012.127-.023.203-.033.281-.039.602-.071.96-.096.384-.025.779-.064 1.185-.115.381-.051.757-.119 1.126-.205v.086a3.537 3.537 0 0 1-.6.201 9.274 9.274 0 0 1-.952.176c-.346.047-.686.07-1.012.07C.438.084.158.041 0 0m-1.508-2.959.014-.01c.148-.099.35-.199.603-.293.27-.099.582-.185.932-.254a5.436 5.436 0 0 1 1.052-.101c.823 0 1.218.109 1.403.201.051.027.09.051.119.072a7.888 7.888 0 0 1-1.006.153c-.464.045-.964.093-1.502.152a8.042 8.042 0 0 0-1.541.305zm-.925-1.795a3.16 3.16 0 0 0 .199-.068c.164-.063.402-.135.706-.217a9.3 9.3 0 0 1 1.1-.205c.432-.055.959-.086 1.566-.086.761 0 1.399.07 1.896.207.472.129.847.303 1.111.508.248.195.421.41.518.638.108.252.159.5.159.756 0 .319-.061.578-.182.77a1.547 1.547 0 0 1-.519.508 3.057 3.057 0 0 1-.835.334 9.874 9.874 0 0 1-1.087.197c-.381.051-.754.088-1.115.111-.389.026-.736.063-1.04.104-.357.051-.646.127-.884.24-.386.182-.607.516-.607.916 0 .271.119.666.685.994.364.209.895.307 1.672.307A9.861 9.861 0 0 0 3.159.975a4.292 4.292 0 0 0 .937-.336l.191.382a4.037 4.037 0 0 0-.237.065c-.223.059-.502.133-.834.209-.32.076-.7.146-1.134.211-.849.125-1.922.144-2.71-.074a3.19 3.19 0 0 1-.98-.442 1.824 1.824 0 0 1-.566-.605 1.52 1.52 0 0 1-.189-.76c0-.416.152-.602.267-.707.242-.219.561-.391.944-.512a6.755 6.755 0 0 1 1.381-.277 95.967 95.967 0 0 1 1.496-.15 9.106 9.106 0 0 0 1.242-.2c.819-.199.908-.734.908-.955 0-.556-.304-1.013-.854-1.289-.441-.221-1.072-.328-1.928-.328-.431 0-.861.041-1.28.127-.411.08-.786.184-1.114.305a4.096 4.096 0 0 0-.806.39zm3.571-1.748c-.659 0-1.238.031-1.72.096-.482.064-.901.142-1.246.232-.35.094-.619.178-.824.256l-.102.035-.228-.228-1.166.291 1.522 3.66c-.09.064-.175.135-.256.209-.434.388-.655.922-.655 1.576 0 .484.115.934.341 1.334.217.389.526.725.916.994.374.264.823.465 1.338.61.952.261 2.189.251 3.196.105a15.99 15.99 0 0 0 1.23-.23c.352-.083.648-.157.887-.225.15-.043.24-.061.291-.07.003.003.006.007.01.009l.264.317 1.168-.426L4.647-.893c.028-.013.054-.031.08-.046.369-.223.675-.52.906-.887.24-.381.363-.852.363-1.395 0-.41-.085-.818-.251-1.213a2.78 2.78 0 0 0-.876-1.101c-.387-.307-.9-.547-1.523-.719-.598-.166-1.34-.248-2.208-.248" style="fill:#221e1f;fill-opacity:1;fill-rule:nonzero;stroke:none" transform="matrix(3.64217 0 0 -3.64217 309.236 669.608)"/><path d="m0 0-1.469 3.605L-2.815 0Zm-3.679-2.602c0-.052.017-.089.053-.115.036-.025.108-.037.22-.037v-.184h-2.68v.184c.11.02.191.051.242.098.049.045.1.129.152.25l.15.408c.081.223.187.504.318.84l.439 1.129c.162.412.323.834.484 1.263.162.43.321.848.479 1.258l.416 1.098.295.787c.076.203.113.309.113.318 0 .051-.033.086-.098.104a1.08 1.08 0 0 1-.204.047v.181H.652v-.181a.702.702 0 0 1-.198-.047c-.05-.018-.075-.069-.075-.151 0-.019.048-.15.143-.392.097-.244.22-.557.371-.947A149.186 149.186 0 0 1 2.029.492c.212-.51.416-1.006.614-1.49.197-.484.377-.92.538-1.303.081-.183.149-.301.204-.363a.28.28 0 0 1 .219-.09v-.184H.621v.184c.192.008.289.07.289.18 0 .01-.026.078-.077.205-.05.127-.106.267-.166.424-.062.156-.118.306-.175.445a2.172 2.172 0 0 0-.097.289h-3.59a43.658 43.658 0 0 1-.386-1.074c-.034-.104-.06-.176-.075-.221a.35.35 0 0 1-.023-.096" style="fill:#221e1f;fill-opacity:1;fill-rule:nonzero;stroke:none" transform="matrix(3.64217 0 0 -3.64217 348.29 680.293)"/><path d="M0 0h1.097L.524 1.404Zm3.425-2.938h1.109c-.144.344-.299.721-.465 1.131-.197.483-.401.977-.612 1.489a147.887 147.887 0 0 0-1.14 2.826l-.371.945a8.331 8.331 0 0 0-.15.401H.794l2.049-5.028h-4.535l1.88 5.028h-.681a10.128 10.128 0 0 0-.1-.272l-.295-.787c-.121-.322-.259-.69-.416-1.1-.158-.41-.316-.828-.476-1.254a115.24 115.24 0 0 0-.489-1.273l-.437-1.127a65.126 65.126 0 0 1-.315-.828c-.019-.057-.039-.108-.054-.151h.821c.003.008.007.016.009.026l.224.641c.063.175.144.4.246.675l.141.383h4.483l.091-.475c.008-.031.034-.093.069-.183l.34-.867c.031-.082.057-.145.076-.2m2.736-1.173H2.005v1.328l.098.004-.155.394H-.815a12.236 12.236 0 0 1-.099-.277l-.032-.092h.053l.042-.771v-.586h-3.853v1.261l.437.077c0 .002.001.002.002.003.015.04.065.17.141.385.084.225.189.508.323.852l.44 1.129c.161.412.321.832.483 1.258.16.429.319.851.477 1.261.155.405.295.772.415 1.094l.196.523-.127.02v1.275h5.126V3.742L3.1 3.729l.311-.793c.151-.387.322-.827.52-1.313.196-.488.399-.984.611-1.494.212-.512.417-1.008.615-1.494.196-.485.373-.914.533-1.297l.045-.094h.426z" style="fill:#221e1f;fill-opacity:1;fill-rule:nonzero;stroke:none" transform="matrix(3.64217 0 0 -3.64217 341.115 678.151)"/><path d="M0 0c-.045.045-.164.078-.355.098v.181h3.648V.098c-.171-.01-.284-.034-.34-.069-.056-.033-.084-.078-.084-.129 0-.019.067-.109.197-.271.132-.162.303-.365.515-.608a131.047 131.047 0 0 1 1.53-1.701c.272-.3.535-.582.787-.847l.651-.69v4.041c0 .174-.106.264-.317.274v.181h2.77V.098C8.811.078 8.691.045 8.646 0a.243.243 0 0 1-.068-.176v-7.056c0-.069.024-.127.068-.172.045-.047.165-.078.356-.098v-.184H6.125v.184c.141 0 .235.014.28.043a.142.142 0 0 1 .069.123.217.217 0 0 1-.046.113 2.72 2.72 0 0 1-.196.235c-.101.111-.252.269-.448.476a174.259 174.259 0 0 0-1.975 2.135c-.475.52-1.045 1.154-1.711 1.9v-4.755c0-.069.021-.127.068-.172.045-.047.164-.078.355-.098v-.184H-.355v.184c.191.02.31.051.355.098a.234.234 0 0 1 .068.172v7.056A.239.239 0 0 1 0 0" style="fill:#221e1f;fill-opacity:1;fill-rule:nonzero;stroke:none" transform="matrix(3.64217 0 0 -3.64217 361.72 663)"/><path d="M0 0h.973v6.791H.118V1.406l-1.666 1.76c-.254.27-.518.555-.793.855l-.814.895c-.269.301-.51.574-.723.818a20.36 20.36 0 0 0-.529.621c-.141.174-.241.299-.293.436h-1.663V0h.854v6.16l1.026-1.148c.664-.744 1.234-1.377 1.707-1.897.473-.517.87-.949 1.192-1.297.321-.345.579-.621.774-.826.203-.213.354-.375.456-.488.133-.147.216-.25.255-.311A.803.803 0 0 0 0 0m2.571-1.174H-1.48v1.168a85.225 85.225 0 0 0-.964 1.026c-.324.349-.723.783-1.2 1.304l-.691.764V.168l.424-.043v-1.299h-4.05V.125l.423.043v6.457l-.423.043v1.297h4.823V6.67l.142-.164c.21-.238.449-.506.715-.805l.805-.888.42-.454v2.262l-.31.016-.008 1.328h3.945V6.668l-.425-.043V.168l.425-.043Z" style="fill:#221e1f;fill-opacity:1;fill-rule:nonzero;stroke:none" transform="matrix(3.64217 0 0 -3.64217 387.283 688.85)"/><path d="M0 0c-.047.045-.165.078-.356.098v.181h3.119V.098C2.571.078 2.452.045 2.407 0a.235.235 0 0 1-.068-.176v-4.056c0-.666-.109-1.227-.325-1.682a2.83 2.83 0 0 0-.894-1.09 3.496 3.496 0 0 0-1.333-.568 7.994 7.994 0 0 0-1.628-.158c-.575 0-1.118.052-1.628.158-.51.107-.953.297-1.332.568a2.782 2.782 0 0 0-.892 1.09c-.219.455-.327 1.016-.327 1.682v4.056A.239.239 0 0 1-6.088 0c-.045.045-.164.078-.355.098v.181h3.119V.098C-3.516.078-3.635.045-3.68 0a.239.239 0 0 1-.068-.176v-4.056c0-.586.166-1.004.499-1.258.333-.252.803-.379 1.408-.379.607 0 1.075.127 1.408.379.334.254.5.672.5 1.258v4.056A.238.238 0 0 1 0 0" style="fill:#fff;fill-opacity:1;fill-rule:nonzero;stroke:none" transform="matrix(3.64217 0 0 -3.64217 258.7 663)"/><path d="M0 0c.081 0 .142.027.182.084.041.053.07.168.09.34h.183v-2.619H.272c-.02.16-.049.259-.09.295-.04.035-.101.052-.182.052h-7.904v.182c.191.021.31.053.356.1a.231.231 0 0 1 .069.171v7.057a.24.24 0 0 1-.069.176c-.046.045-.165.078-.356.098v.181h3.119v-.181c-.192-.02-.31-.053-.356-.098a.238.238 0 0 1-.067-.176V0Z" style="fill:#fff;fill-opacity:1;fill-rule:nonzero;stroke:none" transform="matrix(3.64217 0 0 -3.64217 298.985 684.262)"/><path d="M0 0a1.16 1.16 0 0 1-.029-.318c0-.102.092-.215.279-.34.187-.127.43-.244.727-.358A6.84 6.84 0 0 1 2-1.295a5.968 5.968 0 0 1 1.165-.113c.757 0 1.312.088 1.665.265.354.176.53.432.53.764 0 .182-.153.311-.462.387A8.404 8.404 0 0 1 3.74.189c-.465.045-.965.096-1.499.153A7.439 7.439 0 0 0 .742.643C.277.789-.108 1-.416 1.279c-.309.278-.462.659-.462 1.143 0 .385.089.732.265 1.045.175.312.424.582.742.803.318.222.703.396 1.158.523.455.127.959.187 1.515.187.514 0 .994-.031 1.438-.095.444-.069.838-.141 1.182-.223.342-.08.63-.152.862-.217.233-.066.399-.099.501-.099.1 0 .181.023.241.068.06.047.117.098.167.158l.166-.06-1.045-2.104-.181.09v.168c0 .09-.098.184-.295.279a3.907 3.907 0 0 1-.75.258 9.976 9.976 0 0 1-1.015.188 8.23 8.23 0 0 1-1.091.076c-.656 0-1.115-.076-1.377-.227-.263-.15-.393-.312-.393-.484s.091-.299.272-.387c.181-.084.418-.148.712-.189.292-.039.624-.075.999-.098.373-.025.757-.062 1.151-.113a10.38 10.38 0 0 0 1.15-.213c.375-.09.707-.225 1-.401.293-.175.53-.408.711-.697.184-.287.273-.648.273-1.082 0-.334-.068-.662-.205-.984-.136-.324-.367-.613-.695-.871-.328-.258-.767-.461-1.318-.614-.55-.152-1.234-.226-2.052-.226-.636 0-1.185.029-1.643.09-.46.062-.85.134-1.172.22a8.06 8.06 0 0 0-.766.235 1.285 1.285 0 0 1-.416.105.227.227 0 0 1-.159-.06 5.368 5.368 0 0 1-.144-.135l-.181.043L-.151.076z" style="fill:#fff;fill-opacity:1;fill-rule:nonzero;stroke:none" transform="matrix(3.64217 0 0 -3.64217 301.688 679.795)"/><path d="m0 0-1.469 3.604L-2.815 0Zm-3.679-2.604c0-.05.017-.089.053-.113.036-.027.108-.039.22-.039v-.182h-2.68v.182c.11.022.191.053.242.1.049.045.1.129.152.248l.15.41c.081.221.187.504.318.84l.439 1.129c.162.412.323.834.484 1.263.162.43.321.848.479 1.256l.416 1.098c.121.324.218.586.295.789.076.203.113.309.113.316 0 .051-.033.088-.098.106a1.08 1.08 0 0 1-.204.047v.181H.652v-.181a.702.702 0 0 1-.198-.047c-.05-.018-.075-.069-.075-.151 0-.019.048-.15.143-.392.097-.244.22-.557.371-.947A149.186 149.186 0 0 1 2.029.492c.212-.51.416-1.008.614-1.49.197-.484.377-.92.538-1.303a1.54 1.54 0 0 1 .204-.365.288.288 0 0 1 .219-.09v-.182H.621v.182c.192.01.289.072.289.182 0 .01-.026.078-.077.205-.05.125-.106.267-.166.424-.062.156-.118.304-.175.445a2.172 2.172 0 0 0-.097.289h-3.59a43.658 43.658 0 0 1-.386-1.074c-.034-.104-.06-.176-.075-.221a.343.343 0 0 1-.023-.098" style="fill:#fff;fill-opacity:1;fill-rule:nonzero;stroke:none" transform="matrix(3.64217 0 0 -3.64217 348.29 680.293)"/><path d="M0 0c-.045.045-.164.078-.355.098v.181h3.648V.098c-.171-.01-.284-.034-.34-.069-.056-.035-.084-.078-.084-.129 0-.019.067-.109.197-.271.132-.162.303-.365.515-.608a96.128 96.128 0 0 1 2.317-2.548c.252-.27.469-.5.651-.69v4.041c0 .172-.106.264-.317.274v.181h2.77V.098C8.811.078 8.691.045 8.646 0a.243.243 0 0 1-.068-.176v-7.056c0-.071.024-.127.068-.172.045-.047.165-.078.356-.1v-.182H6.125v.182c.141 0 .235.016.28.045a.142.142 0 0 1 .069.123.217.217 0 0 1-.046.113c-.03.045-.096.123-.196.233-.101.113-.252.271-.448.478-.196.207-.456.485-.779.834a203.232 203.232 0 0 0-2.907 3.201v-4.755c0-.071.021-.127.068-.172.045-.047.164-.078.355-.1v-.182H-.355v.182c.191.022.31.053.355.1a.231.231 0 0 1 .068.172v7.056A.239.239 0 0 1 0 0" style="fill:#fff;fill-opacity:1;fill-rule:nonzero;stroke:none" transform="matrix(3.64217 0 0 -3.64217 361.72 663)"/></svg>